# Blender v2.78 (sub 0) OBJ File: 'Mesh_Dungeon_Small_RoomSquare_lod0.blend'
# www.blender.org
mtllib Mesh_CavePack_Slope_Short_lod2.mtl
o Plane
v 6.394050 9.456011 -7.969809
v 7.835494 8.498116 -4.722580
v 6.160801 13.392479 -7.457544
v 8.000000 12.000000 4.800000
v 8.000000 12.000000 -4.800000
v 7.979251 8.072088 4.788639
v 6.156580 12.044195 8.735533
v 8.000000 14.000000 1.600000
v 8.000000 14.000000 -1.600000
v 6.290195 14.923937 4.374147
v -5.285658 1.982649 8.269159
v -7.923162 -0.213798 -4.756833
v -7.843553 -0.427600 4.712891
v -6.985831 5.847439 -8.006849
v -5.999366 4.300130 8.269101
v -8.040896 3.999444 -4.828070
v -7.997498 6.000000 -1.604237
v -7.997498 6.000000 1.595763
v -8.052876 4.019399 4.821638
v -5.613573 10.721388 0.998664
v -6.293010 2.182616 -7.429406
v 5.976667 8.685163 7.717706
v -2.147519 13.834624 -1.609207
v -2.236570 9.652362 -8.406437
v 3.314016 15.555400 -2.160217
v 0.955558 15.072708 3.718388
v 1.133239 12.632255 7.882415
vt 2.6626 1.6583
vt -1.4338 1.6579
vt -1.4426 -0.5259
vt 1.9285 -0.5320
vt 2.6736 -0.5233
vt 1.7057 -0.3508
vt 0.3394 -0.1961
vt 0.8565 -0.8510
vt -1.3697 1.9248
vt -0.6932 1.3847
vt -0.5616 1.9753
vt 1.5606 1.4288
vt 1.6133 1.9790
vt 0.8576 2.0984
vt 0.1962 2.0984
vt -0.1253 1.5919
vt 2.1327 -0.6410
vt 1.6030 -0.9486
vt 2.2389 -1.3257
vt 0.7327 0.5612
vt 1.6796 0.5451
vt 0.8086 1.3203
vt -1.1581 -0.6092
vt -1.1396 -1.3908
vt -0.9077 -0.5113
vt 0.0487 0.9972
vt 2.0541 1.4432
vt -0.4911 -0.9769
vt 0.2376 -0.8611
vt -1.1125 1.3730
vt -0.4643 0.8742
vt 2.3841 1.9131
vn -0.6727 0.6700 0.3137
vn -0.1578 0.9055 0.3940
vn -0.1399 0.9314 -0.3360
vn -0.5031 0.5371 -0.6771
vn -0.1404 0.9620 -0.2340
vn 0.6427 -0.1726 0.7464
vn 0.7550 -0.6463 -0.1107
vn 0.8829 -0.4580 0.1037
vn -0.4246 -0.3473 -0.8361
vn -0.8642 -0.3186 -0.3894
vn -0.3727 -0.5982 0.7094
vn -0.8736 -0.2745 0.4019
vn -0.4294 -0.8913 0.1456
vn -0.5003 -0.8637 -0.0605
vn -0.3929 -0.8632 -0.3170
vn 0.2105 0.5583 0.8025
vn 0.9394 -0.0690 0.3357
vn 0.5106 -0.8359 0.2012
vn 0.3179 -0.4089 0.8554
vn 0.0353 -0.9748 0.2203
vn 0.0116 0.6451 -0.7640
vn 0.5343 -0.1273 -0.8356
vn 0.3161 -0.8982 -0.3053
vn -0.5329 0.2680 0.8025
vn 0.8464 -0.2827 -0.4514
vn 0.8724 -0.4610 -0.1621
vn 0.3051 -0.5875 -0.7494
usemtl Ground
s 1
f 2/1/1 12/2/2 13/3/3
f 22/4/4 6/5/5 2/1/1
f 2/1/1 13/3/3 22/4/4
usemtl Walls
f 14/6/6 20/7/7 17/8/8
f 6/9/5 7/10/9 4/11/10
f 3/12/11 5/13/12 9/14/13
f 8/15/14 4/11/10 10/16/15
f 21/17/16 16/18/17 12/19/2
f 23/20/18 24/21/19 3/12/11 25/22/20
f 17/8/8 16/18/17 14/6/6
f 9/14/13 25/22/20 3/12/11
f 11/23/21 13/24/3 15/25/22
f 20/7/7 23/20/18 26/26/23
f 24/21/19 1/27/24 3/12/11
f 13/24/3 19/28/25 15/25/22
f 21/17/16 14/6/6 16/18/17
f 23/20/18 25/22/20 26/26/23
f 4/11/10 7/10/9 10/16/15
f 19/28/25 18/29/26 20/7/7
f 11/23/21 22/30/4 13/24/3
f 6/9/5 22/30/4 7/10/9
f 15/25/22 27/31/27 7/10/9
f 15/25/22 19/28/25 20/7/7
f 18/29/26 17/8/8 20/7/7
f 10/16/15 7/10/9 27/31/27 26/26/23
f 20/7/7 26/26/23 27/31/27 15/25/22
f 8/15/14 10/16/15 25/22/20 9/14/13
f 24/21/19 14/6/6 21/17/16 1/27/24
f 15/25/22 7/10/9 22/30/4 11/23/21
f 20/7/7 14/6/6 24/21/19 23/20/18
f 2/32/1 1/27/24 21/17/16 12/19/2
f 1/27/24 2/32/1 5/13/12 3/12/11
f 25/22/20 10/16/15 26/26/23
