# Blender v2.78 (sub 0) OBJ File: 'Mesh_Dungeon_Small_RoomSquare_lod0.blend'
# www.blender.org
mtllib Mesh_CavePack_Slope_Long_lod0.mtl
o Plane.003
v 6.934014 5.460615 2.987324
v 6.934014 5.268920 -0.943888
v 6.934014 5.485186 -2.909493
v 5.841179 11.643229 4.734029
v -3.977166 1.400518 4.963555
v -2.209405 2.672220 3.730930
v -2.791974 2.143081 1.227015
v -4.797497 1.164400 1.595763
v -4.797497 1.058115 -1.604237
v -7.997498 0.000000 -1.604237
v -7.997498 -0.000000 1.595763
v 24.000000 8.000001 -4.799999
v 6.309774 9.371068 5.467907
v 4.772216 11.468001 -4.300183
v 5.706154 9.253586 -5.357158
v 0.361926 2.663628 1.190504
v 0.361926 2.981791 3.516398
v 0.361926 2.769913 -1.135391
v 0.361926 3.008948 -3.461285
v -2.791974 2.354959 -3.574062
v -2.791974 2.249366 -1.173524
v -4.797497 1.164401 -4.804238
v -7.997498 0.000001 -4.804238
v 4.858957 12.875790 2.950654
v 3.862647 13.081346 0.925489
v 24.000000 7.999999 4.800002
v 6.934014 6.530196 4.946919
v -7.997498 -0.000001 4.795763
v 23.513588 12.009806 7.112109
v 20.809492 14.146093 7.661648
v 22.706354 14.523464 4.710846
v 24.000000 11.999999 4.800002
v -0.845969 9.815351 5.583267
v 4.602612 13.081346 -2.291767
v 6.640407 7.121423 -4.966348
v -0.328038 7.303960 6.451663
v -7.997498 6.000000 -1.604236
v -6.424791 9.079368 -1.062355
v -6.424791 9.079368 1.109493
v -7.997498 6.000000 1.595764
v -2.027480 9.621675 -5.106883
v -0.995211 7.174111 -6.357596
v 3.862647 13.081346 -0.852860
v 0.258351 12.117968 -0.897588
v -7.101574 7.815544 -4.804236
v -5.606918 9.079368 -2.819651
v 24.000000 9.999999 4.800002
v 22.643074 10.307317 8.325703
v -7.133137 5.427937 -6.797887
v -6.397304 7.118610 -6.024894
v -7.997498 4.000001 -4.804237
v -1.931606 11.177684 3.473006
v -3.032814 11.404881 1.076636
v 3.328571 5.530545 -5.203983
v 1.076224 12.117968 -2.403974
v 0.361926 4.163984 5.835180
v 3.653091 4.877069 5.174181
v -3.241959 4.150178 -5.948592
v -6.044365 2.459400 -6.237717
v 23.047239 13.620671 -4.744368
v 24.000000 12.000001 -4.799998
v 24.000000 14.000000 -1.599998
v 24.000000 14.000000 1.600002
v -5.582260 2.097444 6.456114
v -3.930493 2.302887 6.537973
v -7.101574 5.999999 4.795764
v -5.260793 9.079366 3.528768
v -7.997498 1.999999 4.795763
v -6.712272 4.299206 6.723247
v -5.650177 3.535807 6.764989
v -7.997498 2.000001 -4.804237
v -3.451756 6.458889 6.470593
v -6.166935 5.999999 6.943252
v -3.969686 7.940221 5.574328
v 0.258351 12.117968 0.964159
v 1.359559 11.890769 3.084298
v -2.214941 11.404881 -2.730331
v 2.295954 7.887197 -5.613120
v 1.263685 10.334760 -4.506577
v 2.963127 8.017046 5.719602
v -7.997498 3.999999 4.795763
v 2.445196 10.528436 4.951307
v -2.557569 3.900240 6.103152
v 3.653091 3.722034 -3.050669
v 22.442711 11.913171 -8.013358
v -4.296992 6.673773 -6.479072
v -6.642600 3.678324 -6.487087
v 3.653091 3.482999 -0.992884
v 22.067165 13.590325 -6.884022
v 0.037406 4.817460 -5.895152
v 3.653091 3.694876 3.122688
v -5.329261 9.121337 -5.188218
v -3.032814 11.404881 -1.027678
v 22.525955 9.001150 -7.837610
v 22.555492 10.260490 -8.069925
v 24.000000 10.000001 -4.799999
v 21.854300 8.608075 7.726183
v 3.653091 3.376714 1.064902
v 6.934014 5.172760 1.021718
v 10.054941 6.466639 3.417131
v 10.054941 6.275901 -1.099460
v 10.054941 6.491087 -3.357754
v 8.967555 12.618431 5.423929
v 9.433813 10.357598 6.267087
v 7.903921 12.444077 -4.955526
v 8.833202 10.240702 -6.169889
v 7.990230 13.844848 3.375000
v 6.998887 14.049379 1.048277
v 10.054941 7.530889 5.668521
v 7.735162 14.049379 -2.648045
v 9.762798 8.119167 -5.720885
v 6.998887 14.049379 -0.994878
v 10.054941 6.180219 1.158836
v 14.936622 6.437513 4.271358
v 14.936622 6.225636 -1.408653
v 14.936622 6.464671 -4.248659
v 12.428396 13.271073 6.795084
v 12.946327 10.759685 7.855429
v 11.246885 13.077397 -6.257997
v 12.279154 10.629833 -7.785165
v 11.342759 14.633407 4.218375
v 10.241551 14.860605 1.292315
v 13.636292 7.619706 7.102679
v 11.059424 14.860606 -3.356136
v 13.311771 8.273181 -7.220503
v 10.241551 14.860605 -1.277132
v 14.936622 6.119350 1.431352
v 17.966377 7.071038 4.800001
v 18.853825 6.859706 -1.600000
v 19.072086 7.136500 -5.126138
v 16.460855 13.973567 7.643631
v 16.797565 11.431529 8.838384
v 15.268505 13.865020 -7.064039
v 16.122805 11.349803 -8.784790
v 15.475589 15.410165 4.740303
v 14.393484 15.715658 1.443340
v 17.260841 8.250196 7.990217
v 16.052685 15.657076 -3.794342
v 16.983963 8.925237 -8.148552
v 15.236913 15.715658 -1.451807
v 18.846210 6.753693 1.600001
v 19.604628 16.010733 -2.697170
v 19.196743 16.040024 0.074097
v 19.169518 12.265346 9.157190
v 19.951958 9.278755 8.952155
v 24.000000 7.999999 0.363641
v 19.282757 11.631487 -8.856123
v 19.769728 9.592864 -8.566287
v 19.174883 14.193648 -8.571051
v 20.410101 8.214073 -6.944841
v 17.562294 15.646850 3.652407
v 19.602901 16.146841 2.081185
vt -0.9892 0.1646
vt -0.7297 0.3109
vt -0.8174 0.6135
vt -1.0865 0.5691
vt -1.0932 0.9525
vt -1.4954 0.9515
vt -1.4945 0.5694
vt -0.4341 0.6214
vt -0.4228 0.3433
vt -0.4327 0.8983
vt -0.4272 1.1762
vt -0.8105 1.1898
vt -0.8141 0.9027
vt -1.0898 1.3343
vt -1.4962 1.3334
vt 0.4096 0.8819
vt 0.4070 0.6454
vt 0.8049 0.6300
vt 0.8046 0.9040
vt 0.4164 1.1183
vt 0.8072 1.1767
vt -1.4962 0.1882
vt 0.4195 0.4079
vt 0.8110 0.3553
vt -0.0343 0.8821
vt -0.0379 0.6403
vt -0.0240 0.3949
vt -0.0266 1.1274
vt 1.3918 0.6019
vt 1.3916 0.9407
vt 1.3972 0.2608
vt 1.3930 1.2818
vt 1.8642 0.5842
vt 1.8655 0.9667
vt 1.7682 0.1966
vt 1.8942 1.3899
vt 2.4978 0.7353
vt 2.4938 1.3541
vt 2.5001 0.2031
vt 2.4190 -0.6301
vt 2.0251 -0.6904
vt 1.9889 -0.9478
vt 0.9377 -0.7564
vt 0.8901 -1.1030
vt 1.5064 -1.1290
vt 1.3623 -0.7276
vt 0.5117 -0.8003
vt 0.4868 -1.1342
vt 0.3746 0.4680
vt 0.3789 0.2744
vt 0.7299 0.2738
vt 0.7250 0.4851
vt 0.4619 0.1162
vt 0.4434 -0.1809
vt 0.8220 -0.1892
vt 0.8153 0.1079
vt 0.4810 1.6339
vt 0.5144 1.2587
vt 0.9140 1.2530
vt 0.9037 1.6017
vt 2.1090 1.1347
vt 1.9004 1.0256
vt 2.1006 0.8485
vt 2.3170 1.0438
vt 0.4688 0.7008
vt 0.8245 0.7289
vt -1.1380 0.1539
vt -0.7549 0.2441
vt -0.7504 0.4616
vt -1.1340 0.5511
vt 0.5345 0.9663
vt 0.9116 0.9842
vt -0.8477 -0.1223
vt -0.6765 0.0711
vt 2.3784 1.2827
vt 2.0325 1.2703
vt -0.9417 -0.3565
vt -0.8200 -0.2594
vt -1.2106 -0.3118
vt 0.4817 -0.4994
vt 0.8922 -0.4810
vt 0.4327 1.9128
vt 0.8363 1.8932
vt -0.7733 -1.0554
vt -0.7080 -0.7001
vt -1.0721 -0.6456
vt -1.0731 -0.9209
vt 2.1772 -0.0721
vt 2.3392 -0.1947
vt 2.3477 0.2348
vt 2.3427 0.5931
vt -1.0066 1.6533
vt -1.0689 1.3970
vt -0.9260 1.4686
vt -0.9815 0.9016
vt -0.6557 0.7085
vt -1.3529 1.2213
vt -1.0036 1.1499
vt -0.9771 1.2773
vt -1.3511 -0.5332
vt -1.4800 -0.7554
vt -0.6329 1.1623
vt -0.8726 1.0834
vt -0.6062 0.9704
vt 0.0200 1.6585
vt 0.0783 1.2814
vt -1.2117 1.0129
vt 0.0536 -0.8439
vt 0.0306 -1.1865
vt -0.4274 1.8698
vt -0.7371 1.7859
vt -0.6895 1.4650
vt -0.3641 1.5708
vt -0.0246 1.9393
vt 0.1202 0.9756
vt 0.0684 0.6976
vt -0.6763 -0.4100
vt -1.0286 -0.5033
vt -0.2755 0.6962
vt -0.2386 0.9569
vt 0.0156 -0.1998
vt 0.0297 -0.5335
vt 2.0343 -0.2024
vt 2.0588 -0.3384
vt -0.3368 -0.7707
vt -0.3517 -0.4915
vt -0.0218 0.2666
vt 0.0583 0.1025
vt -0.3018 1.2241
vt -0.6581 -0.1432
vt -0.3517 -0.1873
vt -0.2855 0.0936
vt -1.4800 1.4350
vt -0.3562 0.2578
vt -0.3792 -1.1255
vt -0.3571 0.4593
vt -0.0246 0.4604
vt 2.0979 -0.4426
vt 2.4045 -0.4024
vt 2.0262 1.4180
vt 2.3696 1.5110
vt 1.3040 1.2743
vt 1.3382 1.5768
vt 1.0566 0.5080
vt 1.1662 0.7773
vt 2.1241 -0.5287
vt 1.2707 1.0325
vt 1.4329 1.9350
vt 1.0620 0.2653
vt 1.1870 -0.2285
vt 1.1521 0.0799
vt 1.2878 -0.4898
vt 1.5403 -0.2104
vt 1.5874 0.0852
vt 1.5128 0.2749
vt 1.6244 -0.4424
vt 1.6027 1.0318
vt 1.6312 1.2392
vt 1.7074 -0.6459
vt 1.5246 0.7898
vt 1.4355 0.5189
vt 1.6778 1.5062
vt 1.7933 1.8380
vt 1.8439 0.4135
vt 1.8751 0.1816
vt 1.8606 1.3620
vt 1.7933 1.1784
vt 1.9177 -0.5404
vt 1.8512 -0.4006
vt 1.8159 -0.2425
vt 1.6921 0.7058
vt 1.8652 0.5838
vn -0.4646 0.8384 -0.2850
vn -0.3776 0.8927 -0.2462
vn -0.3458 0.9381 -0.0191
vn -0.4080 0.9130 0.0007
vn -0.4156 0.9095 0.0090
vn -0.3281 0.9447 0.0000
vn -0.3315 0.9435 -0.0039
vn -0.1864 0.9811 -0.0515
vn -0.1920 0.9316 -0.3086
vn -0.1945 0.9786 0.0675
vn -0.2203 0.9012 0.3732
vn -0.3847 0.8584 0.3393
vn -0.3398 0.9398 0.0368
vn -0.4479 0.7827 0.4322
vn -0.0930 0.8492 0.5199
vn -0.3922 0.9172 0.0708
vn -0.3943 0.9180 -0.0423
vn -0.1452 0.9885 -0.0417
vn -0.1456 0.9870 0.0681
vn -0.3456 0.8651 0.3636
vn -0.0695 0.9366 0.3435
vn -0.0609 0.8746 -0.4810
vn -0.3645 0.8861 -0.2864
vn -0.0961 0.9557 -0.2782
vn -0.3489 0.9342 0.0744
vn -0.3484 0.9363 -0.0444
vn -0.3503 0.8902 -0.2912
vn -0.3498 0.8639 0.3623
vn -0.0729 0.9964 -0.0431
vn -0.0701 0.9958 0.0597
vn -0.0473 0.9655 -0.2561
vn -0.0191 0.9529 0.3027
vn -0.1836 0.9822 -0.0407
vn -0.1812 0.9824 0.0447
vn -0.1301 0.9577 -0.2567
vn -0.1124 0.9469 0.3013
vn -0.2265 0.9740 0.0059
vn -0.5079 0.8040 0.3093
vn -0.4769 0.8229 -0.3089
vn -0.0901 0.8500 0.5190
vn 0.1573 0.6006 0.7839
vn 0.1696 0.6305 0.7574
vn -0.1252 0.5076 0.8524
vn 0.2762 -0.9545 -0.1124
vn 0.2751 -0.9590 0.0682
vn 0.2772 -0.9586 0.0647
vn 0.2800 -0.9543 -0.1044
vn 0.2848 -0.8806 0.3788
vn 0.2322 -0.5845 0.7775
vn 0.3536 -0.5811 0.7330
vn 0.3066 -0.8890 0.3401
vn -0.1730 0.5794 -0.7965
vn 0.1000 -0.0528 -0.9936
vn 0.3272 -0.0191 -0.9448
vn 0.1401 0.6374 -0.7577
vn -0.8069 -0.2732 -0.5236
vn -0.2827 -0.6916 -0.6647
vn -0.5618 -0.7850 -0.2613
vn -0.8919 -0.2968 -0.3412
vn 0.2764 -0.8580 -0.4330
vn 0.3129 -0.8598 -0.4034
vn 0.8966 -0.4387 0.0611
vn 0.7350 -0.6746 0.0683
vn 0.7372 -0.6610 -0.1398
vn 0.8594 -0.4815 -0.1717
vn 0.2386 -0.5331 -0.8117
vn 0.3605 -0.5320 -0.7662
vn 0.8067 -0.5410 0.2377
vn 0.6059 -0.7621 0.2280
vn -0.8934 0.1946 -0.4050
vn -0.6452 0.0521 -0.7623
vn 0.5199 -0.0959 0.8489
vn 0.5128 -0.5102 0.6905
vn 0.8662 -0.0046 0.4997
vn 0.1159 -0.0998 0.9882
vn 0.3336 -0.0328 0.9421
vn -0.2372 0.4126 0.8795
vn 0.0242 0.3658 0.9304
vn -0.6655 -0.6814 0.3047
vn -0.8670 -0.3123 0.3883
vn -0.4948 -0.8610 0.1176
vn -0.5403 -0.8393 -0.0603
vn 0.1589 0.4583 -0.8745
vn -0.3635 0.5102 -0.7795
vn 0.7835 -0.4903 -0.3818
vn 0.5905 -0.6933 -0.4130
vn 0.6213 0.1137 -0.7753
vn 0.5674 0.0536 -0.8217
vn 0.1177 0.1294 -0.9846
vn 0.6300 0.0799 0.7725
vn -0.0572 -0.1334 -0.9894
vn 0.3828 -0.3982 -0.8336
vn 0.3107 -0.5531 -0.7730
vn -0.3060 0.5614 -0.7689
vn -0.1223 -0.0794 -0.9893
vn 0.8707 -0.2037 -0.4476
vn -0.2738 0.4637 0.8426
vn -0.3144 0.4091 -0.8566
vn -0.1964 0.5658 -0.8008
vn 0.0562 -0.5655 -0.8228
vn 0.1853 -0.8878 -0.4213
vn -0.0181 -0.1790 0.9837
vn 0.3309 0.2098 0.9201
vn 0.3052 -0.8473 -0.4348
vn 0.1276 -0.5812 -0.8037
vn 0.0647 -0.6130 0.7875
vn -0.0980 -0.1587 0.9824
vn -0.5716 -0.6479 0.5034
vn -0.6234 -0.2015 0.7555
vn -0.1999 0.4648 0.8625
vn -0.0834 -0.1595 0.9837
vn 0.2289 -0.9718 0.0572
vn 0.1978 -0.8995 0.3897
vn -0.0665 -0.1123 -0.9915
vn 0.3563 -0.7219 0.5933
vn 0.1084 -0.6691 0.7352
vn 0.2796 -0.8958 0.3453
vn 0.4133 -0.9049 0.1018
vn 0.4033 -0.9063 -0.1263
vn 0.2264 -0.9687 -0.1021
vn -0.6213 0.0524 0.7818
vn -0.9061 0.0037 0.4230
vn -0.4309 0.6893 -0.5825
vn 0.3177 -0.0133 -0.9481
vn 0.1556 0.6689 -0.7269
vn 0.2266 -0.9707 -0.0796
vn 0.2705 -0.8884 -0.3708
vn -0.5086 0.5008 0.7004
vn 0.3262 -0.5748 -0.7505
vn 0.2174 -0.9745 0.0552
vn 0.3296 -0.6188 0.7130
vn 0.2433 -0.9196 0.3086
vn 0.3294 -0.0283 0.9438
vn 0.2223 -0.7040 0.6745
vn 0.1362 -0.9584 0.2507
vn 0.1282 -0.9913 0.0297
vn 0.2006 -0.0633 0.9776
vn 0.1535 -0.7032 -0.6942
vn 0.2008 -0.0948 -0.9750
vn 0.0437 0.5851 0.8098
vn 0.1231 -0.9373 -0.3261
vn 0.1481 -0.9867 -0.0665
vn 0.0405 0.6649 -0.7459
vn -0.1509 -0.9883 0.0218
vn -0.1821 -0.9714 0.1521
vn -0.1249 0.3866 -0.9138
vn -0.0239 -0.2479 -0.9685
vn -0.0892 0.4135 0.9061
vn -0.0726 -0.1035 0.9920
vn -0.0890 -0.6701 0.7369
vn -0.0019 -0.9748 -0.2232
vn -0.1888 -0.9786 -0.0821
usemtl Ground.001
s 1
f 5/1/1 6/2/2 7/3/3 8/4/4
f 9/5/5 10/6/6 11/7/7 8/4/4
f 16/8/8 7/3/3 6/2/2 17/9/9
f 18/10/10 19/11/11 20/12/12 21/13/13
f 22/14/14 9/5/5 21/13/13 20/12/12
f 23/15/15 10/6/6 9/5/5 22/14/14
f 2/16/16 99/17/17 113/18/18 101/19/19
f 16/8/8 18/10/10 21/13/13 7/3/3
f 3/20/20 2/16/16 101/19/19 102/21/21
f 8/4/4 7/3/3 21/13/13 9/5/5
f 8/4/4 11/7/7 28/22/22 5/1/1
f 99/17/17 1/23/23 100/24/24 113/18/18
f 88/25/25 98/26/26 99/17/17 2/16/16
f 98/26/26 91/27/27 1/23/23 99/17/17
f 84/28/28 88/25/25 2/16/16 3/20/20
f 16/8/8 17/9/9 91/27/27 98/26/26
f 18/10/10 16/8/8 98/26/26 88/25/25
f 19/11/11 18/10/10 88/25/25 84/28/28
f 101/19/19 113/18/18 127/29/29 115/30/30
f 113/18/18 100/24/24 114/31/31 127/29/29
f 102/21/21 101/19/19 115/30/30 116/32/32
f 115/30/30 127/29/29 141/33/33 129/34/34
f 127/29/29 114/31/31 128/35/35 141/33/33
f 116/32/32 115/30/30 129/34/34 130/36/36
f 129/34/34 141/33/33 146/37/37
f 146/37/37 12/38/38 129/34/34
f 129/34/34 12/38/38 130/36/36
f 146/37/37 141/33/33 26/39/39
f 141/33/33 128/35/35 26/39/39
f 12/40/38 150/41/40 130/42/36
usemtl Walls.001
f 111/43/41 102/44/21 116/45/32 125/46/42
f 35/47/43 3/48/20 102/44/21 111/43/41
f 25/49/44 43/50/45 112/51/46 108/52/47
f 34/53/48 14/54/49 105/55/50 110/56/51
f 43/50/45 34/53/48 110/56/51 112/51/46
f 27/57/52 13/58/53 104/59/54 109/60/55
f 29/61/56 30/62/57 31/63/58 32/64/59
f 24/65/60 25/49/44 108/52/47 107/66/61
f 37/67/62 38/68/63 39/69/64 40/70/65
f 13/58/53 4/71/66 103/72/67 104/59/54
f 45/73/68 46/74/69 38/68/63 37/67/62
f 47/75/70 48/76/71 29/61/56 32/64/59
f 49/77/72 50/78/73 45/73/68 51/79/74
f 15/80/75 35/47/43 111/43/41 106/81/76
f 1/82/23 27/57/52 109/60/55 100/83/24
f 20/84/12 58/85/77 59/86/78 22/87/14
f 60/88/79 61/89/80 62/90/81
f 63/91/82 32/64/59 31/63/58
f 5/92/1 64/93/83 65/94/84
f 66/95/85 40/70/65 39/69/64 67/96/86
f 68/97/87 69/98/88 70/99/89
f 4/71/66 24/65/60 107/66/61 103/72/67
f 59/86/78 71/100/90 23/101/15
f 72/102/91 70/99/89 73/103/92 74/104/93
f 14/54/49 15/80/75 106/81/76 105/55/50
f 57/105/94 80/106/95 13/58/53 27/57/52
f 66/95/85 81/107/96 40/70/65
f 37/67/62 51/79/74 45/73/68
f 54/108/97 84/109/28 3/48/20 35/47/43
f 17/110/9 6/111/2 83/112/98 56/113/99
f 91/114/27 57/105/94 27/57/52 1/82/23
f 82/115/100 76/116/101 24/65/60 4/71/66
f 69/98/88 81/107/96 66/95/85 73/103/92
f 58/85/77 86/117/102 49/77/72 87/118/103
f 74/104/93 67/96/86 52/119/104 33/120/105
f 79/121/106 78/122/107 15/80/75 14/54/49
f 61/89/80 60/88/79 89/123/108 85/124/109
f 90/125/110 42/126/111 86/117/102 58/85/77
f 80/106/95 82/115/100 4/71/66 13/58/53
f 23/101/15 22/87/14 59/86/78
f 44/127/112 55/128/113 34/53/48 43/50/45
f 72/102/91 36/129/114 56/113/99 83/112/98
f 46/74/69 92/130/115 41/131/116 77/132/117
f 64/93/83 28/133/22 68/97/87 70/99/89
f 92/130/115 46/74/69 45/73/68 50/78/73
f 46/74/69 77/132/117 93/134/118 38/68/63
f 19/135/11 90/125/110 58/85/77 20/84/12
f 55/128/113 79/121/106 14/54/49 34/53/48
f 38/68/63 93/134/118 53/136/119 39/69/64
f 59/86/78 87/118/103 51/79/74 71/100/90
f 75/137/120 44/127/112 43/50/45 25/49/44
f 78/122/107 54/108/97 35/47/43 15/80/75
f 67/96/86 39/69/64 53/136/119 52/119/104
f 76/116/101 75/137/120 25/49/44 24/65/60
f 92/130/115 86/117/102 42/126/111 41/131/116
f 93/134/118 77/132/117 55/128/113 44/127/112
f 33/120/105 52/119/104 76/116/101 82/115/100
f 65/94/84 83/112/98 6/111/2 5/92/1
f 95/138/121 96/139/122 61/89/80 85/124/109
f 97/140/123 48/76/71 47/75/70 26/141/39
f 73/103/92 66/95/85 67/96/86 74/104/93
f 56/113/99 36/129/114 80/106/95 57/105/94
f 90/125/110 19/135/11 84/109/28 54/108/97
f 109/60/55 104/59/54 118/142/124 123/143/125
f 107/66/61 108/52/47 122/144/126 121/145/127
f 29/61/56 48/76/71 30/62/57
f 94/146/128 12/40/38 96/139/122 95/138/121
f 70/99/89 69/98/88 73/103/92
f 70/99/89 72/102/91 83/112/98 65/94/84
f 65/94/84 64/93/83 70/99/89
f 74/104/93 33/120/105 36/129/114 72/102/91
f 36/129/114 33/120/105 82/115/100 80/106/95
f 42/126/111 90/125/110 54/108/97 78/122/107
f 52/119/104 53/136/119 75/137/120 76/116/101
f 77/132/117 41/131/116 79/121/106 55/128/113
f 59/86/78 58/85/77 87/118/103
f 53/136/119 93/134/118 44/127/112 75/137/120
f 49/77/72 86/117/102 50/78/73
f 92/130/115 50/78/73 86/117/102
f 17/110/9 56/113/99 57/105/94 91/114/27
f 5/92/1 28/133/22 64/93/83
f 68/97/87 81/107/96 69/98/88
f 87/118/103 49/77/72 51/79/74
f 41/131/116 42/126/111 78/122/107 79/121/106
f 104/59/54 103/72/67 117/147/129 118/142/124
f 100/83/24 109/60/55 123/143/125 114/148/31
f 108/52/47 112/51/46 126/149/130 122/144/126
f 110/56/51 105/55/50 119/150/131 124/151/132
f 103/72/67 107/66/61 121/145/127 117/147/129
f 105/55/50 106/81/76 120/152/133 119/150/131
f 112/51/46 110/56/51 124/151/132 126/149/130
f 106/81/76 111/43/41 125/46/42 120/152/133
f 124/151/132 119/150/131 133/153/134 138/154/135
f 126/149/130 124/151/132 138/154/135 140/155/136
f 119/150/131 120/152/133 134/156/137 133/153/134
f 118/142/124 117/147/129 131/157/138 132/158/139
f 125/46/42 116/45/32 130/42/36 139/159/140
f 117/147/129 121/145/127 135/160/141 131/157/138
f 121/145/127 122/144/126 136/161/142 135/160/141
f 123/143/125 118/142/124 132/158/139 137/162/143
f 120/152/133 125/46/42 139/159/140 134/156/137
f 122/144/126 126/149/130 140/155/136 136/161/142
f 114/148/31 123/143/125 137/162/143 128/163/35
f 143/164/144 142/165/145 62/90/81 63/91/82
f 140/155/136 138/154/135 142/165/145 143/164/144
f 145/166/146 137/162/143 132/158/139 144/167/147
f 48/76/71 145/166/146 144/167/147 30/62/57
f 148/168/148 147/169/149 134/156/137 139/159/140
f 95/138/121 85/124/109 147/169/149 148/168/148
f 89/123/108 149/170/150 147/169/149 85/124/109
f 133/153/134 134/156/137 147/169/149 149/170/150
f 95/138/121 148/168/148 94/146/128
f 139/159/140 130/42/36 150/41/40
f 139/159/140 150/41/40 148/168/148
f 148/168/148 150/41/40 94/146/128
f 94/146/128 150/41/40 12/40/38
f 97/140/123 145/166/146 48/76/71
f 26/141/39 128/163/35 97/140/123
f 128/163/35 137/162/143 97/140/123
f 145/166/146 97/140/123 137/162/143
f 62/90/81 142/165/145 60/88/79
f 89/123/108 60/88/79 142/165/145
f 149/170/150 89/123/108 142/165/145
f 138/154/135 133/153/134 149/170/150 142/165/145
f 31/63/58 30/62/57 151/171/151 152/172/152
f 143/164/144 152/172/152 140/155/136
f 140/155/136 152/172/152 151/171/151 136/161/142
f 136/161/142 151/171/151 135/160/141
f 63/91/82 31/63/58 152/172/152 143/164/144
f 135/160/141 151/171/151 30/62/57 131/157/138
f 132/158/139 131/157/138 30/62/57 144/167/147
