# Blender v2.78 (sub 0) OBJ File: 'Mesh_Dungeon_Small_RoomSquare_lod0.blend'
# www.blender.org
mtllib Mesh_CavePack_Rock1_lod1.mtl
o lod0_Sphere.001
v 0.000000 1.289849 -3.419940
v -0.032537 2.863801 -0.739480
v 2.269259 1.683294 -2.314366
v 0.196065 -0.318344 -3.672782
v 3.335995 -0.298498 -1.628512
v 3.362946 1.329772 0.076232
v 1.897763 2.295829 0.848502
v 0.281907 -0.277693 4.167756
v 0.124748 1.915300 2.870646
v -1.838028 2.209870 2.203459
v -3.224971 -0.318337 2.266956
v -3.292746 -0.304176 -1.636968
v -3.121710 1.691637 -1.239900
vt 0.7212 0.3966
vt 0.8261 -0.2365
vt 1.3346 0.1001
vt 0.5705 -0.9638
vt 0.2309 -0.3056
vt -0.9159 1.0361
vt 0.2204 0.1586
vt -0.0784 0.7305
vt 0.2797 1.0218
vt 1.0853 0.9414
vt 0.3026 1.9997
vt 1.7020 1.2564
vt 1.8317 -0.1570
vn 0.0013 0.9869 -0.1614
vn 0.5453 0.5903 -0.5951
vn -0.0580 0.4711 -0.8802
vn 0.9246 0.0380 -0.3790
vn 0.9202 0.3228 0.2216
vn 0.1816 0.3423 0.9219
vn 0.4702 0.8253 0.3128
vn 0.1402 0.6970 0.7032
vn -0.4888 0.7300 0.4777
vn -0.7380 0.5949 -0.3185
vn -0.7857 0.3642 0.5000
vn -0.8514 0.2657 -0.4523
vn 0.0235 0.1242 -0.9920
usemtl Wall.006
s 1
f 2/1/1 3/2/2 1/3/3
f 5/4/4 6/5/5 8/6/6
f 7/7/7 9/8/8 6/5/5
f 7/7/7 2/1/1 9/8/8
f 9/8/8 2/1/1 10/9/9
f 10/9/9 2/1/1 13/10/10
f 2/1/1 1/3/3 13/10/10
f 7/7/7 6/5/5 3/2/2 2/1/1
f 3/2/2 6/5/5 5/4/4
f 10/9/9 11/11/11 8/6/6 9/8/8
f 8/6/6 6/5/5 9/8/8
f 13/10/10 12/12/12 11/11/11 10/9/9
f 1/3/3 4/13/13 12/12/12 13/10/10
f 5/4/4 4/13/13 1/3/3 3/2/2
