# Blender v2.78 (sub 0) OBJ File: 'Mesh_Dungeon_Small_RoomSquare_lod0.blend'
# www.blender.org
mtllib Mesh_CavePack_Room_TurnLong_lod2.mtl
o Plane.002_Plane.001
v 4.799964 0.001719 7.999996
v 7.624206 0.090502 4.653465
v -8.278964 0.042803 5.219868
v -4.798207 0.033265 7.996797
v -8.182858 3.516766 7.245922
v -4.800001 3.999999 8.000000
v -1.604634 5.990942 7.989329
v 7.210207 6.184423 4.134525
v 3.251692 8.290948 6.096715
v 1.599999 6.000000 8.000000
v 4.799999 4.000001 8.000000
v -9.531138 4.961601 3.391364
v 20.987228 0.078258 -22.951059
v 6.631322 0.154351 -20.302244
v 24.021713 0.000001 -11.178286
v 22.039000 4.736158 -24.101717
v 24.021713 4.000001 -20.778284
v 24.021713 6.000001 -17.578285
v 22.457930 7.978555 -13.302756
v 21.763506 7.860871 -19.674431
v 24.021713 6.000001 -14.378285
v 24.139465 4.011354 -11.061376
v 20.841927 5.428591 -8.391330
v 19.191120 0.010993 -8.028326
v 9.931840 6.324075 -21.151272
v 10.992463 7.998896 -18.369600
v 14.872380 5.240393 -7.482283
v -2.029149 -0.179220 -11.520790
v 24.048334 -0.281130 -20.783405
v -2.016278 6.163158 -11.950723
v 2.729095 6.600565 -7.880346
v -5.642971 8.187833 4.870594
v 3.147098 8.043264 1.437648
v 8.296787 -0.222350 -1.757768
v 8.227015 4.924875 -2.022966
v 0.480400 7.990701 -10.123646
v 8.118924 7.439456 -8.264925
vt 0.9121 -2.6297
vt 1.9149 -1.4989
vt 1.8879 -0.7232
vt 0.2806 -2.6734
vt 0.9167 4.1545
vt 1.2685 0.0668
vt 1.7812 2.0588
vt -0.6503 2.2840
vt -0.7961 0.0259
vt 1.9194 3.0242
vt 0.3754 4.0568
vt 2.4020 1.5842
vt 2.4505 1.9436
vt 2.2003 1.2485
vt 1.9711 1.7480
vt 1.9924 1.2860
vt 0.9100 1.4943
vt 1.4439 1.4110
vt 1.1758 1.5978
vt 1.4415 1.9013
vt 2.3366 -1.8634
vt 2.7062 -1.6793
vt 2.1535 -1.4045
vt 1.3194 -1.6220
vt 1.0809 -1.3719
vt 1.1954 -1.8634
vt 2.5299 -1.2933
vt 2.7123 -1.0212
vt 1.5166 -0.9315
vt 1.6588 -1.3918
vt 0.9100 2.7219
vt 0.4115 2.8348
vt 0.6700 1.5203
vt 0.1318 1.7640
vt -1.1951 -0.6078
vt -1.0295 0.8449
vt -1.3946 0.8185
vt -0.7515 2.4621
vt -0.5219 0.3998
vt -0.3091 1.5234
vt 1.9760 0.5511
vt 1.4397 0.5908
vt 1.4113 -0.3838
vt -0.0039 1.8744
vt 0.0822 1.4576
vt 2.8596 1.5982
vt 2.8634 2.0106
vt 0.3392 -1.6459
vt 0.6908 -1.8634
vt 0.9030 -1.7022
vt -0.8069 2.6671
vt -1.1665 2.6114
vt 1.9143 1.6275
vt -0.5018 -1.5727
vt 0.0196 -1.0966
vt 0.9653 0.1375
vt 1.9723 -0.3931
vt 0.1023 0.1670
vt 0.7890 0.1225
vt 1.9684 2.3011
vt 1.4412 2.3011
vt -1.5682 -0.7720
vt -0.7671 -1.8634
vt 2.5324 -0.8817
vt 2.2792 -0.9678
vt 2.0775 -1.4100
vt 2.1037 -0.9125
vt 2.7732 0.4083
vt 2.3300 0.3811
vt 2.4518 -0.0476
vt -1.8061 0.8389
vt 2.1037 0.9380
vt 1.5731 0.9943
vt 1.0995 1.2477
vn 0.2105 0.8813 -0.4232
vn -0.4663 0.8182 -0.3362
vn -0.7254 0.6146 -0.3100
vn 0.6695 0.7226 -0.1724
vn -0.3504 0.8537 0.3853
vn -0.5011 0.8030 -0.3227
vn -0.3328 0.6591 -0.6744
vn 0.4038 0.5963 0.6938
vn 0.5927 0.6920 0.4121
vn -0.3323 0.8117 -0.4803
vn -0.0988 0.6882 0.7188
vn 0.2464 -0.2739 -0.9297
vn 0.6730 -0.1293 -0.7283
vn 0.1480 -0.6692 -0.7282
vn 0.3597 -0.8881 -0.2862
vn -0.2654 -0.8705 -0.4144
vn -0.1245 -0.5794 -0.8055
vn -0.6709 -0.2747 -0.6888
vn -0.3675 -0.3317 0.8688
vn -0.8102 -0.5730 -0.1239
vn -0.4600 -0.8617 -0.2143
vn -0.7505 -0.6285 0.2041
vn -0.8434 -0.3188 0.4325
vn -0.3920 -0.4170 -0.8200
vn -0.6922 -0.2522 -0.6762
vn 0.3121 -0.5110 0.8009
vn 0.0897 -0.9715 0.2196
vn -0.1178 -0.9908 -0.0667
vn 0.1239 -0.9887 0.0839
vn -0.0326 -0.9980 -0.0537
vn 0.4307 -0.9021 -0.0270
vn -0.7663 -0.5271 -0.3674
vn -0.3030 -0.5902 -0.7482
vn -0.8049 -0.5009 -0.3182
vn 0.9510 -0.3076 0.0324
vn -0.3368 -0.8968 0.2869
vn 0.7132 -0.4613 0.5278
usemtl Ground.005
s 1
f 4/1/1 1/2/2 2/3/3 3/4/4
f 29/5/5 34/6/6 24/7/7
f 14/8/8 34/6/6 29/5/5
f 28/9/9 2/3/3 34/6/6
f 15/10/10 29/5/5 24/7/7
f 29/5/5 13/11/11 14/8/8
f 14/8/8 28/9/9 34/6/6
f 28/9/9 3/4/4 2/3/3
usemtl Walls.005
f 6/12/12 5/13/13 7/14/14
f 7/14/14 32/15/15 9/16/16
f 7/17/14 9/18/16 10/19/17
f 9/18/16 11/20/18 10/19/17
f 32/15/15 7/14/14 5/13/13
f 13/21/11 29/22/5 16/23/19
f 21/24/20 19/25/21 18/26/22
f 16/23/19 17/27/23 18/28/22
f 23/29/24 19/25/21 22/30/25
f 13/31/11 16/32/19 14/33/8
f 25/34/26 14/33/8 16/32/19
f 26/35/27 31/36/28 36/37/29
f 36/37/29 31/36/28 32/38/15
f 37/39/30 33/40/31 31/36/28
f 34/41/6 35/42/32 27/43/33
f 32/38/15 31/36/28 9/44/16
f 9/44/16 33/40/31 8/45/34
f 4/46/1 3/47/4 5/13/13
f 12/48/35 5/49/13 3/50/4
f 5/51/13 12/52/35 32/38/15
f 11/20/18 9/18/16 8/53/34
f 29/22/5 17/27/23 16/23/19
f 19/25/21 21/24/20 22/30/25
f 20/54/36 19/55/21 37/39/30
f 26/35/27 20/54/36 31/36/28
f 37/56/30 27/43/33 35/42/32
f 24/57/7 34/41/6 27/43/33
f 14/33/8 30/58/37 28/59/9
f 14/33/8 25/34/26 30/58/37
f 28/59/9 30/58/37 12/48/35
f 3/50/4 28/59/9 12/48/35
f 9/44/16 31/36/28 33/40/31
f 11/20/18 8/53/34 2/60/3 1/61/2
f 6/12/12 4/46/1 5/13/13
f 20/54/36 26/35/27 25/62/26 16/63/19
f 18/28/22 19/64/21 20/65/36 16/23/19
f 22/30/25 15/66/10 24/67/7 23/29/24
f 23/29/24 27/43/33 37/56/30 19/25/21
f 27/68/33 23/69/24 24/70/7
f 36/37/29 30/71/37 25/62/26 26/35/27
f 31/36/28 20/54/36 37/39/30
f 2/72/3 8/73/34 35/42/32 34/41/6
f 35/42/32 8/73/34 33/74/31 37/56/30
f 30/71/37 36/37/29 32/38/15 12/52/35
