# Blender v2.78 (sub 0) OBJ File: ''
# www.blender.org
mtllib Mesh_CavePack_Stalagmite_lod0.mtl
o Circle.001
v 0.669545 0.000000 -0.729384
v 0.893554 1.094975 -0.863177
v 0.975702 1.094975 -1.307955
v 0.776300 0.000000 -1.307394
v 1.359009 0.000000 -1.384479
v 1.424096 1.094975 -1.367272
v 1.619071 1.094975 -0.959154
v 1.612388 0.000000 -0.854111
v 1.186276 0.000000 -0.449240
v 1.291178 1.094975 -0.647606
v 1.531642 2.232473 -0.907165
v 1.275542 2.232473 -0.663831
v 0.964979 2.232473 -0.832202
v 1.029140 2.232473 -1.179595
v 1.379357 2.232473 -1.225925
v 1.254953 3.726173 -1.227154
v 1.358927 3.726173 -1.009519
v 1.184073 3.726173 -0.843381
v 0.972034 3.726173 -0.958338
v 1.015841 3.726173 -1.195522
v 1.009919 5.169180 -0.969968
v -0.409788 -0.000000 0.009541
v -0.671738 1.207780 -0.037510
v -1.092378 1.207780 -0.203757
v -0.956429 0.000000 -0.206504
v -0.919880 0.000000 -0.793152
v -1.064254 1.207780 -0.655182
v -0.626232 1.207780 -0.767932
v -0.350650 0.000000 -0.939675
v -0.035396 0.000000 -0.443584
v -0.383644 1.207780 -0.386190
v -0.491881 2.470485 -0.677746
v -0.302408 2.470485 -0.379587
v -0.527423 2.470485 -0.107252
v -0.855963 2.470485 -0.237098
v -0.833997 2.470485 -0.589683
v -0.498516 3.874677 -0.625674
v -0.273870 3.810690 -0.685799
v -0.149455 3.775253 -0.482230
v -0.297209 3.817338 -0.296292
v -0.512941 3.878786 -0.384945
v -0.309220 4.531331 -0.506399
v 0.924768 -0.000000 0.905177
v 0.731012 1.148129 0.957494
v 0.457787 1.148129 1.317944
v 0.569700 -0.000000 1.373598
v 0.014483 -0.000000 1.180658
v 0.030548 1.148129 1.169477
v 0.039724 1.148129 0.717270
v 0.026408 -0.000000 0.592994
v 0.588995 -0.000000 0.422737
v 0.472635 1.148129 0.586257
v -0.032303 2.094272 0.852004
v 0.305821 2.094272 0.749677
v 0.507625 2.094272 1.039631
v 0.294224 2.094272 1.321159
v -0.039470 2.094272 1.205199
v 0.177139 3.034037 1.158028
v 0.182032 3.034037 0.916880
v 0.412888 3.034037 0.847016
v 0.550671 3.034037 1.044984
v 0.404970 3.034037 1.237199
v 0.399755 4.106097 0.905093
vt 0.0870 0.1384
vt 0.2863 0.2058
vt 0.2704 0.2878
vt 0.0681 0.2466
vt 0.0657 0.3568
vt 0.2661 0.3701
vt 0.2668 0.4519
vt 0.0638 0.4678
vt 0.0638 0.5764
vt 0.2721 0.5374
vt 0.2868 0.6220
vt 0.0842 0.6854
vt 0.4775 0.4476
vt 0.4841 0.5114
vt 0.4972 0.2468
vt 0.4858 0.3128
vt 0.4786 0.3806
vt 0.4964 0.5751
vt 0.7489 0.3917
vt 0.7473 0.4338
vt 0.7547 0.4766
vt 0.7682 0.5187
vt 0.7575 0.3505
vt 0.7690 0.3081
vt 1.0151 0.4146
vt 0.1358 0.1483
vt 0.3432 0.2554
vt 0.3135 0.3332
vt 0.1068 0.2554
vt 0.0683 0.3620
vt 0.2873 0.4088
vt 0.2681 0.4927
vt 0.0299 0.4624
vt 0.0138 0.5671
vt 0.2599 0.5826
vt 0.2610 0.6722
vt 0.0275 0.6722
vt 0.5134 0.5330
vt 0.5107 0.6004
vt 0.5644 0.3453
vt 0.5327 0.4026
vt 0.5161 0.4668
vt 0.5027 0.6643
vt 0.7559 0.5313
vt 0.7434 0.5676
vt 0.7393 0.6062
vt 0.7512 0.6482
vt 0.7712 0.4935
vt 0.7910 0.4549
vt 0.8717 0.5716
vt 0.1894 0.3841
vt 0.3876 0.4675
vt 0.3687 0.5490
vt 0.1609 0.4899
vt 0.1414 0.5969
vt 0.3542 0.6341
vt 0.3379 0.7177
vt 0.1232 0.7049
vt 0.2379 0.2866
vt 0.4236 0.3932
vt 0.3048 0.2007
vt 0.4749 0.3282
vt 0.6284 0.4211
vt 0.5905 0.4776
vt 0.5617 0.5413
vt 0.5401 0.6076
vt 0.5254 0.6698
vt 0.5156 0.7322
vt 0.6905 0.6880
vt 0.6929 0.7322
vt 0.7389 0.5762
vt 0.7182 0.6122
vt 0.7005 0.6479
vt 0.7638 0.5401
vt 0.8915 0.6964
vn -0.8749 0.2310 0.4257
vn -0.8987 0.1439 0.4142
vn -0.6589 0.1157 -0.7433
vn -0.7151 0.1299 -0.6869
vn 0.4567 -0.0132 -0.8895
vn 0.4822 0.0544 -0.8744
vn 0.9875 0.0378 0.1533
vn 0.9762 0.0148 0.2162
vn 0.0901 0.1692 0.9815
vn 0.1570 0.0903 0.9835
vn 0.9743 0.0949 0.2041
vn 0.1360 0.0700 0.9882
vn -0.8912 0.0432 0.4516
vn -0.6944 0.0507 -0.7178
vn 0.4943 0.0855 -0.8651
vn 0.4680 0.1306 -0.8740
vn 0.9720 0.1732 0.1589
vn 0.1389 0.1163 0.9835
vn -0.9082 0.0329 0.4172
vn -0.6740 0.0490 -0.7371
vn -0.0999 0.9936 0.0521
vn 0.3146 0.1050 0.9434
vn 0.1888 0.0537 0.9805
vn -0.8558 0.0359 0.5161
vn -0.8278 -0.0944 0.5531
vn -0.7304 -0.0093 -0.6830
vn -0.7959 0.0696 -0.6014
vn 0.3126 0.1213 -0.9421
vn 0.4053 0.2187 -0.8876
vn 0.9606 0.2751 0.0402
vn 0.9907 0.1128 0.0756
vn 0.3623 -0.0180 -0.9319
vn 0.9935 -0.0845 0.0766
vn 0.2470 0.0594 0.9672
vn -0.8180 0.2082 0.5362
vn -0.7659 0.1716 -0.6197
vn -0.7187 0.2400 -0.6526
vn 0.4036 0.0791 -0.9115
vn 0.9985 0.0300 0.0465
vn 0.3040 0.1736 0.9367
vn -0.7921 0.2975 0.5329
vn 0.0665 0.9977 -0.0153
vn 0.9861 0.1662 0.0037
vn 0.9806 0.1953 0.0171
vn 0.3020 0.0645 0.9511
vn 0.3157 0.0766 0.9457
vn -0.8207 0.0170 0.5712
vn -0.8191 -0.0331 0.5728
vn -0.7879 0.0516 -0.6136
vn -0.7772 0.0766 -0.6246
vn 0.3391 0.1662 -0.9260
vn 0.3296 0.1904 -0.9247
vn -0.8175 0.1142 -0.5645
vn 0.2797 0.1435 -0.9493
vn 0.9947 0.0953 0.0387
vn 0.2347 0.0470 0.9709
vn -0.8283 0.0639 0.5566
vn -0.7777 0.2478 0.5778
vn -0.7840 0.1893 -0.5912
vn 0.3527 0.0539 -0.9342
vn 0.9979 0.0492 0.0424
vn 0.3014 0.1599 0.9400
vn 0.0488 0.9913 -0.1221
usemtl None
s 1
f 1/1/1 2/2/2 3/3/3 4/4/4
f 5/5/5 6/6/6 7/7/7 8/8/8
f 9/9/9 10/10/10 2/11/2 1/12/1
f 4/4/4 3/3/3 6/6/6 5/5/5
f 8/8/8 7/7/7 10/10/10 9/9/9
f 7/7/7 11/13/11 12/14/12 10/10/10
f 2/2/2 13/15/13 14/16/14 3/3/3
f 6/6/6 15/17/15 11/13/11 7/7/7
f 10/10/10 12/14/12 13/18/13 2/11/2
f 3/3/3 14/16/14 15/17/15 6/6/6
f 15/17/15 16/19/16 17/20/17 11/13/11
f 12/14/12 18/21/18 19/22/19 13/18/13
f 14/16/14 20/23/20 16/19/16 15/17/15
f 11/13/11 17/20/17 18/21/18 12/14/12
f 13/15/13 19/24/19 20/23/20 14/16/14
f 18/21/18 17/20/17 21/25/21
f 17/20/17 16/19/16 21/25/21
f 19/22/19 18/21/18 21/25/21
f 20/23/20 19/24/19 21/25/21
f 16/19/16 20/23/20 21/25/21
f 22/26/22 23/27/23 24/28/24 25/29/25
f 26/30/26 27/31/27 28/32/28 29/33/29
f 30/34/30 31/35/31 23/36/23 22/37/22
f 25/29/25 24/28/24 27/31/27 26/30/26
f 29/33/29 28/32/28 31/35/31 30/34/30
f 28/32/28 32/38/32 33/39/33 31/35/31
f 23/27/23 34/40/34 35/41/35 24/28/24
f 27/31/27 36/42/36 32/38/32 28/32/28
f 31/35/31 33/39/33 34/43/34 23/36/23
f 24/28/24 35/41/35 36/42/36 27/31/27
f 36/42/36 37/44/37 38/45/38 32/38/32
f 33/39/33 39/46/39 40/47/40 34/43/34
f 35/41/35 41/48/41 37/44/37 36/42/36
f 32/38/32 38/45/38 39/46/39 33/39/33
f 34/40/34 40/49/40 41/48/41 35/41/35
f 39/46/39 38/45/38 42/50/42
f 38/45/38 37/44/37 42/50/42
f 40/47/40 39/46/39 42/50/42
f 41/48/41 40/49/40 42/50/42
f 37/44/37 41/48/41 42/50/42
f 43/51/43 44/52/44 45/53/45 46/54/46
f 47/55/47 48/56/48 49/57/49 50/58/50
f 51/59/51 52/60/52 44/52/44 43/51/43
f 46/54/46 45/53/45 48/56/48 47/55/47
f 50/61/50 49/62/49 52/60/52 51/59/51
f 49/62/49 53/63/53 54/64/54 52/60/52
f 44/52/44 55/65/55 56/66/56 45/53/45
f 48/56/48 57/67/57 53/68/53 49/57/49
f 52/60/52 54/64/54 55/65/55 44/52/44
f 45/53/45 56/66/56 57/67/57 48/56/48
f 57/67/57 58/69/58 59/70/59 53/68/53
f 54/64/54 60/71/60 61/72/61 55/65/55
f 56/66/56 62/73/62 58/69/58 57/67/57
f 53/63/53 59/74/59 60/71/60 54/64/54
f 55/65/55 61/72/61 62/73/62 56/66/56
f 60/71/60 59/74/59 63/75/63
f 59/70/59 58/69/58 63/75/63
f 61/72/61 60/71/60 63/75/63
f 62/73/62 61/72/61 63/75/63
f 58/69/58 62/73/62 63/75/63
