# Blender v2.78 (sub 0) OBJ File: ''
# www.blender.org
mtllib Mesh_CavePack_Room_Tjunction_lod0.mtl
o Plane.005
v 4.800000 0.000001 -4.800000
v 8.000000 0.000001 -4.800000
v 6.124753 0.000001 -8.000000
v 4.800000 0.000001 -8.000000
v -8.000000 0.000001 -4.800000
v -4.800000 0.000001 -4.800000
v -4.800000 0.000001 -8.000000
v -6.124753 0.000001 -8.000000
v -1.600000 0.000001 -4.800000
v -1.600000 0.000001 -8.000000
v 1.600000 0.106287 -4.800000
v 1.600000 0.000001 -8.000000
v -5.863705 -0.000001 8.000000
v -3.652946 -0.000001 8.000000
v -4.800000 -0.000001 4.800000
v -8.000000 -0.000001 4.800000
v -4.800000 -0.000000 1.600000
v -8.000000 -0.000000 1.600000
v -4.800000 0.106286 -1.600000
v -8.000000 0.000000 -1.600000
v -1.217649 -0.000001 8.000000
v -1.600000 0.106285 4.800000
v -1.600000 -0.417152 1.600000
v -1.600000 -0.338178 -1.600000
v 1.217649 -0.000001 8.000000
v 1.600000 -0.000001 4.800000
v 1.600000 -0.338178 1.600000
v 1.600000 -0.338178 -1.600000
v 3.652946 -0.000001 8.000000
v 4.800000 0.106285 4.800000
v 4.800000 -0.000000 1.600000
v 4.800000 0.106286 -1.600000
v 5.863705 -0.000001 8.000000
v 8.000000 -0.000001 4.800000
v 8.000000 -0.000000 1.600000
v 8.000000 0.000000 -1.600000
v -7.104076 3.999999 8.000001
v -8.000000 3.999999 4.800001
v -7.104076 5.999999 4.800001
v -6.169436 5.999999 6.947490
v -7.104076 1.999999 8.000000
v -8.000000 1.999999 4.800001
v 7.104076 2.000001 -8.000000
v 8.000000 2.000001 -4.800000
v 8.000000 4.000001 -4.800000
v 7.104076 4.000001 -8.000000
v -8.000000 2.000001 -4.800000
v -7.104076 2.000001 -8.000000
v -7.104076 4.000001 -8.000000
v -8.000000 4.000001 -4.800000
v 8.000000 1.999999 4.800001
v 7.104076 1.999999 8.000000
v 7.104076 3.999999 8.000001
v 8.000000 3.999999 4.800001
v 7.104076 6.000001 -4.799999
v 6.169436 6.000001 -6.947488
v -6.169436 6.000001 -6.947488
v -7.104076 6.000001 -4.799999
v 6.169436 5.999999 6.947490
v 7.104076 5.999999 4.800001
v -8.000000 6.000000 1.600001
v -6.427294 8.000000 1.447574
v -5.609420 8.000000 3.790110
v -8.000000 6.000000 -1.599999
v -6.427294 8.000000 -1.447572
v -5.609420 8.000001 -3.790108
v 8.000000 6.000000 1.600001
v 5.609420 8.000000 3.790110
v 6.427294 8.000000 1.447574
v 8.000000 6.000000 -1.599999
v 6.427294 8.000000 -1.447572
v 5.609420 8.000001 -3.790108
v 1.217649 1.999998 9.169036
v 3.652946 1.999998 9.169036
v -3.652946 1.999998 9.169036
v -1.217649 1.999998 9.169036
v -4.808843 1.994130 -8.000186
v 4.713762 2.000001 -7.941881
v -1.217649 3.999999 9.418829
v 1.217649 3.999999 9.418829
v 3.652946 3.999999 9.418829
v -3.652946 3.999999 9.418829
v -4.797919 4.000001 -8.000775
v 4.800000 4.000001 -7.996706
v -1.600000 6.000001 -7.985186
v -3.051750 5.134983 -8.015113
v 3.253217 4.995805 -8.015503
v 1.600000 6.000001 -7.985186
v -1.217649 5.999999 8.905500
v 1.217649 5.999999 8.905500
v 3.652946 5.999999 8.905500
v -3.652946 5.999999 8.905500
v 1.447573 8.000001 -8.094912
v -1.447573 8.000001 -8.094912
v 1.101647 7.999999 8.094913
v 3.304942 7.999999 7.237867
v -3.304942 7.999999 7.237867
v -1.101647 7.999999 8.094913
v -4.342720 8.000001 -7.237864
v 4.342720 8.000001 -7.237864
v 5.213086 8.000001 -5.870528
v -5.213086 8.000001 -5.870528
v -5.213086 7.999999 5.870531
v 5.213086 7.999999 5.870531
v -4.488600 8.535713 -1.447572
v -4.488600 8.535713 1.447574
v -2.245676 8.775861 -1.447572
v -2.245676 8.775861 1.447574
v -0.002752 8.905170 -1.447572
v -0.002752 8.905170 1.447574
v 2.240173 8.775861 -1.447572
v 2.240173 8.775861 1.447574
v 4.483097 8.535713 -1.447572
v 4.483097 8.535713 1.447574
v -2.245676 8.775862 -3.764750
v -0.002752 8.905171 -3.764750
v 2.240173 8.775862 -3.764750
v -0.002752 8.905169 3.764753
v -2.245676 8.775860 3.764753
v 2.240173 8.775860 3.764753
v 2.240173 8.320917 6.391553
v -0.002752 8.450227 6.391553
v -2.245676 8.320917 6.391553
v -0.002752 8.450229 -6.391551
v 2.240173 8.320919 -6.391551
v -2.245676 8.320919 -6.391551
vt 1.2107 1.1502
vt 1.6467 1.1502
vt 1.3910 1.5863
vt 1.2104 1.5862
vt -0.5348 1.1503
vt -0.0986 1.1498
vt -0.0982 1.5861
vt -0.2788 1.5862
vt 0.3380 1.1491
vt 0.3381 1.5857
vt 0.7748 1.1496
vt 0.7744 1.5859
vt -0.2454 -0.5962
vt 0.0563 -0.5966
vt -0.0997 -0.1597
vt -0.5364 -0.1591
vt -0.0989 0.2770
vt -0.5357 0.2777
vt -0.0991 0.7138
vt -0.5353 0.7141
vt 0.3887 -0.5967
vt 0.3363 -0.1603
vt 0.3396 0.2788
vt 0.3393 0.7113
vt 0.7210 -0.5966
vt 0.7731 -0.1596
vt 0.7720 0.2785
vt 0.7721 0.7114
vt 1.0535 -0.5965
vt 1.2101 -0.1595
vt 1.2100 0.2775
vt 1.2103 0.7143
vt 1.3555 -0.5964
vt 1.6470 -0.1593
vt 1.6468 0.2775
vt 1.6467 0.7141
vt -0.9344 1.0044
vt -1.0314 0.5620
vt -0.7042 0.5985
vt -0.6826 0.8937
vt -1.1488 1.1089
vt -1.3437 0.6627
vt 2.3159 0.4511
vt 2.3065 0.9437
vt 1.9802 0.9126
vt 2.0613 0.4645
vt -0.1359 -1.1828
vt 0.3458 -1.2701
vt 0.3939 -1.0106
vt -0.0634 -0.8697
vt 0.6901 2.3656
vt 0.2581 2.2560
vt 0.3100 2.0339
vt 0.7498 2.0670
vt -1.3581 1.3826
vt -1.6402 0.8147
vt 0.6001 2.6563
vt 0.0428 2.4948
vt -0.1854 -1.5063
vt 0.4072 -1.6057
vt 2.6228 0.3426
vt 2.6305 0.9352
vt 1.6779 0.7800
vt 1.7496 0.4563
vt 0.4376 -0.6940
vt 0.1162 -0.5771
vt 0.3752 1.7785
vt 0.6646 1.7539
vt -0.6287 0.1119
vt -0.2871 0.2687
vt -0.3593 0.5783
vt -0.3311 -0.3160
vt -0.0569 -0.0386
vt 0.2283 -0.2156
vt 1.1323 1.6050
vt 0.6286 1.4147
vt 0.9164 1.2937
vt 1.4893 1.2414
vt 1.1852 1.0278
vt 1.3138 0.7223
vt -0.2785 2.3935
vt -0.6155 2.2227
vt -0.4329 1.9427
vt -0.1586 2.0991
vt -0.9201 1.9873
vt -1.1796 1.6964
vt -0.9028 1.5008
vt -0.6869 1.7405
vt -0.5112 1.5537
vt -0.2894 1.7343
vt -0.0532 1.8790
vt -0.7018 1.3464
vt -0.3535 1.3832
vt -0.1525 1.5475
vt 0.0497 1.6897
vt -0.5317 1.2038
vt 1.1070 -0.5211
vt 1.4990 -0.1998
vt 1.2526 -0.0228
vt 0.9838 -0.2646
vt -0.0345 1.3653
vt 0.1763 1.4649
vt -0.3314 1.0384
vt -0.1943 1.2290
vt 0.9633 -0.7487
vt 0.6485 -0.4096
vt 1.7727 -0.0397
vt 1.4469 0.2839
vt 0.6267 -1.6563
vt 0.7013 -1.3257
vt 0.7202 -0.9864
vt 2.6305 0.1327
vt 2.3139 0.1074
vt 2.0006 0.1442
vt 1.4271 0.4782
vt 0.4573 -0.3638
vt -0.4209 0.8112
vt 0.4119 1.5129
vt 0.1489 0.1247
vt -0.0741 0.4145
vt 0.3669 0.3048
vt 0.1456 0.5780
vt 0.5768 0.4826
vt 0.3512 0.7449
vt 0.7833 0.6627
vt 0.5487 0.9205
vt 0.9924 0.8495
vt 0.7432 1.1098
vt 0.5517 0.0872
vt 0.7605 0.2686
vt 0.9698 0.4486
vt 0.1811 0.9458
vt -0.0149 0.7893
vt 0.3661 1.1133
vt 0.1662 1.3204
vt -0.0011 1.1617
vt -0.1863 1.0228
vt 0.9744 0.0217
vt 1.1836 0.2021
vt 0.7666 -0.1618
vn -0.0049 1.0000 0.0049
vn -0.4166 0.8919 0.1759
vn -0.3203 0.6437 0.6950
vn 0.0147 0.8907 0.4543
vn 0.4166 0.8919 0.1759
vn 0.0132 0.9999 0.0049
vn 0.0000 0.8949 0.4462
vn 0.3259 0.6476 0.6887
vn 0.0090 0.9993 0.0353
vn -0.0083 0.9999 -0.0083
vn -0.0173 0.9992 0.0352
vn 0.0000 0.9999 -0.0166
vn 0.3496 0.7396 -0.5751
vn 0.0503 0.8481 -0.5275
vn 0.0084 0.9998 -0.0163
vn 0.4094 0.8915 -0.1939
vn 0.0415 0.9991 -0.0090
vn -0.0083 0.9999 0.0083
vn 0.0424 0.9990 0.0162
vn -0.0166 0.9999 0.0000
vn 0.0008 0.8719 -0.4896
vn 0.0124 0.9989 -0.0442
vn 0.0435 0.9981 -0.0435
vn 0.0436 0.9978 0.0498
vn 0.0008 0.8709 -0.4914
vn -0.0170 0.9989 -0.0437
vn -0.0497 0.9978 -0.0436
vn -0.0508 0.9974 0.0508
vn -0.0595 0.8490 -0.5251
vn -0.0108 0.9999 -0.0110
vn -0.0395 0.9991 -0.0132
vn -0.0352 0.9992 0.0173
vn -0.3437 0.7477 -0.5682
vn -0.3980 0.8964 -0.1950
vn 0.0166 0.9999 0.0000
vn 0.7289 -0.2064 -0.6528
vn 0.9211 -0.2737 -0.2770
vn 0.8136 -0.5228 -0.2544
vn 0.6677 -0.5353 -0.5174
vn 0.7142 0.1711 -0.6787
vn 0.9285 0.1367 -0.3454
vn -0.6198 0.0770 0.7810
vn -0.9370 0.1105 0.3314
vn -0.9211 -0.2737 0.2770
vn -0.5986 -0.2308 0.7671
vn 0.9370 0.1105 0.3314
vn 0.6246 0.0765 0.7772
vn 0.6021 -0.2335 0.7635
vn 0.9211 -0.2737 0.2770
vn -0.9285 0.1367 -0.3454
vn -0.7142 0.1711 -0.6787
vn -0.7289 -0.2064 -0.6528
vn -0.9211 -0.2737 -0.2770
vn -0.8136 -0.5228 0.2544
vn -0.6087 -0.4800 0.6317
vn 0.6060 -0.4788 0.6353
vn 0.8136 -0.5228 0.2544
vn -0.6677 -0.5353 -0.5174
vn -0.8136 -0.5228 -0.2544
vn 0.7932 -0.5933 -0.1372
vn 0.5639 -0.8212 -0.0868
vn 0.4936 -0.8528 -0.1705
vn 0.7932 -0.5933 0.1372
vn 0.5639 -0.8212 0.0868
vn 0.4936 -0.8528 0.1705
vn -0.7932 -0.5933 -0.1372
vn -0.4934 -0.8529 -0.1705
vn -0.5637 -0.8214 -0.0868
vn -0.7932 -0.5933 0.1372
vn -0.5637 -0.8214 0.0868
vn -0.4934 -0.8529 0.1705
vn 0.0000 0.3208 -0.9471
vn -0.1392 0.2582 -0.9560
vn 0.1392 0.2582 -0.9560
vn 0.0000 -0.0635 -0.9980
vn -0.2046 -0.1231 -0.9711
vn 0.2046 -0.1231 -0.9711
vn 0.0402 -0.3568 -0.9333
vn -0.0402 -0.3568 -0.9333
vn -0.2779 -0.4549 -0.8460
vn 0.2779 -0.4549 -0.8460
vn 0.1212 -0.0292 0.9922
vn -0.1185 -0.0334 0.9924
vn -0.0875 -0.6018 0.7938
vn 0.0892 -0.6004 0.7947
vn -0.0697 -0.7608 -0.6452
vn -0.2508 -0.8158 -0.5211
vn 0.2509 -0.8157 -0.5213
vn 0.0697 -0.7608 -0.6453
vn 0.2492 -0.2322 0.9402
vn 0.3038 -0.6775 0.6699
vn -0.2468 -0.2454 0.9375
vn -0.3028 -0.6772 0.6707
vn 0.0001 0.0001 1.0000
vn 0.0733 -0.2537 0.9645
vn 0.0144 -0.0023 0.9999
vn -0.0627 -0.2482 0.9667
vn -0.4805 -0.8003 0.3588
vn 0.4796 -0.7997 0.3612
vn 0.4859 -0.8097 -0.3292
vn -0.4858 -0.8097 -0.3292
vn 0.1979 -0.9795 0.0390
vn 0.1979 -0.9795 -0.0390
vn 0.1000 -0.9948 0.0176
vn 0.1000 -0.9948 -0.0176
vn 0.0000 -1.0000 -0.0000
vn -0.0999 -0.9948 0.0175
vn -0.0999 -0.9948 -0.0175
vn -0.1975 -0.9795 0.0389
vn -0.1975 -0.9795 -0.0389
vn 0.1174 -0.9892 0.0878
vn 0.0000 -0.9963 0.0854
vn -0.1173 -0.9892 0.0877
vn 0.0000 -0.9963 -0.0854
vn 0.1174 -0.9892 -0.0878
vn -0.1173 -0.9892 -0.0877
vn -0.1016 -0.9777 -0.1840
vn 0.0000 -0.9787 -0.2055
vn 0.1018 -0.9776 -0.1842
vn 0.0000 -0.9796 0.2009
vn -0.0912 -0.9818 0.1668
vn 0.0913 -0.9817 0.1669
usemtl Ground
s 1
f 1/1/1 2/2/2 3/3/3 4/4/4
f 5/5/5 6/6/6 7/7/7 8/8/8
f 6/6/6 9/9/9 10/10/10 7/7/7
f 9/9/9 11/11/11 12/12/12 10/10/10
f 11/11/11 1/1/1 4/4/4 12/12/12
f 13/13/13 14/14/14 15/15/15 16/16/16
f 16/16/16 15/15/15 17/17/17 18/18/18
f 18/18/18 17/17/17 19/19/19 20/20/20
f 20/20/20 19/19/19 6/6/6 5/5/5
f 14/14/14 21/21/21 22/22/22 15/15/15
f 15/15/15 22/22/22 23/23/23 17/17/17
f 17/17/17 23/23/23 24/24/24 19/19/19
f 19/19/19 24/24/24 9/9/9 6/6/6
f 21/21/21 25/25/25 26/26/26 22/22/22
f 22/22/22 26/26/26 27/27/27 23/23/23
f 23/23/23 27/27/27 28/28/28 24/24/24
f 24/24/24 28/28/28 11/11/11 9/9/9
f 25/25/25 29/29/29 30/30/30 26/26/26
f 26/26/26 30/30/30 31/31/31 27/27/27
f 27/27/27 31/31/31 32/32/32 28/28/28
f 28/28/28 32/32/32 1/1/1 11/11/11
f 29/29/29 33/33/33 34/34/34 30/30/30
f 30/30/30 34/34/34 35/35/35 31/31/31
f 31/31/31 35/35/35 36/36/35 32/32/32
f 32/32/32 36/36/35 2/2/2 1/1/1
usemtl Walls
f 37/37/36 38/38/37 39/39/38 40/40/39
f 41/41/40 42/42/41 38/38/37 37/37/36
f 43/43/42 44/44/43 45/45/44 46/46/45
f 47/47/46 48/48/47 49/49/48 50/50/49
f 51/51/50 52/52/51 53/53/52 54/54/53
f 13/55/13 16/56/16 42/42/41 41/41/40
f 34/57/34 33/58/33 52/52/51 51/51/50
f 5/59/5 8/60/8 48/48/47 47/47/46
f 3/61/3 2/62/2 44/44/43 43/43/42
f 46/46/45 45/45/44 55/63/54 56/64/55
f 50/50/49 49/49/48 57/65/56 58/66/57
f 54/54/53 53/53/52 59/67/58 60/68/59
f 39/39/38 61/69/60 62/70/61 63/71/62
f 61/69/60 64/72/63 65/73/64 62/70/61
f 64/72/63 58/66/57 66/74/65 65/73/64
f 67/75/66 60/68/59 68/76/67 69/77/68
f 70/78/69 67/75/66 69/77/68 71/79/70
f 55/63/54 70/78/69 71/79/70 72/80/71
f 55/63/54 45/45/44 70/78/69
f 67/75/66 54/54/53 60/68/59
f 39/39/38 38/38/37 61/69/60
f 64/72/63 50/50/49 58/66/57
f 29/81/29 25/82/25 73/83/72 74/84/73
f 21/85/21 14/86/14 75/87/74 76/88/72
f 25/82/25 21/85/21 76/88/72 73/83/72
f 73/83/72 76/88/72 79/89/75 80/90/75
f 74/84/73 73/83/72 80/90/75 81/91/76
f 76/88/72 75/87/74 82/92/77 79/89/75
f 80/90/75 79/89/75 89/93/78 90/94/79
f 81/91/76 80/90/75 90/94/79 91/95/80
f 79/89/75 82/92/77 92/96/81 89/93/78
f 85/97/82 88/98/83 93/99/84 94/100/85
f 91/95/80 90/94/79 95/101/86 96/102/87
f 89/93/78 92/96/81 97/103/88 98/104/89
f 86/105/90 85/97/82 94/100/85 99/106/91
f 88/98/83 87/107/92 100/108/93 93/99/84
f 90/94/79 89/93/78 98/104/89 95/101/86
f 7/109/7 77/110/94 48/48/47 8/60/8
f 48/48/47 77/110/94 83/111/95 49/49/48
f 49/49/48 83/111/95 86/105/90 57/65/56
f 4/112/4 3/61/3 43/43/42 78/113/96
f 46/46/45 84/114/97 78/113/96 43/43/42
f 56/64/55 87/107/92 84/114/97 46/46/45
f 29/81/29 74/84/73 52/52/51 33/58/33
f 52/52/51 74/84/73 81/91/76 53/53/52
f 53/53/52 81/91/76 91/95/80 59/67/58
f 14/86/14 13/55/13 41/41/40 75/87/74
f 37/37/36 82/92/77 75/87/74 41/41/40
f 40/40/39 92/96/81 82/92/77 37/37/36
f 56/64/55 55/63/54 72/80/71 101/115/98
f 100/108/93 87/107/92 56/64/55 101/115/98
f 102/116/99 57/65/56 86/105/90 99/106/91
f 57/65/56 102/116/99 66/74/65 58/66/57
f 40/40/39 39/39/38 63/71/62 103/117/100
f 97/103/88 92/96/81 40/40/39 103/117/100
f 104/118/101 59/67/58 91/95/80 96/102/87
f 59/67/58 104/118/101 68/76/67 60/68/59
f 62/70/61 65/73/64 105/119/102 106/120/103
f 106/120/103 105/119/102 107/121/104 108/122/105
f 108/122/105 107/121/104 109/123/106 110/124/106
f 110/124/106 109/123/106 111/125/107 112/126/108
f 112/126/108 111/125/107 113/127/109 114/128/110
f 69/77/68 114/128/110 113/127/109 71/79/70
f 109/123/106 107/121/104 115/129/111 116/130/112
f 111/125/107 109/123/106 116/130/112 117/131/113
f 108/122/105 110/124/106 118/132/114 119/133/115
f 110/124/106 112/126/108 120/134/116 118/132/114
f 118/132/114 120/134/116 121/135/117 122/136/118
f 119/133/115 118/132/114 122/136/118 123/137/119
f 117/131/113 116/130/112 124/138/120 125/139/121
f 116/130/112 115/129/111 126/140/122 124/138/120
f 94/100/85 124/138/120 126/140/122 99/106/91
f 100/108/93 125/139/121 124/138/120 93/99/84
f 94/100/85 93/99/84 124/138/120
f 97/103/88 123/137/119 122/136/118 98/104/89
f 95/101/86 122/136/118 121/135/117 96/102/87
f 95/101/86 98/104/89 122/136/118
f 62/70/61 106/120/103 63/71/62
f 65/73/64 66/74/65 105/119/102
f 72/80/71 71/79/70 113/127/109
f 69/77/68 68/76/67 114/128/110
f 113/127/109 111/125/107 117/131/113 72/80/71
f 114/128/110 68/76/67 120/134/116 112/126/108
f 104/118/101 96/102/87 121/135/117
f 101/115/98 125/139/121 100/108/93
f 102/116/99 99/106/91 126/140/122
f 103/117/100 123/137/119 97/103/88
f 106/120/103 108/122/105 119/133/115 63/71/62
f 105/119/102 66/74/65 115/129/111 107/121/104
f 102/116/99 126/140/122 115/129/111 66/74/65
f 63/71/62 119/133/115 123/137/119 103/117/100
f 104/118/101 121/135/117 120/134/116 68/76/67
f 72/80/71 117/131/113 125/139/121 101/115/98
