# Blender v2.78 (sub 0) OBJ File: ''
# www.blender.org
mtllib Mesh_CavePack_Platform4_lod1.mtl
o Cube_Cube.001
v -3.855089 -0.173855 1.835371
v -4.705707 1.579609 2.662744
v -5.054543 -0.132202 -0.053995
v -1.297282 -0.132202 3.475903
v -1.662683 1.502691 4.318202
v -2.114239 1.836448 0.531157
v -4.799367 0.447145 2.756955
v -2.759635 1.445077 -3.823640
v -1.536345 0.581485 4.413199
v -4.931083 1.252221 2.756219
v -1.309434 -0.206397 -3.998395
v -3.062585 -0.205476 -2.743189
v 1.055377 -0.132290 2.693182
v 1.134947 1.452837 3.551399
v 1.277634 0.588809 3.602222
v -3.620601 0.352812 -3.147984
v 5.425715 0.615316 0.217745
v 4.509446 -0.132202 -0.053995
v 2.493945 1.491349 3.394088
v 3.747732 0.359415 2.819625
v 3.780196 1.067640 2.851653
v -4.567523 0.533639 -2.590902
v -4.096890 -0.132202 -1.683113
v -4.448378 1.477491 -2.481267
v 5.415492 0.598592 -1.262631
v 4.283431 -0.132202 -1.683113
v 5.427954 1.446495 -1.060490
v -1.560384 0.398077 -4.446361
v 2.472230 1.227746 -4.329222
v 0.011350 1.321704 -4.638992
v 4.152883 0.569899 -3.689316
v 3.288780 -0.132202 -3.045722
v -4.676388 -0.132202 0.989387
v -5.807598 0.201271 0.107917
v -3.708704 1.630949 0.949182
v -1.474647 0.219641 4.105790
v -2.709998 -0.146783 2.837558
v -5.399439 0.250015 1.485211
v -5.885970 0.993004 0.309902
v 5.568959 1.206515 -0.781139
v -1.543035 1.015491 4.270460
v -5.541135 0.558249 1.490743
v -4.689017 1.002831 2.678452
v -6.066916 1.205646 0.255459
v -4.817074 -0.183850 -0.869926
v -1.587780 1.251821 4.435416
v -0.078354 -0.188424 3.227544
v 4.549522 -0.132202 -0.868554
v 1.232675 0.173616 3.318408
v -5.741869 0.397094 -0.848163
v 1.332278 1.194831 3.712529
v 3.232393 -0.122887 2.536719
v -5.966314 1.431316 -0.130690
v 0.003748 1.242178 4.114410
v 5.331410 0.206766 -0.497486
v 4.123298 -0.132202 1.477139
v 4.918051 1.463477 1.743235
v 5.422934 1.019196 -0.351352
v 5.514034 1.196612 0.339070
v 2.500934 1.218073 3.600798
v 5.145066 1.168857 -2.390441
v -4.610610 1.008527 -2.425836
v -4.655118 1.215598 -2.540734
v -3.745671 -0.134467 -2.224597
v 3.939189 -0.132202 -2.395034
v 4.078086 1.502934 -3.437078
v 4.746080 0.205510 -2.296830
v 5.124220 0.979155 -1.959092
v -1.293669 1.753020 -2.222110
v 1.627389 1.759359 -3.447619
v 2.402072 1.706792 -1.741586
v -2.378690 -0.262028 -3.521054
v -2.745599 1.012330 -3.783127
v -1.495381 1.018016 -4.378606
v -2.795526 0.470126 -3.920081
v -3.646178 1.212659 -3.258154
v -1.566079 1.218930 -4.515812
v 1.360535 1.035560 -4.369500
v 1.042210 -0.169455 -3.969975
v -0.182351 1.016485 -4.637165
v -1.143564 1.445753 -4.503288
v 4.061840 0.934845 -3.604689
v 4.193052 1.243715 -3.544822
v 2.248614 -0.132202 -3.631568
v 2.765635 1.452390 -4.312679
v 4.013433 0.373897 -3.610220
v 1.235190 0.176298 -4.490035
v -2.861546 1.240141 -3.970948
v -5.814646 1.185216 -0.905846
v -4.430041 0.169801 -2.572139
v 2.391893 1.007475 3.420530
v 1.898996 1.712816 0.632944
v 4.967110 0.980367 1.755854
v 4.777782 0.238648 1.723088
v 5.157200 1.187900 1.867090
v 0.690379 0.958468 3.765931
v 2.462378 0.334085 3.373721
v -5.484901 1.021341 1.483534
v -0.026437 0.363345 4.073381
v -3.166540 0.134197 3.522147
v -3.385437 1.247492 3.618985
v -5.692168 1.190136 1.627368
vt 0.5562 1.0257
vt 0.2370 1.0601
vt 0.2531 0.8171
vt 0.8527 0.9328
vt 1.0820 1.0370
vt 0.5858 1.0558
vt 0.4419 1.2070
vt 0.5574 1.1150
vt 0.9567 1.1138
vt 1.8455 0.6129
vt 1.3572 0.8291
vt 0.9341 0.7502
vt -1.0564 0.8750
vt -0.5600 0.9380
vt -0.0662 1.0929
vt -0.9411 0.5840
vt -0.5592 0.4555
vt -0.5309 0.7078
vt -0.3787 0.6372
vt -0.4092 0.3804
vt -0.1827 0.3887
vt 0.7293 1.1387
vt 0.4045 1.1282
vt -1.4707 0.4330
vt -1.9477 0.4898
vt -1.8606 0.2368
vt 2.3683 0.4781
vt 2.4035 0.6098
vt -1.6837 0.7509
vt -1.9819 0.5919
vt -1.5416 0.7005
vt 2.1420 0.8985
vt 1.6401 0.9538
vt 2.3993 0.7473
vt 0.1848 0.4913
vt 1.6428 1.0409
vt 1.2044 1.0954
vt 2.4778 0.8306
vt 2.4421 0.9300
vt 1.9378 0.9777
vt -1.0628 0.9998
vt -0.0634 0.9956
vt 0.4227 0.9304
vt -1.3138 0.3605
vt -1.3735 0.5351
vt 2.4146 0.5113
vt 2.8709 0.6288
vt -0.6894 0.6033
vt -1.0932 0.7345
vt -1.0737 0.5616
vt 2.8037 0.3726
vt 2.8617 0.7393
vt 1.5942 0.7105
vt 1.6411 0.4852
vt 2.0217 0.4267
vt 0.6353 0.8017
vt -1.1425 0.9140
vt -1.1264 0.8237
vt -0.7367 0.9107
vt -1.5211 0.6256
vt 0.8062 1.2293
vt 1.6438 1.1456
vt 0.8742 0.4650
vt 1.2920 0.3774
vt -0.3995 0.9763
vt -0.3652 0.9076
vt 1.1991 0.7785
vt 1.6137 0.8517
vt -1.6210 0.6233
vt -1.4317 0.7509
vt -1.9271 0.6290
vt 2.0923 1.0220
vt -0.3780 0.7648
vt -1.0383 0.7775
vt 0.9409 0.8840
vt 1.3363 0.5262
vt 2.9034 0.6359
vt 2.4463 0.7448
vt 2.8741 0.5521
vt -1.2448 0.1147
vt 0.5300 0.7897
vt -1.4272 0.1881
vt -1.0448 0.2623
vt 2.3281 0.2507
vt 2.6953 0.0530
vt 1.8117 0.3297
vt -1.8302 0.3377
vt 0.9528 1.0148
vt -0.0505 0.7645
vt 1.3859 0.9937
vt 1.3892 1.0922
vt -0.4418 1.0647
vt 1.4106 1.2111
vt -1.4983 0.8932
vt -0.6947 0.3004
vt 0.7744 0.5510
vt 1.0678 0.5353
vt 2.9551 0.7243
vt 0.4912 0.5257
vt -1.7940 0.0530
vt -0.0588 0.4988
vt 0.4848 0.5306
vt -1.6669 0.0371
vt -0.0991 1.2069
vt 2.3939 0.3156
vt -0.6136 0.6532
vt -1.1650 0.3752
vt -0.5973 -0.4823
vt 1.4711 0.6026
vt 2.0628 0.6712
vt 1.8466 1.1025
vt -0.1149 0.5287
vt 0.2780 -0.7156
vt 0.6356 -0.8906
vt 0.8869 -0.1194
vt 0.4312 1.2059
vt 0.3244 1.8051
vt -0.3252 1.7005
vt 1.4073 1.0134
vt 1.4720 1.3631
vt 0.8436 1.7215
vt -1.0330 1.2667
vt 1.5268 -0.8257
vt 2.0333 -0.1384
vn -0.8918 -0.4429 0.0918
vn -0.8715 0.2791 -0.4031
vn -0.8297 -0.4570 -0.3204
vn 0.9602 -0.1504 -0.2351
vn 0.8483 -0.4099 -0.3352
vn 0.9577 -0.2874 0.0138
vn -0.7063 0.6982 -0.1169
vn -0.9937 -0.0638 0.0914
vn -0.9058 0.0067 0.4236
vn -0.3611 -0.6416 0.6767
vn -0.6431 -0.3754 0.6673
vn -0.6702 -0.6736 0.3115
vn 0.3052 0.0013 0.9523
vn 0.5374 0.1601 0.8280
vn 0.8415 0.0006 0.5403
vn 0.2221 -0.4982 0.8381
vn 0.2902 -0.7950 0.5327
vn 0.5057 -0.4343 0.7454
vn -0.5349 -0.6419 -0.5494
vn -0.3239 -0.8773 -0.3541
vn -0.3858 -0.8949 -0.2244
vn 0.9923 -0.0883 -0.0861
vn 0.9830 0.0083 0.1831
vn -0.2614 -0.2879 -0.9213
vn -0.0200 -0.0847 -0.9962
vn 0.1619 -0.4292 -0.8885
vn -0.0506 -0.7772 0.6272
vn -0.1062 -0.1662 0.9803
vn -0.1032 0.7353 -0.6697
vn 0.0567 0.4993 -0.8645
vn -0.3150 -0.0263 -0.9487
vn 0.1861 -0.4470 -0.8749
vn 0.5831 0.0956 -0.8067
vn 0.1954 -0.3363 -0.9212
vn -0.4871 -0.7972 -0.3567
vn 0.6815 0.1489 -0.7165
vn 0.8482 -0.0781 -0.5238
vn -0.0903 -0.0278 0.9955
vn -0.1069 0.7917 0.6014
vn -0.4629 -0.0886 0.8820
vn 0.1884 0.8431 0.5037
vn 0.7215 -0.5390 0.4346
vn 0.9739 -0.0865 0.2098
vn 0.1618 -0.7662 0.6218
vn 0.2243 -0.2913 0.9300
vn -0.5440 -0.3990 -0.7381
vn -0.5174 -0.2704 -0.8119
vn -0.5481 -0.2192 -0.8072
vn 0.2392 -0.3908 0.8888
vn 0.4401 -0.5853 -0.6810
vn 0.3054 -0.8639 -0.4006
vn 0.2207 -0.8198 -0.5283
vn 0.7718 -0.6359 0.0011
vn -0.2713 0.8562 -0.4396
vn -0.5406 -0.0108 -0.8412
vn -0.5997 -0.0180 -0.8000
vn -0.2859 -0.2634 -0.9213
vn 0.6327 0.7648 -0.1211
vn 0.3759 0.8334 -0.4051
vn -0.3460 -0.9171 0.1979
vn -0.2831 -0.9185 0.2759
vn -0.7141 0.0858 -0.6947
vn -0.7003 -0.2302 -0.6757
vn 0.6675 -0.6590 -0.3466
vn 0.6119 -0.0445 -0.7896
vn 0.2635 -0.1945 0.9448
vn 0.1764 0.0669 0.9820
vn 0.2315 0.0613 0.9709
vn 0.3280 0.4631 -0.8234
vn -0.6858 -0.1197 -0.7179
vn 0.2605 -0.3459 0.9013
vn -0.9172 -0.0884 0.3883
vn 0.3821 -0.8762 -0.2937
vn -0.1108 -0.2108 0.9712
vn 0.1332 -0.8694 0.4758
vn -0.8055 -0.5915 0.0361
vn -0.1606 -0.6778 -0.7175
vn -0.4073 -0.6608 -0.6304
vn -0.0108 -0.8859 0.4637
vn 0.1522 -0.8556 0.4946
vn -0.1993 -0.9214 0.3334
vn -0.8433 -0.3569 0.4017
vn 0.6784 -0.6072 0.4135
vn -0.6113 -0.3142 0.7263
vn -0.7196 -0.0141 0.6942
vn -0.3817 0.8446 -0.3755
vn -0.3165 0.8839 0.3441
vn 0.1026 0.8879 0.4484
vn -0.4107 -0.7613 -0.5018
vn 0.4310 -0.8979 -0.0891
vn 0.4326 -0.8868 -0.1626
vn 0.4267 -0.9002 0.0869
vn 0.0803 -0.7658 -0.6380
vn 0.4294 -0.8596 0.2768
vn -0.4434 -0.8961 -0.0198
vn 0.3801 0.8855 0.2672
vn -0.0743 0.9972 0.0084
vn 0.0618 0.9980 -0.0123
vn -0.0433 0.9987 0.0255
vn 0.0428 0.9984 0.0371
vn -0.0417 0.9969 -0.0663
vn 0.0578 0.9872 -0.1481
usemtl Wall
s 1
f 39/1/1 89/2/2 50/3/3
f 25/4/4 68/5/5 58/6/6
f 53/7/7 44/8/8 102/9/9
f 100/10/10 7/11/11 38/12/12
f 60/13/13 21/14/14 95/15/15
f 97/16/16 52/17/17 20/18/18
f 90/19/19 64/20/20 23/21/21 50/3/3
f 58/6/6 40/22/22 59/23/23
f 28/24/24 80/25/25 87/26/26
f 36/27/27 9/28/28 100/10/10
f 53/7/7 89/2/2 44/8/8
f 81/29/29 30/30/30 77/31/31
f 29/32/32 82/33/33 78/34/34
f 45/35/35 50/3/3 23/21/21
f 68/5/5 83/36/36 61/37/37
f 46/38/38 5/39/39 101/40/40
f 95/15/15 19/41/41 60/13/13
f 58/6/6 93/42/42 17/43/43
f 49/44/44 97/16/16 15/45/45
f 78/34/34 87/46/26 80/47/25
f 16/48/46 73/49/47 75/50/48
f 36/27/27 99/51/49 9/28/28
f 30/52/30 29/32/32 80/47/25
f 86/53/50 32/54/51 84/55/52
f 55/56/53 25/4/4 17/43/43
f 93/42/42 21/14/14 20/18/18
f 8/57/54 88/58/55 76/59/56
f 74/60/57 80/25/25 28/24/24
f 27/61/58 61/37/37 66/62/59
f 38/12/12 33/63/60 1/64/61
f 89/2/2 63/65/62 62/66/63
f 67/67/64 31/68/65 25/4/4
f 96/69/66 51/70/67 54/71/68
f 85/72/69 66/62/59 83/36/36
f 31/68/65 82/33/33 68/5/5
f 50/3/3 22/73/70 90/19/19
f 100/10/10 9/28/28 7/11/11
f 93/42/42 95/15/15 21/14/14
f 29/32/32 83/36/36 82/33/33
f 68/5/5 82/33/33 83/36/36
f 60/13/13 91/74/71 21/14/14
f 38/12/12 7/11/11 42/75/72
f 77/31/31 74/60/57 73/49/47 88/58/55
f 86/53/50 67/67/64 65/76/73 32/54/51
f 54/77/68 46/38/38 41/78/74 96/79/66
f 52/17/17 97/16/16 49/44/44 13/80/75
f 39/1/1 34/81/76 38/12/12 42/75/72
f 28/24/24 11/82/77 72/83/78 75/50/48
f 99/51/49 36/27/27 4/84/79 47/85/80
f 77/31/31 88/58/55 8/57/54 81/29/29
f 37/86/81 100/10/10 38/12/12 1/64/61
f 99/87/49 49/44/44 15/45/45
f 42/75/72 98/88/82 39/1/1
f 94/89/83 93/42/42 20/18/18
f 98/88/82 43/90/84 10/91/85 102/9/9
f 91/74/71 96/69/66 15/45/45 97/16/16
f 76/59/56 63/65/62 24/92/86 8/57/54
f 86/53/50 87/46/26 78/34/34 31/68/65
f 2/93/87 10/91/85 101/40/40 5/39/39
f 19/41/41 14/94/88 51/70/67 60/13/13
f 63/65/62 89/2/2 53/7/7 24/92/86
f 75/50/48 72/83/78 12/95/89 16/48/46
f 67/67/64 86/53/50 31/68/65
f 43/90/84 41/78/74 101/40/40 10/91/85
f 94/89/83 55/56/53 17/43/43 93/42/42
f 91/74/71 60/13/13 51/70/67 96/69/66
f 90/19/19 22/73/70 16/48/46
f 67/67/64 55/56/53 48/96/90 26/97/91
f 54/77/68 14/98/88 5/39/39 46/38/38
f 73/49/47 76/59/56 88/58/55
f 76/59/56 73/49/47 62/66/63 63/65/62
f 18/99/92 48/96/90 55/56/53
f 46/38/38 101/40/40 41/78/74
f 29/32/32 30/52/30 85/72/69
f 66/62/59 61/37/37 83/36/36
f 44/8/8 39/1/1 98/88/82 102/9/9
f 31/68/65 78/34/34 82/33/33
f 37/86/81 4/84/79 36/27/27 100/10/10
f 93/42/42 58/6/6 59/23/23 95/15/15
f 20/18/18 21/14/14 91/74/71 97/16/16
f 55/56/53 67/67/64 25/4/4
f 27/61/58 40/22/22 61/37/37
f 87/26/26 79/100/93 11/82/77 28/24/24
f 20/18/18 52/17/17 56/101/94 94/89/83
f 29/32/32 85/72/69 83/36/36
f 62/66/63 22/73/70 50/3/3 89/2/2
f 68/5/5 25/4/4 31/68/65
f 33/63/60 38/12/12 34/81/76 3/102/95
f 77/31/31 30/30/30 80/25/25
f 34/81/76 39/1/1 50/3/3
f 17/43/43 25/4/4 58/6/6
f 49/44/44 99/87/49 47/103/80 13/80/75
f 96/69/66 99/87/49 15/45/45
f 27/61/58 59/23/23 40/22/22
f 80/47/25 29/32/32 78/34/34
f 26/97/91 65/76/73 67/67/64
f 16/48/46 22/73/70 62/66/63 73/49/47
f 14/94/88 54/71/68 51/70/67
f 16/48/46 12/95/89 64/20/20 90/19/19
f 57/104/96 19/41/41 95/15/15
f 61/37/37 40/22/22 58/6/6 68/5/5
f 84/55/52 79/105/93 87/46/26 86/53/50
f 42/75/72 7/11/11 43/90/84 98/88/82
f 99/51/49 96/79/66 41/78/74 9/28/28
f 39/1/1 44/8/8 89/2/2
f 43/90/84 7/11/11 9/28/28 41/78/74
f 102/9/9 10/91/85 2/93/87 53/7/7
f 50/3/3 45/35/35 3/102/95 34/81/76
f 75/50/48 73/49/47 74/60/57 28/24/24
f 57/104/96 95/15/15 59/23/23 27/61/58
f 56/101/94 18/99/92 55/56/53 94/89/83
f 74/60/57 77/31/31 80/25/25
usemtl Ground
f 35/106/97 2/107/87 5/108/39
f 71/109/98 66/110/59 85/111/69
f 6/112/99 35/106/97 5/108/39
f 14/113/88 19/114/41 92/115/100
f 69/116/101 8/117/54 24/118/86
f 70/119/102 30/120/30 81/121/29
f 70/119/102 85/111/69 30/120/30
f 35/106/97 24/118/86 53/122/7
f 92/115/100 57/123/96 27/124/58
f 70/119/102 81/121/29 69/116/101
f 69/116/101 81/121/29 8/117/54
f 71/109/98 27/124/58 66/110/59
f 92/115/100 71/109/98 69/116/101
f 69/116/101 71/109/98 70/119/102
f 71/109/98 85/111/69 70/119/102
f 92/115/100 69/116/101 6/112/99
f 92/115/100 27/124/58 71/109/98
f 92/115/100 19/114/41 57/123/96
f 92/115/100 6/112/99 5/108/39 14/113/88
f 24/118/86 35/106/97 6/112/99 69/116/101
f 53/122/7 2/107/87 35/106/97
