# Blender v2.78 (sub 0) OBJ File: 'Mesh_Dungeon_Small_RoomSquare_lod0.blend'
# www.blender.org
mtllib Mesh_CavePack_Large_RoomSquare_lod1.mtl
o Plane.001
v -12.750183 0.077149 -3.243028
v 4.424633 -0.160469 -15.936776
v -12.352697 0.172256 -15.882289
v 14.252101 -0.037238 -15.861650
v 12.486893 -0.084221 15.896658
v -3.716042 0.245580 7.849539
v 0.954420 0.892872 -0.945609
v 16.421879 0.267846 10.470989
v 7.694164 0.001134 6.390027
v 14.052993 -0.044196 -0.135868
v 15.985585 0.040102 -3.200606
v 15.986152 0.000002 -12.800000
v -15.997030 0.020018 3.201513
v -16.000000 -0.000002 12.800000
v 15.461432 0.825825 4.381125
v -13.923574 -0.070085 15.740835
v 7.430077 3.911014 18.338072
v -7.114824 3.970376 18.348164
v 9.647050 4.004959 -18.405840
v -9.475816 3.911020 -18.338072
v -7.181710 7.911017 18.837658
v 7.430078 7.911016 18.837658
v 3.513426 7.255510 -16.342827
v -9.681060 7.062253 -16.431641
v 9.724185 7.911019 -18.837654
v -4.115229 15.432195 -14.306540
v 7.925342 13.397534 -15.125661
v -7.045418 11.734730 17.847456
v 7.430077 11.911014 17.811001
v 2.816699 15.371497 -14.551612
v -0.929777 16.016830 16.200066
v 6.734068 15.911015 14.475736
v -9.864359 16.059959 12.177550
v -14.106628 4.366153 -16.457401
v -12.214688 11.911018 -13.894976
v 14.332336 3.911014 16.000000
v 13.786801 7.721405 14.543546
v 12.227688 11.057693 12.787807
v -15.154837 4.101058 15.901522
v -13.794764 8.406318 15.902133
v -10.301988 15.911018 -11.741055
v 10.550357 15.911015 11.741061
v -10.862097 16.067921 3.223518
v -12.730404 15.911016 -2.895144
v -9.480891 16.899698 -2.902895
v -4.367168 16.161682 -2.895144
v -0.955819 17.711275 4.358287
v 2.866737 16.388998 -3.579126
v 9.090379 16.982443 -2.895144
v 8.039530 15.546568 2.895150
v -10.851922 15.819235 -8.690462
v -0.498977 17.783382 7.749572
v 3.553679 16.026861 7.529505
v 1.819833 16.884792 12.420889
v 1.056219 16.892494 -13.066663
v 10.062404 15.887333 -6.743093
v 10.292175 14.475141 7.580219
v 9.560925 15.679697 -11.744605
v -11.094656 15.911016 7.580219
v -15.986622 3.993790 12.796298
v -14.953841 5.853900 15.207864
v -15.149079 2.092509 0.003509
v -16.000000 4.000000 3.200001
v -15.218269 5.437864 1.039312
v -16.000000 5.999999 9.600001
v -14.512222 8.100101 8.485337
v -13.609421 7.999998 11.790110
v -16.000000 5.999999 6.400001
v -13.609421 8.000000 4.209892
v 15.085974 3.567676 -16.168375
v 15.993863 4.003742 -12.802123
v 14.388129 5.680157 -15.135392
v 15.189896 3.053450 0.203176
v 15.986152 4.000000 -3.199999
v 14.160084 6.298918 -1.409776
v 16.023788 6.028978 -6.406670
v 15.986152 6.000001 -9.599999
v 12.794826 10.224781 -9.069878
v 11.398816 10.059993 -13.972871
v 13.980828 11.183271 9.312002
v 15.592489 8.322544 9.419226
v 16.434242 4.061575 10.856256
v 13.308342 10.482322 0.320190
v 11.598879 14.143132 -0.846175
v -12.596293 12.962609 3.598320
v -13.408581 11.070148 9.272098
v -12.263068 11.664491 11.328055
v -14.676653 11.880954 -1.298053
v -13.563401 12.658739 -8.558949
v -13.739274 10.291740 -7.064866
v -13.619196 3.380022 -9.592070
v -14.944766 3.994901 -5.346598
vt -0.0891 1.5019
vt -0.9277 0.7461
vt -0.3484 -0.0157
vt 0.4871 -1.0190
vt 0.6705 -0.0732
vt 1.8800 0.2336
vt 1.1119 0.5187
vt 1.1943 1.1576
vt 0.4440 0.6058
vt 1.1495 1.4162
vt 0.6926 1.9221
vt 0.2102 1.7928
vt 0.2252 -0.9496
vt -0.2316 -0.4442
vt 1.4891 0.9928
vt 1.8413 0.6897
vt 2.2840 0.9521
vt 2.7192 0.7135
vt 2.0039 2.2194
vt 1.2437 2.1714
vt 0.1734 -2.0287
vt -0.3200 -1.3709
vt -1.6964 -0.0288
vt 0.9791 2.6587
vt -0.8730 -0.2950
vt -1.1609 -0.4135
vt 2.0361 0.8219
vt -0.1408 -1.0787
vt 0.0031 -0.8297
vt 1.7933 0.5052
vt 1.4088 0.7740
vt 1.5001 0.4806
vt 0.0363 0.1947
vt -0.0900 -0.1218
vt 0.2394 0.0108
vt 0.4243 -0.6111
vt 1.0708 0.9966
vt 1.0971 1.1674
vt 0.9149 1.4434
vt -0.1177 -0.3789
vt -0.3841 -0.0119
vt 0.2670 0.9467
vt 0.6171 0.6557
vt 0.4379 1.2277
vt -0.4404 0.2335
vt 0.6823 1.3431
vt 1.0808 0.1256
vt 1.3768 0.2673
vt 0.8722 0.3248
vt 0.7050 -0.4978
vt 0.7030 -1.6964
vt 0.4371 -1.4678
vt 0.3661 -1.6833
vt 2.1190 -0.9249
vt 1.7397 -1.1170
vt 2.1047 -1.3609
vt 1.3360 -1.2403
vt 1.0046 -1.1203
vt 1.0201 -1.4165
vt 1.6504 -0.7991
vt 0.4834 2.4761
vt 0.7305 2.2022
vt 0.8213 2.4145
vt -0.9307 1.6526
vt -0.6168 1.9119
vt -0.9776 2.1760
vt 0.1355 2.1993
vt 0.2914 1.7234
vt -0.1964 2.0264
vt -0.5294 1.5522
vt 0.6946 1.7795
vt -0.9432 0.6292
vt -1.3024 0.6016
vt -0.3121 1.1515
vt -0.0394 1.0288
vt -0.6909 0.5310
vt 0.0129 0.6248
vt -0.3165 0.4665
vt 0.3729 -1.2712
vt 0.7021 -1.2183
vt 1.3299 -0.8588
vt 1.1251 -0.5710
vt 0.6076 -0.9087
vt 0.8098 -0.9032
vt 0.9203 -0.2830
vt 1.2768 -0.0350
vt 1.4342 -0.3133
vt 2.3952 0.0383
vt 2.3034 0.5817
vt 1.7835 -0.0230
vt 2.1713 -0.3984
vt 2.4809 -0.8003
vt 1.6488 0.1746
vt -1.2550 1.8576
vt -1.4019 1.3367
vt 1.4640 1.6262
vt 1.0792 1.9092
vt -0.6440 -0.1660
vt -1.0335 0.2173
vt -1.3326 0.1448
vt -0.7457 0.2558
vt 0.4595 0.1951
vt 0.5998 -2.1511
vt 0.7329 2.9367
vt -1.6980 0.6538
vn 0.0051 0.8805 0.4740
vn 0.4869 0.7514 0.4453
vn 0.4356 0.8939 0.1057
vn 0.4050 0.7093 -0.5770
vn -0.0116 0.9993 0.0354
vn -0.3655 0.7316 -0.5755
vn 0.0018 0.9996 0.0296
vn -0.4272 0.8976 -0.1089
vn 0.0064 1.0000 -0.0001
vn -0.4657 0.8676 -0.1742
vn -0.4612 0.8694 0.1775
vn -0.4500 0.7043 0.5491
vn 0.4594 0.8636 -0.2077
vn 0.4430 0.8823 0.1593
vn -0.7468 0.6588 0.0908
vn -0.7332 0.6737 -0.0927
vn 0.1438 -0.0107 0.9896
vn -0.1234 0.1604 0.9793
vn 0.1190 0.2708 -0.9553
vn -0.2717 -0.1707 -0.9471
vn -0.1561 0.2279 -0.9611
vn 0.1456 -0.4082 0.9012
vn 0.1843 -0.0912 -0.9786
vn 0.2461 -0.4608 -0.8527
vn 0.6569 -0.4439 0.6094
vn 0.1135 -0.5981 0.7934
vn 0.4308 -0.8226 0.3710
vn -0.2527 -0.9657 0.0591
vn -0.0898 -0.9892 -0.1157
vn -0.1026 -0.9926 -0.0654
vn 0.4938 -0.8033 -0.3330
vn -0.0244 -0.9334 0.3581
vn -0.0953 -0.5633 0.8207
vn -0.3232 -0.5711 0.7546
vn 0.0301 -0.7901 -0.6123
vn -0.2798 -0.7823 -0.5566
vn -0.3128 -0.9494 -0.0284
vn -0.0289 -0.9995 0.0130
vn -0.5744 -0.8134 0.0917
vn -0.5548 -0.8084 -0.1964
vn -0.5484 -0.7805 0.3003
vn 0.1013 -0.9902 0.0957
vn 0.4490 -0.8809 0.1499
vn -0.0386 -0.9870 0.1561
vn 0.6219 -0.7788 -0.0813
vn 0.9486 -0.1102 -0.2967
vn 0.9040 -0.3460 -0.2512
vn 0.7237 0.0014 -0.6901
vn 0.9434 0.1899 0.2720
vn 0.9629 -0.1481 0.2257
vn 0.7857 -0.6046 0.1308
vn 0.8681 -0.4943 -0.0446
vn 0.7984 -0.5895 -0.1225
vn 0.9788 -0.1918 0.0724
vn -0.9134 -0.2495 0.3215
vn -0.7539 -0.4292 0.4975
vn -0.7366 -0.0458 0.6747
vn -0.9987 -0.0170 -0.0473
vn -0.9087 -0.3041 -0.2859
vn -0.7964 -0.5832 0.1600
vn -0.8426 -0.5188 0.1446
vn -0.7686 -0.6173 -0.1678
vn -0.9332 -0.3573 -0.0390
vn -0.7453 -0.5325 0.4013
vn -0.9277 -0.3607 -0.0964
vn -0.9812 -0.0481 -0.1870
vn -0.9334 -0.3414 0.1105
vn -0.7944 -0.6073 -0.0129
vn -0.8227 -0.5596 -0.0996
vn -0.2525 -0.9623 -0.1010
vn -0.4882 -0.8727 0.0081
vn 0.7558 -0.3521 -0.5521
vn 0.8675 -0.4831 -0.1185
vn 0.9182 -0.3960 0.0070
vn 0.9138 -0.3878 -0.1207
vn 0.8921 -0.4238 -0.1569
vn 0.9091 -0.3807 -0.1689
vn 0.6748 -0.7355 -0.0608
vn 0.6856 -0.7278 0.0181
vn 0.9602 -0.2763 -0.0419
vn 0.9735 0.2168 0.0723
vn 0.8120 0.0101 0.5835
vn 0.9831 -0.1463 0.1104
vn 0.9786 0.1323 0.1578
vn 0.9197 -0.3673 0.1387
vn 0.0991 -0.3684 0.9244
vn -0.1833 -0.3414 0.9218
vn -0.3381 -0.4184 -0.8430
vn -0.7288 -0.3338 -0.5979
vn -0.6986 0.0054 -0.7155
vn -0.7375 -0.5029 -0.4507
vn -0.0894 -0.9955 0.0297
usemtl Ground.001
s 1
f 2/1/1 3/2/2 1/3/3
f 16/4/4 6/5/5 1/3/3
f 5/6/6 9/7/7 6/5/5
f 10/8/8 2/1/1 7/9/9
f 2/1/1 10/8/8 11/10/10
f 11/10/10 12/11/11 2/1/1
f 2/1/1 12/11/11 4/12/12
f 14/13/13 1/3/3 13/14/14
f 10/8/8 9/7/7 15/15/15
f 8/16/16 15/15/15 9/7/7
f 1/3/3 14/13/13 16/4/4
f 16/4/4 5/6/6 6/5/5
f 6/5/5 7/9/9 1/3/3
f 1/3/3 7/9/9 2/1/1
f 6/5/5 9/7/7 7/9/9
f 5/6/6 8/16/16 9/7/7
f 7/9/9 9/7/7 10/8/8
usemtl Walls.001
f 20/17/17 3/18/2 2/19/1 19/20/18
f 16/21/4 18/22/19 5/23/6
f 4/24/12 19/20/18 2/19/1
f 18/22/19 22/25/20 17/26/21
f 19/20/18 24/27/22 20/17/17
f 21/28/23 28/29/24 22/25/20
f 35/30/25 26/31/26 41/32/27
f 53/33/28 54/34/29 52/35/30
f 52/35/30 54/34/29 33/36/31
f 55/37/32 30/38/33 27/39/34
f 26/31/26 30/38/33 55/37/32
f 31/40/35 54/34/29 32/41/36
f 49/42/37 48/43/38 56/44/39
f 42/45/40 32/41/36 54/34/29
f 58/46/41 55/37/32 27/39/34
f 41/32/27 26/31/26 55/37/32
f 45/47/42 51/48/43 46/49/44
f 52/35/30 33/36/31 59/50/45
f 60/51/46 61/52/47 39/53/48
f 62/54/49 63/55/50 13/56/14
f 68/57/51 66/58/52 65/59/53
f 61/52/47 60/51/46 65/59/53
f 68/57/51 63/55/50 64/60/54
f 71/61/55 72/62/56 70/63/57
f 73/64/58 74/65/59 11/66/10
f 77/67/60 78/68/61 72/62/56
f 76/69/62 78/68/61 77/67/60
f 76/69/62 75/70/63 78/68/61
f 72/62/56 71/61/55 77/67/60
f 78/68/61 56/44/39 58/46/41
f 72/62/56 78/68/61 79/71/64
f 81/72/65 73/64/58 82/73/66
f 73/64/58 81/72/65 75/70/63
f 81/72/65 83/74/67 75/70/63
f 56/44/39 78/68/61 83/74/67
f 83/74/67 84/75/68 56/44/39
f 49/42/37 56/44/39 84/75/68
f 83/74/67 80/76/69 84/75/68
f 50/77/70 84/75/68 57/78/71
f 84/75/68 80/76/69 57/78/71
f 39/53/48 61/52/47 40/79/72
f 61/52/47 67/80/73 40/79/72
f 69/81/74 85/82/75 66/58/52
f 40/79/72 87/83/76 33/36/31
f 86/84/77 85/82/75 59/50/45
f 59/50/45 43/85/78 45/47/42
f 43/85/78 85/82/75 44/86/79
f 85/82/75 88/87/80 44/86/79
f 91/88/81 34/89/82 90/90/83
f 92/91/84 91/88/81 90/90/83
f 62/54/49 1/92/3 92/91/84
f 88/87/80 64/60/54 90/90/83
f 92/91/84 90/90/83 64/60/54
f 45/47/42 44/86/79 51/48/43
f 51/48/43 44/86/79 89/93/85
f 88/87/80 90/90/83 44/86/79
f 90/90/83 89/93/85 44/86/79
f 73/64/58 10/94/8 15/95/15
f 5/23/6 18/22/19 17/26/21
f 26/31/26 24/27/22 23/96/86 27/39/34
f 18/22/19 21/28/23 22/25/20
f 19/20/18 23/96/86 24/27/22
f 19/20/18 25/97/87 23/96/86
f 23/96/86 25/97/87 27/39/34
f 31/40/35 32/41/36 29/98/88 28/29/24
f 22/25/20 28/29/24 29/98/88
f 26/31/26 27/39/34 30/38/33
f 26/31/26 35/30/25 34/89/82 24/27/22
f 28/29/24 33/36/31 31/40/35
f 20/17/17 34/89/82 3/18/2
f 34/89/82 20/17/17 24/27/22
f 37/99/89 36/100/90 17/26/21 22/25/20
f 17/26/21 36/100/90 5/23/6
f 29/98/88 38/101/91 37/99/89 22/25/20
f 18/22/19 39/53/48 40/79/72 21/28/23
f 16/21/4 39/53/48 18/22/19
f 32/41/36 42/45/40 38/101/91 29/98/88
f 28/29/24 21/28/23 40/79/72
f 33/36/31 28/29/24 40/79/72
f 52/35/30 47/102/92 48/43/38 53/33/28
f 43/85/78 44/86/79 45/47/42
f 45/47/42 46/49/44 47/102/92
f 47/102/92 46/49/44 48/43/38
f 48/43/38 49/42/37 50/77/70
f 46/49/44 51/48/43 48/43/38
f 53/33/28 48/43/38 50/77/70 57/78/71
f 48/43/38 51/48/43 55/37/32
f 33/36/31 54/34/29 31/40/35
f 52/35/30 59/50/45 45/47/42 47/102/92
f 57/78/71 42/45/40 54/34/29 53/33/28
f 41/32/27 55/37/32 51/48/43
f 58/46/41 56/44/39 48/43/38 55/37/32
f 39/53/48 16/21/4 14/103/13 60/51/46
f 67/80/73 61/52/47 65/59/53 66/58/52
f 13/56/14 1/92/3 62/54/49
f 63/55/50 62/54/49 64/60/54
f 69/81/74 66/58/52 68/57/51 64/60/54
f 70/63/57 4/24/12 12/104/11 71/61/55
f 75/70/63 76/69/62 74/65/59 73/64/58
f 11/66/10 10/94/8 73/64/58
f 72/62/56 25/97/87 19/20/18 70/63/57
f 4/24/12 70/63/57 19/20/18
f 58/46/41 27/39/34 79/71/64 78/68/61
f 79/71/64 27/39/34 25/97/87 72/62/56
f 81/72/65 37/99/89 38/101/91 80/76/69
f 82/73/66 36/100/90 37/99/89 81/72/65
f 80/76/69 38/101/91 42/45/40 57/78/71
f 80/76/69 83/74/67 81/72/65
f 75/70/63 83/74/67 78/68/61
f 50/77/70 49/42/37 84/75/68
f 86/84/77 87/83/76 67/80/73 66/58/52
f 66/58/52 85/82/75 86/84/77
f 59/50/45 33/36/31 87/83/76 86/84/77
f 67/80/73 87/83/76 40/79/72
f 64/60/54 88/87/80 85/82/75 69/81/74
f 59/50/45 85/82/75 43/85/78
f 90/90/83 34/89/82 35/30/25 89/93/85
f 89/93/85 35/30/25 41/32/27 51/48/43
f 91/88/81 92/91/84 1/92/3 3/18/2
f 34/89/82 91/88/81 3/18/2
f 15/95/15 8/105/16 82/73/66 73/64/58
f 62/54/49 92/91/84 64/60/54
f 8/105/16 5/23/6 36/100/90 82/73/66
