# Blender v2.78 (sub 0) OBJ File: 'Mesh_Dungeon_Large_RoomSquare_lod0.blend'
# www.blender.org
mtllib Mesh_CavePack_Large_RoomSquare_lod0.mtl
o Plane
v -11.603226 -0.088983 16.000000
v 11.851595 -0.088983 16.000000
v -12.125321 -0.088983 -16.000000
v -7.181709 -0.088983 16.000000
v -2.311114 -0.088983 16.000000
v 2.559482 -0.088983 16.000000
v 7.430077 -0.088983 16.000000
v 9.724185 -0.088983 -16.000000
v 3.324184 -0.088983 -16.000000
v -3.075816 -0.088983 -16.000000
v -9.475816 -0.088983 -16.000000
v -9.475816 -0.088983 9.600000
v -9.475816 -0.088983 3.200000
v -9.475816 0.123588 -3.200000
v -9.475816 -0.088983 -9.600000
v -3.075816 0.123588 9.600000
v -3.075816 0.525303 3.200000
v -3.075816 0.683251 -3.200000
v -3.075816 -0.088983 -9.600000
v 3.324184 -0.088983 9.600000
v 3.324184 0.683251 3.200000
v 3.324184 0.683251 -3.200000
v 3.324184 0.123588 -9.600000
v 9.724185 0.123588 9.600000
v 9.724185 -0.088983 3.200000
v 9.724185 0.123588 -3.200000
v 9.724185 -0.088983 -9.600000
v -12.214688 11.911016 -13.894978
v 12.227688 11.057695 12.787805
v -12.214688 11.911016 13.894978
v -14.083967 7.911016 16.000000
v 13.786801 7.721407 14.543545
v -14.083967 7.911016 -16.000000
v -14.083967 3.911017 -16.000000
v 14.332336 3.911017 16.000000
v -14.083967 3.911017 16.000000
v -11.094656 15.911016 7.580217
v -10.862097 16.067921 3.223515
v -12.730404 15.911016 -2.895147
v -11.094656 15.911016 -7.580217
v 10.292175 14.475142 7.580217
v 10.353594 15.679695 -7.583766
v -7.181709 3.911017 18.338072
v -2.311114 3.911017 18.338072
v 2.559482 3.911017 18.338072
v 7.430077 3.911017 18.338072
v 9.724185 3.911017 -18.338072
v 3.324184 3.911017 -18.338072
v -3.075816 3.911017 -18.338072
v -9.475816 3.911017 -18.338072
v -7.181709 7.911016 18.837656
v -2.311114 7.911016 18.837656
v 2.559482 7.911016 18.837656
v 7.430077 7.911016 18.837656
v 9.724185 7.911016 -18.837656
v 3.513426 7.255507 -16.342829
v -2.886575 7.255507 -16.342829
v -9.286574 7.255507 -16.342829
v -7.181709 11.911016 17.810999
v -2.311114 11.911016 17.810999
v 2.559482 11.911016 17.810999
v 7.430077 11.911016 17.810999
v 8.212541 11.657702 -16.309107
v 3.513426 11.255507 -15.316171
v -2.886575 11.255507 -15.316171
v -9.286574 11.255507 -15.316171
v -6.485701 15.911016 14.475733
v -2.079111 15.911016 16.189827
v 2.327479 15.911016 16.189827
v 6.734068 15.911016 14.475733
v 7.641718 14.154296 -14.227406
v 2.816699 15.371495 -14.551615
v -2.959535 15.339759 -14.677809
v -8.749827 15.339759 -12.963715
v 9.560925 15.679695 -11.744608
v -10.301988 15.911016 -11.741058
v 10.550357 15.911016 11.741058
v -10.301988 15.911016 11.741058
v -8.853015 16.982443 2.895147
v -8.853015 16.982443 -2.895147
v -4.367168 17.462738 2.895147
v -4.367168 16.161682 -2.895147
v 0.118681 17.721357 2.895147
v 0.118681 16.420301 -2.895147
v 3.553679 16.026863 2.895147
v 4.489383 16.364723 -2.913335
v 8.039530 15.546568 2.895147
v 9.090379 16.982443 -2.895147
v -4.367168 17.462738 7.529503
v -4.367168 16.161682 -7.529503
v 0.118681 17.721357 7.529503
v 0.118681 16.420301 -7.529503
v 3.553679 16.026863 7.529503
v 4.489383 16.364723 -7.547691
v -4.367168 16.552853 12.783104
v -4.367168 16.552853 -12.783104
v 0.118681 16.811472 12.783104
v 0.118681 16.811472 -12.783104
v 4.604529 16.552853 12.783104
v 4.604529 16.552853 -12.783104
v -13.863705 0.000000 16.000000
v -14.124753 0.000000 0.000000
v -16.000000 0.000000 3.200000
v -16.000000 0.000000 12.800000
v -15.104076 6.000000 12.800000
v -16.000000 6.000000 9.600000
v -16.000000 6.000000 6.400000
v -15.104076 6.000000 3.200000
v -15.104370 5.999999 1.235403
v -14.918318 6.205353 15.148822
v -15.104076 4.000000 16.000000
v -15.104076 4.000000 0.000000
v -16.000000 4.000000 3.200000
v -16.000000 4.000000 12.800000
v -16.000000 2.000000 12.800000
v -16.000000 2.000000 3.200000
v -15.104076 2.000000 0.000000
v -15.104076 2.000000 16.000000
v -13.609421 8.000000 11.790109
v -14.427294 8.000000 9.447574
v -14.427294 8.000000 6.552426
v -13.609421 8.000000 4.209891
v 13.849856 0.000000 -16.000000
v 14.110904 0.000000 0.000000
v 15.986152 0.000000 -3.200000
v 15.986152 0.000000 -12.800000
v 15.090228 6.000000 -12.800000
v 15.986152 6.000000 -9.600000
v 15.986152 6.000000 -6.400000
v 15.090228 6.000000 -3.200000
v 14.155587 6.000000 -1.052511
v 14.155589 6.000000 -14.947489
v 15.090229 4.000000 -16.000000
v 15.090227 4.000000 0.000000
v 15.986152 4.000000 -3.200000
v 15.986152 4.000000 -12.800000
v 15.986152 2.000000 -12.800000
v 15.986152 2.000000 -3.200000
v 15.090227 2.000000 0.000000
v 15.090229 2.000000 -16.000000
v 13.595572 8.000000 -11.790109
v 14.413445 8.000000 -9.447574
v 14.413445 8.000000 -6.552426
v 13.595572 8.000000 -4.209891
v 15.986152 0.000000 -7.788314
v 12.796351 10.204927 -9.447574
v 12.796351 10.204927 -6.552426
v 11.206265 13.350217 -10.228505
v 11.370240 13.043947 -6.552426
v 11.509773 9.987611 -13.674864
v 10.247880 13.270017 -13.329218
v 13.980828 11.183273 9.312000
v 15.539942 7.846985 10.253292
v 16.434242 4.061577 10.856256
v 12.996150 11.100884 2.882588
v 14.980997 8.050084 4.147052
v 15.461432 4.710627 4.381125
v 13.402974 10.026933 0.472674
v 13.013745 11.417003 -1.721815
v 11.818778 13.918587 1.919738
v 11.818778 13.918587 -1.512501
v -12.692383 11.002103 11.672009
v -13.510256 11.002103 9.329473
v -13.510256 11.002103 6.434327
v -13.097748 10.788904 3.290948
v -10.992918 13.823915 10.940007
v -11.944244 13.823915 8.215240
v -11.944244 13.823915 4.847693
v -12.923419 13.596828 1.796762
v -14.922539 8.305779 -1.520779
v -14.938881 10.345547 -1.276199
v -14.584106 12.151803 -1.047795
v -13.563401 12.658738 -8.558950
v -13.607051 8.013129 -8.819206
v -13.619196 3.380020 -9.592071
v -12.557906 0.509806 -10.274342
v -12.732297 0.292055 -4.193597
v -14.872216 6.786777 -4.738667
v -14.872216 2.818194 -4.738667
v -13.948698 11.049885 -5.001456
v 16.434242 0.176777 10.856256
v 15.461432 0.825826 4.381125
vt -0.4977 0.5421
vt -0.1607 0.8464
vt -0.4649 1.1838
vt -0.8022 0.8793
vt 0.1773 1.1505
vt -0.1273 1.4882
vt 0.5148 1.4554
vt 0.2102 1.7928
vt 0.8418 -0.6985
vt 1.0984 -0.4671
vt 0.7538 -0.1657
vt 0.4165 -0.4706
vt 0.4492 0.1723
vt 0.1120 -0.1338
vt 0.1463 0.5088
vt -0.1928 0.2041
vt 1.3555 -0.2359
vt 1.0922 0.1384
vt 0.7849 0.4760
vt 0.4820 0.8119
vt 1.6125 -0.0051
vt 1.4306 0.4426
vt 1.1255 0.7806
vt 0.8196 1.1178
vt 0.9311 1.6579
vt 0.6926 1.9221
vt 1.1495 1.4162
vt -0.2316 -0.4442
vt 0.2252 -0.9496
vt -0.9431 0.7546
vt -0.6952 0.4281
vt -0.4123 0.1012
vt -0.2851 -0.1864
vt 1.2032 1.1585
vt 1.4891 0.9928
vt 1.8463 0.6927
vt 1.8463 0.2037
vt 0.4899 -1.0165
vt 0.6090 -0.9089
vt -1.5745 -0.5662
vt -1.3385 -1.0435
vt -0.9562 -0.7841
vt -1.1609 -0.4135
vt -0.9865 -1.4596
vt -0.5419 -1.7861
vt -0.3155 -1.3748
vt -0.6674 -1.1126
vt 2.4550 1.6530
vt 2.0176 2.2022
vt 1.6951 1.8548
vt 2.0579 1.4172
vt 2.6953 1.0140
vt 2.2840 0.9521
vt 1.4293 2.6234
vt 1.2358 2.1723
vt -0.4376 -0.8599
vt -0.6870 -0.5885
vt 1.4640 1.6262
vt 1.7880 1.2525
vt -0.8730 -0.2950
vt -0.1408 -1.0787
vt 2.0217 0.8469
vt 1.0792 1.9092
vt 1.5468 1.0749
vt 1.7719 0.7186
vt 0.9879 1.6168
vt 1.2483 1.4020
vt -0.2393 -0.6391
vt -0.4614 -0.4062
vt -0.6440 -0.1660
vt 0.0117 -0.8329
vt 1.0971 1.1674
vt 1.3338 0.9122
vt -0.2507 -0.2495
vt -0.3841 -0.0119
vt 0.1769 -0.5597
vt -0.0708 -0.4246
vt 1.5033 0.5983
vt 0.8929 1.4130
vt 2.3326 0.5862
vt 2.7200 0.7289
vt 2.0760 0.5468
vt 1.7933 0.5052
vt -1.3326 0.1448
vt -1.6980 -0.1021
vt -1.0335 0.2173
vt -0.7457 0.2558
vt -0.0732 -1.9748
vt 0.2820 -1.6487
vt 0.3654 -1.3118
vt 0.4312 -0.9556
vt 1.5001 0.4806
vt 0.4599 -0.6197
vt -0.4404 0.2335
vt 0.9203 -0.2830
vt 1.2768 -0.0350
vt 1.0805 0.1252
vt 0.8283 -0.1581
vt 0.8722 0.3248
vt 0.6161 0.0481
vt 0.6647 0.5212
vt 0.4104 0.2412
vt 0.4663 0.7252
vt 0.2369 0.4152
vt 0.2670 0.9467
vt 0.0129 0.6248
vt 1.0723 0.5316
vt 0.8738 0.7286
vt 0.6851 0.9307
vt 0.2125 0.0377
vt 0.4097 -0.1593
vt 0.0363 0.1947
vt -0.2142 -0.0116
vt -0.0149 -0.1885
vt 0.1706 -0.3864
vt 1.1065 0.9515
vt 0.9276 1.1527
vt 1.2905 0.7632
vt 0.4384 1.2274
vt -0.3165 0.4665
vt 0.6823 1.3431
vt 0.7050 -0.4978
vt 1.3876 0.2579
vt 0.3750 -1.6694
vt 0.7031 -1.6957
vt 0.6662 -1.4614
vt 0.4395 -1.4677
vt 0.3327 -1.8438
vt 0.6686 -1.9248
vt 1.9231 -1.2385
vt 2.1277 -0.9300
vt 1.9391 -0.8205
vt 1.7397 -1.1170
vt 0.1678 -2.0273
vt 0.5998 -2.1511
vt 2.1065 -1.3621
vt 2.3566 -1.0308
vt 1.6971 -0.8043
vt 1.5635 -0.9559
vt 1.0201 -1.4165
vt 0.9221 -1.1674
vt 0.7021 -1.2183
vt 1.3360 -1.2403
vt 1.1703 -1.0257
vt 1.3299 -0.8588
vt 0.8049 2.3844
vt 0.4836 2.4765
vt 0.5015 2.2299
vt 0.7230 2.2031
vt 0.8808 2.5238
vt 0.5740 2.7141
vt -0.7991 2.0409
vt -1.0279 1.7264
vt -0.8319 1.5954
vt -0.6168 1.9119
vt 1.0190 2.6556
vt 0.7329 2.9367
vt -0.9781 2.1764
vt -1.2550 1.8576
vt -0.5743 1.5435
vt -0.4417 1.7454
vt 0.1355 2.1993
vt 0.2268 1.9360
vt 0.4647 1.9726
vt -0.1976 2.0250
vt -0.0315 1.7966
vt -0.2022 1.6158
vt 0.1101 1.5747
vt 0.3337 1.7036
vt 0.2577 1.3544
vt 0.5099 1.4712
vt 0.7322 1.5251
vt 0.6938 1.7852
vt -0.6909 0.5310
vt -0.9765 0.5672
vt -1.3024 0.6016
vt -0.4151 0.9475
vt -0.7339 1.0193
vt -1.0270 1.1573
vt -0.3685 1.1702
vt -0.1527 1.2332
vt -0.0066 1.0667
vt -0.1756 0.8715
vt 1.2229 -0.6224
vt 1.0129 -0.7856
vt 0.8118 -0.9125
vt 0.6209 -0.9693
vt 1.1625 -0.3717
vt 0.9570 -0.5018
vt 0.7555 -0.6524
vt 0.5677 -0.7272
vt 1.5314 -0.3737
vt 1.4145 -0.3011
vt 1.6794 -0.4654
vt 1.6488 0.1746
vt 1.9712 0.0784
vt 2.3952 0.0383
vt 2.7223 0.0821
vt 2.2696 -0.4433
vt 1.9380 -0.2918
vt 2.5946 -0.5894
vt 1.6427 -0.0990
vt -1.4019 1.3367
vt -1.6980 0.6538
vn 0.0467 0.9985 -0.0284
vn -0.0192 0.9986 -0.0492
vn -0.0048 0.8694 0.4941
vn 0.1194 0.8491 0.5146
vn 0.0109 0.9987 -0.0493
vn 0.0000 0.8714 0.4905
vn 0.0140 0.9995 -0.0260
vn -0.0439 0.8541 0.5182
vn 0.0502 0.8481 -0.5274
vn 0.0008 0.8719 -0.4896
vn -0.0158 0.9991 0.0402
vn -0.0133 0.9998 0.0126
vn -0.0410 0.9983 0.0410
vn -0.0348 0.9991 0.0209
vn -0.0410 0.9985 -0.0348
vn -0.0061 1.0000 0.0048
vn 0.0008 0.8709 -0.4914
vn 0.0112 0.9991 0.0408
vn 0.0348 0.9985 0.0410
vn 0.0337 0.9988 -0.0337
vn -0.0641 0.8494 -0.5238
vn -0.0192 0.9992 0.0345
vn 0.0018 0.9999 0.0092
vn 0.0449 0.9989 -0.0097
vn -0.0013 0.9999 -0.0096
vn -0.4191 0.8867 0.1951
vn -0.4099 0.8941 -0.1806
vn 0.4310 0.8833 0.1845
vn 0.4209 0.8861 -0.1938
vn 0.5262 0.7288 0.4380
vn 0.5874 0.8090 0.0215
vn 0.4711 0.8742 0.1173
vn 0.4770 0.8595 0.1836
vn -0.4543 0.8877 -0.0742
vn -0.7590 0.6464 0.0772
vn -0.7274 0.6732 -0.1329
vn -0.3168 0.7564 -0.5723
vn 0.3059 0.6408 -0.7041
vn 0.0927 0.7895 -0.6067
vn 0.0000 0.3208 -0.9471
vn -0.1681 0.2094 -0.9633
vn 0.1392 0.2582 -0.9560
vn 0.0545 0.0806 0.9952
vn 0.0000 -0.0045 1.0000
vn 0.1401 0.0192 0.9899
vn -0.1551 0.1148 0.9812
vn 0.0000 -0.0634 -0.9980
vn 0.1316 -0.3319 0.9340
vn 0.0000 -0.3844 0.9232
vn -0.2718 -0.1706 -0.9471
vn 0.2046 -0.1231 -0.9711
vn 0.0993 -0.3558 0.9293
vn -0.2422 -0.3993 0.8842
vn 0.0299 -0.2540 0.9667
vn 0.1412 -0.3784 0.9148
vn -0.2190 -0.4957 0.8404
vn 0.0881 -0.2974 0.9507
vn 0.0402 -0.3567 -0.9333
vn -0.0402 -0.3567 -0.9333
vn -0.3585 -0.4294 -0.8289
vn 0.2779 -0.4549 -0.8460
vn -0.0587 -0.5497 0.8332
vn 0.0801 -0.5427 0.8361
vn -0.0697 -0.7608 -0.6452
vn -0.2994 -0.7942 -0.5287
vn 0.2509 -0.8157 -0.5213
vn 0.0696 -0.7607 -0.6453
vn 0.2178 -0.6089 0.7627
vn -0.3186 -0.5732 0.7549
vn 0.8337 0.1298 0.5367
vn 0.7527 -0.2705 0.6002
vn 0.6637 -0.4794 0.5741
vn -0.6794 0.0485 -0.7321
vn -0.7256 -0.3338 -0.6016
vn -0.7367 -0.5037 -0.4512
vn 0.2459 0.0395 -0.9685
vn 0.7317 -0.3138 -0.6051
vn 0.7782 -0.5083 -0.3688
vn 0.4314 -0.8294 0.3548
vn 0.5679 -0.7688 -0.2939
vn -0.5581 -0.8076 -0.1908
vn 0.6609 -0.7459 -0.0822
vn 0.6820 -0.7308 0.0264
vn 0.1033 -0.9917 0.0764
vn 0.2521 -0.9677 -0.0031
vn 0.0065 -0.9934 0.1144
vn 0.0643 -0.9957 0.0658
vn -0.0296 -0.9970 0.0716
vn -0.1396 -0.9875 0.0723
vn -0.0498 -0.9987 0.0077
vn -0.2149 -0.9760 -0.0348
vn -0.3711 -0.9283 -0.0210
vn -0.2569 -0.9604 -0.1075
vn 0.0328 -0.9994 0.0043
vn 0.0167 -0.9993 -0.0324
vn -0.0488 -0.9986 0.0181
vn -0.1448 -0.9883 -0.0469
vn 0.1174 -0.9892 -0.0878
vn -0.2580 -0.9657 0.0290
vn -0.1405 -0.9880 -0.0645
vn -0.0465 -0.9848 -0.1670
vn 0.1017 -0.9776 -0.1842
vn -0.0002 -0.9551 0.2961
vn -0.1390 -0.9288 0.3435
vn 0.1011 -0.9482 0.3010
vn -0.6037 -0.7934 0.0773
vn -0.4840 -0.8751 0.0009
vn -0.5266 -0.7889 0.3168
vn 0.6536 -0.7504 -0.0980
vn 0.4431 -0.8829 0.1551
vn 0.7044 -0.1119 -0.7009
vn 0.9505 -0.2053 -0.2333
vn 0.8604 -0.4844 -0.1581
vn 0.8535 -0.3464 -0.3892
vn 0.6256 0.0963 -0.7741
vn 0.9284 0.1367 -0.3453
vn 0.9370 0.1105 0.3314
vn 0.9437 0.2197 0.2474
vn 0.9913 -0.0515 0.1206
vn 0.9524 -0.2000 0.2300
vn 0.9641 -0.2655 -0.0005
vn 0.8966 -0.4320 0.0972
vn 0.7932 -0.5932 -0.1372
vn 0.8663 -0.4795 -0.1399
vn 0.8761 -0.4632 -0.1338
vn 0.7932 -0.5932 0.1372
vn 0.8809 -0.4591 0.1147
vn 0.9279 -0.3697 0.0485
vn -0.7536 -0.1528 0.6393
vn -0.9210 -0.2737 0.2770
vn -0.8087 -0.5282 0.2588
vn -0.7415 -0.4568 0.4914
vn -0.7112 0.1902 0.6767
vn -0.9284 0.1367 0.3453
vn -0.9370 0.1105 -0.3314
vn -0.9819 0.1560 -0.1073
vn -0.9863 -0.1577 -0.0474
vn -0.9210 -0.2737 -0.2770
vn -0.3339 0.7526 0.5674
vn -0.9314 -0.3622 -0.0355
vn -0.7945 -0.5433 -0.2710
vn -0.7932 -0.5932 0.1372
vn -0.7833 -0.6095 0.1220
vn -0.7571 -0.6021 0.2533
vn -0.7932 -0.5932 -0.1372
vn -0.8215 -0.5662 -0.0672
vn -0.8911 -0.4437 -0.0949
vn -0.8867 -0.4615 0.0287
vn -0.8510 -0.5082 0.1318
vn -0.8798 -0.4699 0.0720
vn -0.8755 -0.4404 0.1988
vn -0.7179 -0.4716 0.5120
vn -0.7468 -0.5270 0.4056
vn -0.8348 -0.5445 -0.0806
vn -0.9219 -0.3603 -0.1423
vn -0.9826 -0.0480 -0.1793
vn -0.9062 -0.4153 0.0797
vn -0.9356 -0.3235 0.1415
vn -0.9857 -0.1051 0.1318
vn -0.9490 -0.3061 0.0757
vn -0.9345 -0.3524 0.0492
vn -0.8142 -0.5803 -0.0184
vn -0.7373 -0.6731 -0.0567
vn 0.9645 -0.2297 -0.1301
vn 0.9390 -0.3407 0.0454
vn 0.8979 -0.4089 -0.1630
vn 0.9039 -0.4130 -0.1115
vn 0.8758 -0.4212 -0.2358
vn 0.8657 -0.4971 -0.0581
vn 0.8889 -0.4404 -0.1260
vn 0.8912 -0.4389 -0.1141
vn 0.9882 -0.1461 -0.0458
vn 0.9428 -0.3201 -0.0929
vn 0.9913 -0.1303 -0.0154
vn 0.9230 -0.3576 0.1417
vn 0.9878 -0.0994 0.1196
vn 0.9681 0.2343 0.0885
vn 0.9500 0.2619 0.1697
vn 0.9831 -0.0883 0.1602
vn 0.9722 -0.1873 0.1402
usemtl Ground
s 1
f 15/1/1 19/2/2 10/3/3 11/4/4
f 19/2/2 23/5/5 9/6/6 10/3/3
f 23/5/5 27/7/7 8/8/8 9/6/6
f 4/9/9 5/10/10 16/11/11 12/12/12
f 12/12/12 16/11/11 17/13/13 13/14/14
f 13/14/14 17/13/13 18/15/15 14/16/16
f 14/16/16 18/15/15 19/2/2 15/1/1
f 5/10/10 6/17/17 20/18/18 16/11/11
f 16/11/11 20/18/18 21/19/19 17/13/13
f 17/13/13 21/19/19 22/20/20 18/15/15
f 18/15/15 22/20/20 23/5/5 19/2/2
f 6/17/17 7/21/21 24/22/22 20/18/18
f 20/18/18 24/22/22 25/23/23 21/19/19
f 21/19/19 25/23/23 26/24/24 22/20/20
f 22/20/20 26/24/24 27/7/7 23/5/5
f 27/7/7 26/24/24 145/25/25
f 145/25/25 126/26/26 27/7/7
f 145/25/25 26/24/24 125/27/27
f 27/7/7 126/26/26 8/8/8
f 12/12/12 13/14/14 103/28/28
f 104/29/29 12/12/12 103/28/28
f 3/30/30 176/31/31 15/1/1 11/4/4
f 177/32/32 14/16/16 15/1/1 176/31/31
f 14/16/16 177/32/32 102/33/33
f 14/16/16 102/33/33 13/14/14
f 102/33/33 103/28/28 13/14/14
f 125/27/27 26/24/24 124/34/34
f 26/24/24 25/23/23 124/34/34
f 124/34/34 25/23/23 182/35/35
f 24/22/22 181/36/36 182/35/35 25/23/23
f 2/37/37 24/22/22 7/21/21
f 24/22/22 2/37/37 181/36/36
f 101/38/38 1/39/39 104/29/29
f 12/12/12 104/29/29 1/39/39
f 1/39/39 4/9/9 12/12/12
usemtl Walls
f 7/40/21 6/41/17 45/42/40 46/43/41
f 5/44/10 4/45/9 43/46/42 44/47/40
f 10/48/3 9/49/6 48/50/43 49/51/44
f 6/41/17 5/44/10 44/47/40 45/42/40
f 11/52/4 10/48/3 49/51/44 50/53/45
f 9/49/6 8/54/8 47/55/46 48/50/43
f 45/42/40 44/47/40 52/56/47 53/57/47
f 49/51/44 48/50/43 56/58/48 57/59/49
f 46/43/41 45/42/40 53/57/47 54/60/50
f 44/47/40 43/46/42 51/61/51 52/56/47
f 50/53/45 49/51/44 57/59/49 58/62/52
f 48/50/43 47/55/46 55/63/53 56/58/48
f 58/62/52 57/59/49 65/64/54 66/65/55
f 56/58/48 55/63/53 63/66/56 64/67/57
f 53/57/47 52/56/47 60/68/58 61/69/59
f 57/59/49 56/58/48 64/67/57 65/64/54
f 54/60/50 53/57/47 61/69/59 62/70/60
f 52/56/47 51/61/51 59/71/61 60/68/58
f 65/64/54 64/67/57 72/72/62 73/73/63
f 62/70/60 61/69/59 69/74/64 70/75/65
f 60/68/58 59/71/61 67/76/66 68/77/67
f 66/65/55 65/64/54 73/73/63 74/78/68
f 64/67/57 63/66/56 71/79/69 72/72/62
f 61/69/59 60/68/58 68/77/67 69/74/64
f 11/52/4 50/53/45 34/80/70 3/81/30
f 34/80/70 50/53/45 58/62/52 33/82/71
f 33/82/71 58/62/52 66/65/55 28/83/72
f 7/40/21 46/43/41 35/84/73 2/85/37
f 35/84/73 46/43/41 54/60/50 32/86/74
f 32/86/74 54/60/50 62/70/60 29/87/75
f 4/45/9 1/88/39 36/89/76 43/46/42
f 31/90/77 51/61/51 43/46/42 36/89/76
f 30/91/78 59/71/61 51/61/51 31/90/77
f 76/92/79 28/83/72 66/65/55 74/78/68
f 67/76/66 59/71/61 30/91/78 78/93/80
f 77/94/81 29/87/75 62/70/60 70/75/65
f 38/95/82 39/96/83 80/97/84 79/98/85
f 79/98/85 80/97/84 82/99/86 81/100/87
f 81/100/87 82/99/86 84/101/88 83/102/89
f 83/102/89 84/101/88 86/103/90 85/104/91
f 85/104/91 86/103/90 88/105/92 87/106/93
f 84/101/88 82/99/86 90/107/94 92/108/95
f 86/103/90 84/101/88 92/108/95 94/109/96
f 81/100/87 83/102/89 91/110/97 89/111/98
f 83/102/89 85/104/91 93/112/99 91/110/97
f 91/110/97 93/112/99 99/113/100 97/114/101
f 89/111/98 91/110/97 97/114/101 95/115/102
f 94/109/96 92/108/95 98/116/103 100/117/104
f 92/108/95 90/107/94 96/118/105 98/116/103
f 73/73/63 98/116/103 96/118/105 74/78/68
f 71/79/69 100/117/104 98/116/103 72/72/62
f 73/73/63 72/72/62 98/116/103
f 67/76/66 95/115/102 97/114/101 68/77/67
f 69/74/64 97/114/101 99/113/100 70/75/65
f 69/74/64 68/77/67 97/114/101
f 88/105/92 86/103/90 94/109/96 42/119/106
f 87/106/93 41/120/107 93/112/99 85/104/91
f 77/94/81 70/75/65 99/113/100
f 75/121/108 100/117/104 71/79/69
f 76/92/79 74/78/68 96/118/105
f 78/93/80 95/115/102 67/76/66
f 79/98/85 81/100/87 89/111/98 37/122/109
f 80/97/84 40/123/110 90/107/94 82/99/86
f 76/92/79 96/118/105 90/107/94 40/123/110
f 37/122/109 89/111/98 95/115/102 78/93/80
f 77/94/81 99/113/100 93/112/99 41/120/107
f 42/119/106 94/109/96 100/117/104 75/121/108
f 111/124/111 114/125/112 105/126/113 110/127/114
f 118/128/115 115/129/116 114/125/112 111/124/111
f 116/130/117 117/131/118 112/132/119 113/133/120
f 101/134/38 104/135/29 115/129/116 118/128/115
f 103/136/28 102/137/33 117/131/118 116/130/117
f 113/133/120 112/132/119 109/138/121 108/139/122
f 105/126/113 106/140/123 120/141/124 119/142/125
f 106/140/123 107/143/126 121/144/127 120/141/124
f 107/143/126 108/139/122 122/145/128 121/144/127
f 105/126/113 114/125/112 106/140/123
f 107/143/126 113/133/120 108/139/122
f 133/146/129 136/147/130 127/148/131 132/149/132
f 140/150/133 137/151/134 136/147/130 133/146/129
f 138/152/135 139/153/136 134/154/137 135/155/138
f 123/156/139 126/157/26 137/151/134 140/150/133
f 125/158/27 124/159/34 139/153/136 138/152/135
f 135/155/138 134/154/137 131/160/140 130/161/141
f 127/148/131 128/162/142 142/163/143 141/164/144
f 128/162/142 129/165/145 143/166/146 142/163/143
f 129/165/145 130/161/141 144/167/147 143/166/146
f 127/148/131 136/147/130 128/162/142
f 129/165/145 135/155/138 130/161/141
f 126/157/26 123/156/139 8/54/8
f 8/54/8 123/156/139 140/150/133 47/55/46
f 140/150/133 133/146/129 47/55/46
f 47/55/46 133/146/129 132/149/132 55/63/53
f 142/163/143 143/166/146 147/168/148 146/169/149
f 146/169/149 147/168/148 149/170/150 148/171/151
f 75/121/108 148/171/151 149/170/150 42/119/106
f 146/169/149 148/171/151 151/172/152 150/173/153
f 63/66/56 150/173/153 151/172/152 71/79/69
f 71/79/69 151/172/152 148/171/151 75/121/108
f 142/163/143 146/169/149 150/173/153 141/164/144
f 132/149/132 127/148/131 141/164/144 150/173/153
f 63/66/56 55/63/53 132/149/132 150/173/153
f 32/86/74 29/87/75 152/174/154 153/175/155
f 35/84/73 32/86/74 153/175/155 154/176/156
f 153/175/155 152/174/154 155/177/157 156/178/158
f 154/176/156 153/175/155 156/178/158 157/179/159
f 131/160/140 134/154/137 157/179/159 156/178/158
f 130/161/141 131/160/140 144/167/147
f 144/167/147 131/160/140 158/180/160 159/181/161
f 156/178/158 158/180/160 131/160/140
f 156/178/158 155/177/157 158/180/160
f 158/180/160 155/177/157 159/181/161
f 144/167/147 159/181/161 147/168/148 143/166/146
f 149/170/150 147/168/148 159/181/161
f 87/106/93 88/105/92 161/182/162 160/183/163
f 155/177/157 160/183/163 161/182/162 159/181/161
f 159/181/161 161/182/162 149/170/150
f 88/105/92 42/119/106 149/170/150 161/182/162
f 155/177/157 152/174/154 160/183/163
f 87/106/93 160/183/163 41/120/107
f 160/183/163 152/174/154 41/120/107
f 77/94/81 41/120/107 152/174/154 29/87/75
f 1/88/39 101/134/38 36/89/76
f 101/134/38 118/128/115 36/89/76
f 111/124/111 36/89/76 118/128/115
f 36/89/76 111/124/111 110/127/114 31/90/77
f 110/127/114 105/126/113 119/142/125
f 110/127/114 119/142/125 31/90/77
f 121/144/127 122/145/128 165/184/164 164/185/165
f 120/141/124 121/144/127 164/185/165 163/186/166
f 119/142/125 120/141/124 163/186/166 162/187/167
f 164/185/165 165/184/164 169/188/168 168/189/169
f 163/186/166 164/185/165 168/189/169 167/190/170
f 162/187/167 163/186/166 167/190/170 166/191/171
f 30/91/78 162/187/167 166/191/171 78/93/80
f 31/90/77 119/142/125 162/187/167 30/91/78
f 78/93/80 166/191/171 167/190/170 37/122/109
f 167/190/170 168/189/169 37/122/109
f 79/98/85 37/122/109 168/189/169 38/95/82
f 168/189/169 169/188/168 38/95/82
f 38/95/82 169/188/168 39/96/83
f 169/188/168 165/184/164 171/192/172 172/193/173
f 165/184/164 122/145/128 170/194/174 171/192/172
f 109/138/121 170/194/174 122/145/128 108/139/122
f 169/188/168 172/193/173 39/96/83
f 33/82/71 28/83/72 173/195/175 174/196/176
f 28/83/72 76/92/79 40/123/110 173/195/175
f 175/197/177 34/80/70 33/82/71 174/196/176
f 3/81/30 34/80/70 175/197/177 176/198/31
f 112/132/119 117/131/118 179/199/178 178/200/179
f 174/196/176 178/200/179 179/199/178 175/197/177
f 177/201/32 176/198/31 175/197/177 179/199/178
f 117/131/118 102/137/33 177/201/32 179/199/178
f 112/132/119 178/200/179 170/194/174 109/138/121
f 171/192/172 170/194/174 180/202/180
f 178/200/179 180/202/180 170/194/174
f 178/200/179 174/196/176 180/202/180
f 174/196/176 173/195/175 180/202/180
f 172/193/173 171/192/172 180/202/180
f 80/97/84 39/96/83 40/123/110
f 40/123/110 39/96/83 173/195/175
f 172/193/173 180/202/180 39/96/83
f 180/202/180 173/195/175 39/96/83
f 154/176/156 157/179/159 182/203/35 181/204/36
f 134/154/137 139/153/136 157/179/159
f 157/179/159 139/153/136 182/203/35
f 139/153/136 124/159/34 182/203/35
f 35/84/73 154/176/156 181/204/36 2/85/37
