# Blender v2.78 (sub 0) OBJ File: 'Mesh_Dungeon_Small_RoomSquare_lod0.blend'
# www.blender.org
mtllib Mesh_CavePack_Room_Square_End_Small_lod1.mtl
o Plane.017
v 7.999695 -0.007276 -4.799237
v 6.321054 0.022134 -7.969425
v -7.943881 0.014956 -4.743641
v -2.078167 0.011064 -4.889546
v -6.151738 -0.001932 -7.920075
v 3.665484 0.084543 -4.189378
v -6.276297 -0.021236 7.866824
v -5.448456 0.016208 1.281482
v -7.970244 -0.009105 4.412583
v -8.000000 0.000000 -1.600000
v 5.815998 0.000591 7.973944
v -1.600000 0.106285 4.800000
v -1.605512 -0.463392 0.685473
v 1.264019 -0.400689 -0.345392
v 4.952030 0.050612 4.179592
v 7.996797 0.033265 4.798206
v -7.133425 3.457092 8.077513
v -8.877751 4.092772 1.959782
v -8.124880 5.639241 2.156779
v -6.169436 5.999999 6.947490
v -8.000000 1.999999 4.800001
v 7.122344 3.450220 -8.087872
v 8.007711 4.003741 -4.802124
v -7.104076 2.000001 -8.000000
v -7.108399 3.916594 -7.979956
v 7.104076 1.999999 8.000000
v 7.121176 4.094625 7.946237
v 8.000000 3.999999 4.800001
v 7.104076 6.000001 -4.799999
v 6.169436 6.000001 -6.947488
v -6.169436 6.000001 -6.947488
v -8.040287 5.892302 -1.688971
v 7.989329 5.990942 1.604634
v -6.575233 8.018847 0.215035
v -5.095989 7.999048 5.856748
v -5.129567 7.939033 -6.040724
v 5.145126 7.949676 5.915746
v 6.575286 8.018788 -0.215168
v 8.000000 6.000000 -1.599999
v 5.098112 7.988482 -5.931687
v 3.652946 1.999998 9.169036
v -3.619503 2.029680 9.174082
v 4.775329 2.028116 -9.174317
v -4.800000 2.000001 -9.169036
v -3.652946 4.000000 9.418829
v 3.652945 4.000000 9.418829
v 4.800000 4.000003 -9.418827
v -4.800000 4.000002 -9.418827
v -1.600000 6.000001 -8.905499
v -4.800000 6.000001 -8.905499
v 4.738727 5.907892 -8.918479
v -3.584800 5.911858 8.923728
v 3.652946 5.999999 8.905500
v -1.110600 8.057728 -8.096828
v -0.449571 8.087329 8.080856
v 2.810086 8.008014 7.618124
v -3.215569 8.042544 7.258456
v -4.255167 7.990032 -7.337483
v 4.342720 8.000001 -7.237864
v -4.848317 8.505960 -0.329500
v -2.007462 8.791251 -3.766404
v 2.001935 8.791259 3.766188
v 4.843740 8.505800 0.329105
v -0.768257 8.902452 3.859448
v 0.495532 8.893882 -4.122062
v -8.960258 3.838375 -1.599999
v -8.960258 1.799248 1.600001
v -8.960258 1.799248 -1.599999
vt 0.2728 1.1492
vt -0.2825 1.5862
vt -0.5348 1.1503
vt 1.6467 1.1501
vt 1.4177 1.5863
vt 0.9569 0.9676
vt -0.3017 -0.5961
vt -0.0990 0.3195
vt -0.5363 -0.1062
vt -0.5353 0.7141
vt 0.3363 -0.1603
vt 1.3490 -0.5964
vt 1.0950 -0.0068
vt -0.4322 1.1298
vt -0.5653 0.8137
vt -0.2580 1.0307
vt 0.3395 0.4022
vt 0.7721 0.5417
vt 1.6470 -0.1593
vt 0.0589 1.5615
vt -0.0777 1.2355
vt -0.4139 0.4958
vt -0.2716 0.4910
vt -0.1222 0.5028
vt 0.0065 0.8347
vt 1.4323 0.5537
vt 1.3198 0.8356
vt 1.1725 0.2193
vt 0.2058 0.8229
vt 0.1737 1.0165
vt 0.0165 0.4915
vt 1.0152 0.6873
vt 0.8487 0.2296
vt 0.9347 -0.0581
vt 0.6077 -0.1585
vt 0.6568 -0.3867
vt 0.4605 1.6765
vt 0.7277 1.4513
vt 1.5680 1.1133
vt 1.1553 1.0377
vt 1.2708 1.1515
vt 0.0649 -0.3747
vt -0.2496 0.3224
vt -0.3947 0.2965
vt 0.6939 1.2965
vt 0.6622 1.1684
vt 0.2431 -0.1231
vt 0.0902 0.2440
vt -0.0399 0.1938
vt 0.3373 0.0126
vt 0.4400 0.0115
vt 0.4100 -0.1613
vt 0.4824 1.0282
vt 0.4670 1.1732
vt 0.3502 0.3240
vt 0.7683 0.6549
vt 0.6120 0.7656
vt 0.7865 0.9432
vt 0.6150 1.0230
vt 0.2756 0.7184
vt 0.7527 0.3664
vt 0.1708 1.3951
vt 0.4490 1.3623
vt 0.0546 1.1304
vt 1.7897 0.7715
vt 1.4590 0.9171
vt 0.3158 -0.3775
vt 0.1159 -0.6623
vt 0.5006 -0.8390
vt -0.6119 0.4269
vt -0.1231 0.9384
vt 0.1562 -0.2358
vt -0.1326 0.3642
vt 0.9374 0.8174
vt 1.0590 0.9366
vt 0.0061 0.4116
vt 0.2369 0.4721
vn 0.0084 0.9996 0.0256
vn 0.3509 0.7641 0.5413
vn 0.6730 0.7140 0.1931
vn -0.4372 0.8822 0.1749
vn -0.4537 0.7090 0.5399
vn -0.0151 0.9998 0.0133
vn 0.4324 0.7095 -0.5564
vn 0.0277 0.9996 -0.0076
vn 0.6512 0.7338 -0.1936
vn 0.5147 0.8573 0.0050
vn 0.0035 0.9996 -0.0293
vn -0.2952 0.7668 -0.5699
vn -0.0101 0.9999 -0.0104
vn 0.9737 0.2055 0.0980
vn 0.0498 0.9985 -0.0244
vn -0.0578 0.9982 0.0142
vn -0.4454 0.8772 -0.1793
vn 0.9740 0.2038 -0.0992
vn 0.7679 0.1506 0.6226
vn 0.7907 -0.2010 0.5782
vn 0.7454 -0.5156 0.4225
vn 0.8452 -0.5170 0.1355
vn -0.9370 -0.2394 -0.2545
vn -0.7356 -0.2423 -0.6326
vn -0.7854 -0.5982 -0.1592
vn 0.5817 -0.8133 -0.0141
vn 0.8441 -0.5110 -0.1625
vn 0.5334 -0.8094 0.2456
vn -0.4944 -0.8040 -0.3305
vn -0.5752 -0.8179 0.0131
vn -0.7950 -0.5881 0.1485
vn -0.8107 -0.5211 0.2668
vn -0.9128 -0.2437 0.3278
vn 0.1292 0.2932 -0.9473
vn -0.1842 -0.0772 -0.9799
vn -0.1324 0.2700 -0.9537
vn -0.1984 0.2785 0.9397
vn 0.2918 -0.1251 0.9483
vn 0.2017 0.2705 0.9413
vn 0.2134 -0.1167 -0.9700
vn 0.2716 -0.4542 -0.8485
vn -0.3704 -0.4609 0.8064
vn 0.0284 -0.7802 0.6248
vn 0.0297 -0.3564 0.9339
vn -0.3470 -0.8144 0.4651
vn -0.4958 -0.8359 0.2355
vn -0.7453 -0.4927 0.4492
vn 0.4729 -0.8212 -0.3193
vn 0.6768 -0.5148 -0.5262
vn -0.0333 -0.9944 0.1002
vn -0.1064 -0.9904 -0.0886
vn 0.0405 -0.9950 -0.0918
vn 0.0172 -0.7844 -0.6200
vn 0.2664 -0.8324 -0.4859
vn 0.2123 -0.9772 0.0048
vn -0.2095 -0.9778 -0.0034
vn 0.9438 0.0932 -0.3170
vn 0.7340 -0.1140 -0.6695
vn 0.9621 -0.2262 -0.1522
vn -0.7143 0.1676 -0.6794
vn -0.7840 -0.1124 0.6105
vn 0.9711 -0.1990 0.1320
vn -0.3004 -0.1238 0.9457
vn 0.3787 -0.4539 0.8066
vn -0.2004 -0.7941 -0.5737
vn -0.2649 -0.4251 -0.8655
vn 0.3370 -0.8050 0.4882
vn 0.1106 -0.9906 0.0804
usemtl Ground.007
s 1
f 4/1/1 5/2/2 3/3/3
f 1/4/4 2/5/5 6/6/6
f 7/7/7 8/8/8 9/9/9
f 8/8/8 10/10/10 9/9/9
f 7/7/7 12/11/11 8/8/8
f 11/12/12 15/13/13 12/11/11
f 15/13/13 1/4/4 6/6/6
f 10/14/10 3/15/3 68/16/14
f 4/1/1 2/5/5 5/2/2
f 4/1/1 6/6/6 2/5/5
f 13/17/15 12/11/11 15/13/13 14/18/16
f 7/7/7 11/12/12 12/11/11
f 12/11/11 13/17/15 8/8/8
f 8/8/8 13/17/15 4/1/1
f 4/1/1 13/17/15 14/18/16 6/6/6
f 15/13/13 6/6/6 14/18/16
f 11/12/12 16/19/17 15/13/13
f 16/19/17 1/4/4 15/13/13
f 4/1/1 3/3/3 10/10/10 8/8/8
f 9/20/9 10/14/10 68/16/14 67/21/18
usemtl Walls.007
f 24/22/19 25/23/20 3/15/3
f 25/23/20 31/24/21 32/25/22
f 28/26/23 27/27/24 33/28/25
f 32/25/22 34/29/26 19/30/27
f 32/25/22 36/31/28 34/29/26
f 33/28/25 37/32/29 38/33/30
f 33/28/25 38/33/30 39/34/31
f 29/35/32 23/36/33 39/34/31
f 7/37/7 42/38/34 11/39/12
f 42/38/34 46/40/35 41/41/36
f 43/42/37 48/43/38 44/44/39
f 45/45/40 52/46/41 46/40/35
f 51/47/42 54/48/43 49/49/44
f 51/47/42 59/50/45 54/48/43
f 29/35/32 40/51/46 30/52/47
f 36/31/28 32/25/22 31/24/21
f 19/30/27 35/53/48 20/54/49
f 37/32/29 33/28/25 27/27/24
f 65/55/50 62/56/51 64/57/52
f 64/57/52 55/58/53 57/59/54
f 65/55/50 54/48/43 59/50/45
f 34/29/26 60/60/55 35/53/48
f 34/29/26 36/31/28 60/60/55
f 40/51/46 38/33/30 63/61/56
f 38/33/30 37/32/29 63/61/56
f 40/51/46 65/55/50 59/50/45
f 21/62/57 9/20/9 67/21/18
f 20/54/49 17/63/58 18/64/59 19/30/27
f 28/26/23 16/65/17 26/66/60 27/27/24
f 21/62/57 18/64/59 17/63/58
f 17/63/58 7/37/7 9/20/9 21/62/57
f 22/67/61 2/68/5 1/69/4 23/36/33
f 16/65/17 11/39/12 26/66/60
f 3/15/3 5/70/2 24/22/19
f 30/52/47 22/67/61 23/36/33 29/35/32
f 40/51/46 29/35/32 39/34/31 38/33/30
f 19/30/27 34/29/26 35/53/48
f 68/16/14 66/71/62 18/64/59 67/21/18
f 66/71/62 32/25/22 19/30/27 18/64/59
f 44/44/39 5/70/2 2/68/5 43/42/37
f 11/39/12 42/38/34 41/41/36
f 49/49/44 48/43/38 47/72/63 51/47/42
f 42/38/34 45/45/40 46/40/35
f 43/42/37 47/72/63 48/43/38
f 48/43/38 49/49/44 50/73/64
f 55/58/53 56/74/65 53/75/66 52/46/41
f 46/40/35 52/46/41 53/75/66
f 58/76/67 50/73/64 49/49/44 54/48/43
f 52/46/41 57/59/54 55/58/53
f 25/23/20 24/22/19 44/44/39 48/43/38
f 44/44/39 24/22/19 5/70/2
f 50/73/64 31/24/21 25/23/20 48/43/38
f 22/67/61 30/52/47 51/47/42 47/72/63
f 2/68/5 22/67/61 43/42/37
f 22/67/61 47/72/63 43/42/37
f 27/27/24 26/66/60 41/41/36 46/40/35
f 41/41/36 26/66/60 11/39/12
f 17/63/58 20/54/49 52/46/41 45/45/40
f 27/27/24 46/40/35 53/75/66
f 7/37/7 17/63/58 42/38/34
f 17/63/58 45/45/40 42/38/34
f 30/52/47 40/51/46 59/50/45 51/47/42
f 58/76/67 36/31/28 31/24/21 50/73/64
f 20/54/49 35/53/48 57/59/54 52/46/41
f 56/74/65 37/32/29 27/27/24 53/75/66
f 55/58/53 64/57/52 62/56/51 56/74/65
f 61/77/68 65/55/50 64/57/52
f 65/55/50 40/51/46 63/61/56 62/56/51
f 61/77/68 58/76/67 65/55/50
f 54/48/43 65/55/50 58/76/67
f 64/57/52 35/53/48 60/60/55 61/77/68
f 63/61/56 37/32/29 62/56/51
f 60/60/55 36/31/28 61/77/68
f 36/31/28 58/76/67 61/77/68
f 64/57/52 57/59/54 35/53/48
f 37/32/29 56/74/65 62/56/51
f 3/15/3 25/23/20 66/71/62 68/16/14
f 21/62/57 67/21/18 18/64/59
f 32/25/22 66/71/62 25/23/20
