# Blender v2.78 (sub 0) OBJ File: 'Mesh_Dungeon_Platform2_lod0.blend'
# www.blender.org
mtllib Mesh_CavePack_Platform2_lod0.mtl
o Circle
v 5.100356 1.249902 -5.193871
v 4.273578 1.374406 -6.975585
v 2.303768 1.044289 -7.365038
v 0.081698 1.482827 -6.327573
v 3.303020 4.604222 3.176394
v 3.219594 4.604222 4.747361
v 1.570015 4.635843 6.036053
v 0.019650 4.714894 6.002923
v -1.559059 4.235902 6.853248
v 5.118069 1.747958 -0.795711
v 6.078075 1.385007 -1.990664
v 5.830653 1.124251 -3.730716
v 4.631858 0.295081 -4.859158
v 3.955281 0.295081 -6.337459
v 2.325405 0.295081 -6.604153
v 0.804695 0.295081 -5.965637
v -3.080920 4.263148 6.044900
v -3.732865 4.539904 4.293104
v 3.986884 4.539904 3.076732
v 3.909208 4.309447 5.092806
v 2.055965 4.235902 6.615932
v 4.308554 0.295081 -1.090776
v 5.550725 0.295081 -2.116818
v 5.471037 0.295081 -3.666239
v 5.010802 2.063775 -5.115662
v 4.212736 2.326746 -6.859411
v 2.345105 2.255576 -7.228877
v 0.496420 2.838125 -6.420825
v 0.138702 4.235902 6.574963
v -1.402727 0.295080 6.355262
v -2.832208 0.295080 5.752239
v -3.214894 0.295080 4.187215
v 2.699319 0.295080 3.156012
v 4.629445 3.437702 -0.670615
v 5.922488 2.494842 -2.020379
v 6.000669 1.809722 -3.708538
v 4.534435 2.345924 -4.793213
v 3.889092 2.422685 -6.203271
v 2.334457 2.550351 -6.457654
v 0.883950 2.902443 -5.848614
v 2.611856 0.295080 4.803011
v 1.661985 0.295080 6.154072
v 0.036586 0.295080 6.119341
v -1.511685 1.960357 7.055873
v -3.172143 1.724997 6.527442
v 4.226057 3.502021 -1.198794
v 5.410884 2.835916 -2.177470
v 5.334875 2.134283 -3.655364
v 2.485657 3.046942 -3.340817
v 4.953773 -0.147870 -5.077060
v 4.173991 -0.147870 -6.780862
v 2.295492 -0.147870 -7.088238
v 0.542813 -0.147870 -6.352323
v -3.861859 2.176204 4.502621
v 3.628109 2.082532 2.888454
v 3.356911 2.080935 5.139413
v 2.102551 2.129456 7.074631
v 0.116315 2.129456 7.032188
v 4.581153 -0.147870 -0.733846
v 6.012805 -0.147870 -1.916401
v 5.920964 -0.147870 -3.702172
v -3.081731 4.604222 4.159993
v -2.716710 4.604222 5.652769
v -1.353219 4.604222 6.227954
v -0.395569 4.743950 3.526123
v 0.092549 -0.147870 6.504021
v 1.965888 -0.147870 6.544052
v 3.060652 -0.147870 4.986897
v 3.161456 -0.147870 3.088663
v -3.654915 -0.147870 4.277169
v -3.213853 -0.147870 6.080922
v -1.566318 -0.147870 6.775930
v -2.351388 1.941992 -3.583248
v 4.463374 1.618652 -0.069778
v -1.546126 0.295080 -3.480406
v 3.529461 0.295080 -0.274208
v -2.002539 3.348403 -3.786865
v 4.263636 3.667328 -0.004951
v -1.428788 3.412722 -3.401619
v 3.412491 3.731646 -0.343431
v 0.996109 3.779557 -1.676978
v -1.933852 -0.147870 -3.740745
v 3.915970 -0.147870 -0.045471
v -3.662456 2.163656 -0.903665
v 3.714313 1.826098 0.691505
v -2.871138 0.295080 -1.065569
v 2.892366 0.295080 0.614703
v -3.467128 3.603258 -1.171688
v 4.147560 3.927570 0.747880
v -2.809317 3.667576 -0.959820
v 3.504391 3.991888 0.580464
v 0.070191 4.131832 -0.034116
v -3.315670 -0.147870 -1.208743
v 3.327003 -0.147870 0.727839
v -4.066531 2.163656 1.907858
v 3.362772 2.176204 1.717590
v -3.333513 0.295080 1.568620
v 2.661798 0.295080 1.880933
v -3.881509 4.007800 1.524709
v 3.933901 4.356204 1.893103
v -3.192628 4.072118 1.579909
v 3.269476 4.420522 1.877805
v -0.233952 4.514449 1.897308
v -3.799040 -0.147870 1.531319
v 3.110800 -0.147870 1.891272
vt -0.2561 -0.3051
vt 0.0038 -0.1816
vt -0.3796 0.3791
vt -0.7365 0.0947
vt -0.8940 0.2932
vt -0.9200 0.5586
vt -0.7198 0.7507
vt -0.6047 -0.1533
vt -0.6660 -0.2985
vt -0.2520 -0.4570
vt -1.0312 0.2679
vt -0.8456 0.0075
vt 1.6522 0.9349
vt 1.3319 1.1534
vt 1.2754 1.0382
vt 1.5176 0.8633
vt 0.7779 -0.0457
vt 1.1486 -0.1342
vt 1.1034 -0.0278
vt 0.8187 0.0699
vt -1.0328 0.5857
vt 1.4571 -0.0024
vt 1.3721 0.1054
vt 1.5730 0.2975
vt 1.7638 0.6010
vt 1.6274 0.5903
vt 1.4670 0.3496
vt -0.8013 0.8437
vt 0.0810 -0.2842
vt 1.0220 0.5452
vt 0.6713 1.3101
vt 0.6605 1.1819
vt 0.5940 0.6302
vt 0.6035 0.1205
vt 0.6307 -0.0481
vt 0.1381 1.1839
vt 0.2402 0.6280
vt 0.4558 0.0201
vt 0.4902 -0.0988
vt 0.1138 1.3101
vt -0.3107 1.0123
vt -0.1029 0.4995
vt 0.2129 -0.0609
vt 0.2714 -0.1695
vt -0.3636 1.1293
vt 0.0128 0.6619
vt -0.2091 0.7206
vt -0.2389 0.5411
vt 0.0105 0.5354
vt 0.4704 0.6914
vt 0.2292 0.6678
vt 0.2142 0.5327
vt 0.4545 0.5069
vt -1.2509 0.7280
vt -1.5304 0.7579
vt -1.5387 0.6536
vt -1.2604 0.6365
vt 3.1230 0.8306
vt 2.9271 0.7707
vt 2.9389 0.6856
vt 3.1451 0.7621
vt 0.6983 0.6528
vt 0.7116 0.5275
vt -1.7750 0.8425
vt -1.7951 0.7688
vt 2.6775 0.7125
vt 2.6949 0.6112
vt 0.9792 0.7105
vt 0.9402 0.5334
vt -0.3946 0.7889
vt -0.4709 0.5944
vt 2.4246 0.6863
vt 2.4344 0.6055
vt -1.0163 0.6943
vt -1.0166 0.6133
vt 0.0095 0.7559
vt -0.1973 0.8600
vt 0.4669 0.8042
vt 0.2294 0.7758
vt 0.6930 0.7994
vt 0.9294 0.8690
vt -0.4142 1.0118
vt 2.4039 0.9456
vt 2.6635 0.9478
vt 2.5665 1.2421
vt 2.3316 1.2304
vt -1.2078 1.0057
vt -0.9248 0.9398
vt -0.8638 1.2475
vt -1.1191 1.2860
vt -1.4795 1.0625
vt -1.4195 1.3113
vt 2.8585 1.0236
vt 3.0564 1.0991
vt 2.9826 1.3630
vt 2.7748 1.2947
vt -1.7118 1.1018
vt -1.6522 1.3630
vt 0.7183 0.4423
vt 0.9469 0.4567
vt -0.4937 0.5213
vt -0.2517 0.4430
vt -0.0018 0.4512
vt 0.2128 0.4622
vt 0.4665 0.4111
vt 1.3777 0.5657
vt 1.4041 0.7884
vt 1.3464 0.9526
vt 1.3859 0.4907
vt -0.5178 0.7943
vt -0.6017 0.6197
vt -0.5063 1.0522
vt -0.6083 0.5451
vt -0.6489 0.8357
vt -0.7189 0.6436
vt 1.7326 0.5988
vt 1.7527 0.8513
vt 1.7426 0.5171
vt -0.5926 1.1018
vt -0.7245 0.5719
vt 1.6946 1.0181
vt 2.0912 0.8954
vt 2.0105 1.1106
vt -0.7774 0.9019
vt -0.8592 0.6727
vt 2.0805 0.6400
vt 2.0897 0.5615
vt -0.7252 1.1834
vt -0.8681 0.5954
vn 0.1755 0.9748 0.1376
vn 0.1031 0.9934 -0.0499
vn -0.0302 0.9966 -0.0761
vn 0.0133 0.9545 0.2980
vn -0.0560 0.9382 0.3413
vn -0.1795 0.9596 0.2168
vn -0.1414 0.9889 -0.0450
vn 0.0862 0.9436 0.3195
vn 0.3427 0.5133 0.7868
vn 0.8085 0.4546 0.3736
vn -0.1455 0.5048 0.8509
vn 0.0341 0.5395 0.8413
vn -0.0399 0.5618 -0.8263
vn -0.3151 0.6599 -0.6821
vn 0.1070 0.9719 -0.2098
vn 0.1180 0.9664 -0.2284
vn 0.6685 0.6991 0.2537
vn 0.8525 0.5088 0.1198
vn 0.3873 0.8773 -0.2834
vn 0.2509 0.9424 -0.2211
vn -0.6099 0.5304 0.5888
vn 0.8732 0.3855 -0.2981
vn 0.3869 0.8880 -0.2485
vn 0.7428 0.5875 -0.3212
vn 0.5036 0.6059 -0.6159
vn 0.2106 0.9671 -0.1425
vn 0.3390 0.9376 -0.0772
vn -0.7334 0.6695 0.1180
vn 0.7973 0.6014 -0.0507
vn 0.1604 0.9619 -0.2212
vn -0.5355 0.6921 -0.4839
vn 0.0049 0.9857 -0.1686
vn 0.0584 0.9760 -0.2098
vn 0.1380 0.9652 -0.2220
vn 0.6883 0.6980 0.1971
vn -0.0679 0.9845 -0.1616
vn -0.0161 0.9794 -0.2013
vn 0.1204 0.9575 -0.2619
vn 0.8064 0.5859 0.0796
vn -0.6841 0.6595 -0.3115
vn -0.0967 0.9790 -0.1796
vn -0.0380 0.9822 -0.1837
vn 0.0722 0.9759 -0.2059
vn 0.7672 0.6245 -0.1460
vn -0.7276 0.6707 -0.1439
vn 0.9251 -0.2432 -0.2915
vn 0.9240 -0.1985 0.3267
vn 0.8932 0.2266 0.3883
vn 0.9284 0.1722 -0.3291
vn 0.6005 -0.2033 -0.7733
vn 0.8614 -0.2175 -0.4591
vn 0.8656 0.1105 -0.4884
vn 0.6580 0.1235 -0.7428
vn 0.9241 0.2108 0.3186
vn 0.4228 0.2016 0.8835
vn 0.3228 0.7404 0.5895
vn 0.6364 0.7380 0.2244
vn 0.0572 0.1319 0.9896
vn -0.0889 0.1754 0.9804
vn -0.1026 0.7046 0.7020
vn 0.0508 0.6585 0.7508
vn -0.1096 -0.2930 -0.9498
vn -0.1349 0.0952 -0.9863
vn -0.7488 0.2456 0.6155
vn -0.5023 0.7509 0.4287
vn -0.6116 -0.1963 -0.7664
vn -0.5862 0.1388 -0.7982
vn 0.7556 -0.1354 0.6408
vn 0.6950 0.1423 0.7048
vn -0.9641 0.2246 0.1414
vn -0.6915 0.7151 0.1025
vn 0.9825 0.1859 -0.0030
vn 0.6956 0.7184 0.0038
vn -0.9746 -0.1184 0.1899
vn -0.6894 -0.1831 0.7008
vn 0.8910 -0.2683 0.3663
vn 0.9513 -0.3067 -0.0315
vn 0.4084 -0.1723 0.8964
vn -0.1317 -0.1473 0.9803
vn 0.0364 -0.1231 0.9917
vn -0.0751 0.7380 -0.6706
vn -0.3903 0.7264 -0.5657
vn 0.4812 0.7089 0.5156
vn 0.6047 0.7509 0.2654
vn 0.6767 0.7046 -0.2133
vn 0.6538 0.6585 -0.3727
vn 0.3901 0.7404 -0.5473
vn -0.8022 0.1947 -0.5643
vn -0.8234 -0.1491 -0.5474
vn -0.5590 0.7233 -0.4053
vn 0.7634 -0.2620 0.5903
vn 0.7471 0.1350 0.6508
vn 0.5419 0.7027 0.4610
vn 0.8433 -0.2991 0.4465
vn 0.8853 0.1647 0.4349
vn -0.9196 0.2303 -0.3184
vn -0.9480 -0.1346 -0.2884
vn -0.6483 0.7270 -0.2261
vn 0.6391 0.7125 0.2897
vn -0.9898 -0.1385 -0.0340
vn 0.9456 -0.3086 0.1030
vn 0.9804 0.1841 0.0696
vn -0.9720 0.2272 -0.0591
vn -0.6910 0.7215 -0.0436
vn 0.6967 0.7154 0.0530
usemtl Ground
s 1
f 6/1/1 5/2/2 65/3/3
f 8/4/4 65/3/3 64/5/5
f 63/6/6 64/5/5 65/3/3
f 63/6/6 65/3/3 62/7/7
f 7/8/8 65/3/3 8/4/4
f 7/8/8 6/1/1 65/3/3
f 21/9/9 20/10/10 6/1/1 7/8/8
f 9/11/11 29/12/12 8/4/4 64/5/5
f 27/13/13 28/14/14 40/15/15 39/16/16
f 34/17/17 35/18/18 47/19/19 46/20/20
f 29/12/12 21/9/9 7/8/8 8/4/4
f 17/21/21 9/11/11 64/5/5 63/6/6
f 35/18/18 36/22/22 48/23/23 47/19/19
f 25/24/24 26/25/25 38/26/26 37/27/27
f 18/28/28 17/21/21 63/6/6 62/7/7
f 20/10/10 19/29/29 5/2/2 6/1/1
f 36/22/22 25/24/24 37/27/27 48/23/23
f 26/25/25 27/13/13 39/16/16 38/26/26
f 38/26/26 39/16/16 49/30/30
f 38/26/26 49/30/30 37/27/27
f 47/19/19 49/30/30 46/20/20
f 47/19/19 48/23/23 49/30/30
f 37/27/27 49/30/30 48/23/23
f 39/16/16 40/15/15 49/30/30
f 40/15/15 28/14/14 77/31/31 79/32/32
f 49/30/30 40/15/15 79/32/32 81/33/33
f 46/20/20 49/30/30 81/33/33 80/34/34
f 34/17/17 46/20/20 80/34/34 78/35/35
f 81/33/33 79/32/32 90/36/36 92/37/37
f 78/35/35 80/34/34 91/38/38 89/39/39
f 79/32/32 77/31/31 88/40/40 90/36/36
f 80/34/34 81/33/33 92/37/37 91/38/38
f 92/37/37 90/36/36 101/41/41 103/42/42
f 89/39/39 91/38/38 102/43/43 100/44/44
f 90/36/36 88/40/40 99/45/45 101/41/41
f 91/38/38 92/37/37 103/42/42 102/43/43
f 62/7/7 101/41/41 99/45/45 18/28/28
f 65/3/3 103/42/42 101/41/41 62/7/7
f 65/3/3 5/2/2 102/43/43 103/42/42
f 5/2/2 19/29/29 100/44/44 102/43/43
usemtl Wall
f 12/46/46 11/47/47 23/48/48 24/49/49
f 2/50/50 1/51/51 13/52/52 14/53/53
f 41/54/54 42/55/55 67/56/56 68/57/57
f 43/58/58 30/59/59 72/60/60 66/61/61
f 1/51/51 12/46/46 24/49/49 13/52/52
f 3/62/62 2/50/50 14/53/53 15/63/63
f 42/55/55 43/64/58 66/65/61 67/56/56
f 30/59/59 31/66/64 71/67/65 72/60/60
f 4/68/66 3/62/62 15/63/63 16/69/67
f 11/47/47 10/70/68 22/71/69 23/48/48
f 31/66/64 32/72/70 70/73/71 71/67/65
f 33/74/72 41/54/54 68/57/57 69/75/73
f 11/47/47 12/46/46 36/76/22 35/77/18
f 1/51/51 2/50/50 26/78/25 25/79/24
f 12/46/46 1/51/51 25/79/24 36/76/22
f 2/50/50 3/62/62 27/80/13 26/78/25
f 3/62/62 4/68/66 28/81/14 27/80/13
f 10/70/68 11/47/47 35/77/18 34/82/17
f 54/83/74 45/84/75 17/85/21 18/86/28
f 56/87/76 55/88/77 19/89/29 20/90/10
f 57/91/78 56/87/76 20/90/10 21/92/9
f 44/93/79 58/94/80 29/95/12 9/96/11
f 58/97/80 57/91/78 21/92/9 29/98/12
f 45/84/75 44/93/79 9/96/11 17/85/21
f 45/84/75 54/83/74 32/72/70 31/66/64
f 16/69/67 15/63/63 52/99/81 53/100/82
f 23/48/48 22/71/69 59/101/83 60/102/84
f 55/88/77 56/87/76 41/54/54 33/74/72
f 56/87/76 57/91/78 42/55/55 41/54/54
f 24/49/49 23/48/48 60/102/84 61/103/85
f 14/53/53 13/52/52 50/104/86 51/105/87
f 58/94/80 44/93/79 30/59/59 43/58/58
f 57/91/78 58/97/80 43/64/58 42/55/55
f 13/52/52 24/49/49 61/103/85 50/104/86
f 15/63/63 14/53/53 51/105/87 52/99/81
f 44/93/79 45/84/75 31/66/64 30/59/59
f 4/68/66 16/69/67 75/106/88 73/107/89
f 28/81/14 4/68/66 73/107/89 77/108/31
f 16/69/67 53/100/82 82/109/90 75/106/88
f 22/71/69 10/70/68 74/110/91 76/111/92
f 10/70/68 34/82/17 78/112/35 74/110/91
f 59/101/83 22/71/69 76/111/92 83/113/93
f 76/111/92 74/110/91 85/114/94 87/115/95
f 73/107/89 75/106/88 86/116/96 84/117/97
f 75/106/88 82/109/90 93/118/98 86/116/96
f 74/110/91 78/112/35 89/119/39 85/114/94
f 83/113/93 76/111/92 87/115/95 94/120/99
f 77/108/31 73/107/89 84/117/97 88/121/40
f 88/121/40 84/117/97 95/122/100 99/123/45
f 87/115/95 85/114/94 96/124/101 98/125/102
f 84/117/97 86/116/96 97/126/103 95/122/100
f 86/116/96 93/118/98 104/127/104 97/126/103
f 85/114/94 89/119/39 100/128/44 96/124/101
f 94/120/99 87/115/95 98/125/102 105/129/105
f 32/72/70 97/126/103 104/127/104 70/73/71
f 54/83/74 95/122/100 97/126/103 32/72/70
f 18/86/28 99/123/45 95/122/100 54/83/74
f 19/89/29 55/88/77 96/124/101 100/128/44
f 55/88/77 33/74/72 98/125/102 96/124/101
f 69/75/73 105/129/105 98/125/102 33/74/72
