# Blender v2.78 (sub 0) OBJ File: ''
# www.blender.org
mtllib Mesh_CavePack_Stalagmite_lod2.mtl
o Circle
v 0.810830 -0.004801 -1.271124
v 1.694915 -0.000279 -0.911939
v 1.235834 -0.000659 -0.442774
v 1.438410 -0.001429 -1.411941
v 0.744018 -0.010030 -0.742151
v 1.095301 5.105669 -1.075664
v -0.956429 0.000000 -0.206504
v -0.035396 0.000000 -0.443584
v -0.350650 0.000000 -0.939675
v -1.081235 1.390100 -0.189359
v -0.497626 -0.005680 0.028219
v -0.396574 1.283275 -0.366342
v -1.008081 -0.004568 -0.757427
v -0.632482 1.476303 -0.722966
v -0.247960 4.482662 -0.488225
v 0.014483 0.000000 1.180658
v 0.594382 0.000502 1.360114
v 0.924768 0.000000 0.905177
v 0.588995 0.000000 0.422737
v 0.051383 0.000008 0.582579
v -0.033218 2.498266 1.079385
v 0.392520 2.987652 1.175692
v 0.315988 3.482293 0.942280
vt 0.2443 0.0151
vt 0.2090 0.7155
vt 0.1321 0.0191
vt 0.5855 0.9868
vt 0.4735 0.9839
vt 0.5856 0.0148
vt 0.0784 0.2588
vt 0.1383 0.7292
vt 0.0139 0.0182
vt -0.1754 0.1442
vt -0.2005 0.5916
vt -0.2576 0.8676
vt 1.0404 0.5280
vt 1.0355 0.0231
vt 1.1477 0.0148
vt 0.4696 0.9800
vt 0.5706 0.3283
vt 0.5817 0.9883
vt 0.9599 0.3142
vt 1.0296 0.3700
vt 0.9230 0.7899
vt 0.9725 0.0148
vt -0.1218 0.0150
vt -0.0095 0.0171
vt -0.1391 0.2732
vt 0.2491 0.9851
vt 0.3504 0.0603
vt 0.3611 0.9902
vt 0.6976 0.0159
vt 0.7083 1.0372
vt 0.5856 0.0219
vt 0.6978 0.0166
vt 0.8103 0.0165
vt 0.8084 0.2733
vt 0.7274 0.8555
vt -0.0238 0.8497
vt 0.8103 0.8655
vt 0.8168 0.5849
vt 0.8983 0.6207
vt 0.9230 0.8655
vt 0.2449 0.9795
vt 0.2769 0.5651
vt 0.3571 0.9878
vt 1.0355 0.7882
vt 0.4775 0.5788
vt 0.4734 0.9890
vt 0.3612 0.9894
vt 0.4117 0.0184
vt -0.1447 0.8692
vt 0.1269 0.0148
vt 1.1944 0.1314
vt 1.2393 0.3656
vt 1.2602 0.7896
vt 1.1477 0.7896
vt 0.8827 0.0539
vn -0.2189 0.0495 -0.9745
vn -0.5191 0.0910 0.8499
vn 0.9921 -0.0416 0.1183
vn -0.3966 0.1218 -0.9099
vn 0.8059 0.0906 0.5851
vn -0.2829 0.1198 -0.9516
vn -0.2656 0.0415 0.9632
vn -0.5219 0.2966 0.7998
vn -0.4554 -0.0518 0.8888
vn 0.7107 0.1058 0.6955
vn -0.9904 0.0599 -0.1245
vn -0.9915 -0.0902 0.0937
vn -0.8301 0.1724 -0.5302
vn -0.0852 0.1186 0.9893
vn 0.8383 0.2471 -0.4859
vn -0.9979 -0.0215 -0.0616
vn -0.2955 0.0331 0.9548
vn -0.6511 0.1268 -0.7484
vn 0.8861 0.0895 -0.4548
vn -0.2666 0.0900 -0.9596
vn 0.7046 0.1566 0.6921
vn 0.8993 0.1616 -0.4063
vn 0.8173 -0.0598 -0.5730
usemtl None
s off
f 1/1/1 6/2/1 4/3/1
f 5/4/2 3/5/2 6/6/2
f 12/7/3 15/8/3 11/9/3
f 15/10/4 14/11/4 13/12/4
f 22/13/5 17/14/5 18/15/5
f 20/16/6 23/17/6 19/18/6
f 22/19/7 21/20/7 17/21/7
f 21/20/8 22/19/8 23/22/8
f 7/23/9 11/24/9 10/25/9
f 2/26/10 6/27/10 3/28/10
f 5/29/11 6/30/11 1/31/11
f 13/32/12 7/33/12 10/34/12
f 10/34/13 15/35/13 13/32/13
f 11/24/14 15/36/14 10/25/14
f 9/37/15 14/38/15 12/39/15 8/40/15
f 16/41/16 21/42/16 20/43/16
f 17/21/17 21/20/17 16/44/17
f 20/16/18 21/45/18 23/17/18
f 2/46/19 4/47/19 6/48/19
f 14/11/20 9/49/20 13/12/20
f 11/9/21 8/50/21 12/7/21
f 23/51/22 22/52/22 18/53/22 19/54/22
f 15/55/23 12/39/23 14/38/23
