# Blender v2.78 (sub 0) OBJ File: 'Mesh_Dungeon_Small_RoomSquare_lod0.blend'
# www.blender.org
mtllib Mesh_CavePack_Pillar1_lod2.mtl
o Circle_Circle.003
v 1.611074 2.423511 1.001980
v -0.399081 2.656306 1.308459
v -1.057665 3.507049 0.046551
v -0.529468 3.777526 -1.329533
v 0.684667 3.765279 -0.506293
v 0.598515 4.032038 0.591883
v -0.508187 4.327538 0.666000
v -0.540579 12.024489 0.443051
v 0.934833 12.356030 0.148955
v -0.374567 8.628673 -0.475116
v 0.065434 11.374138 0.570506
v 0.551061 10.874500 -0.758755
v 1.329867 13.526546 -1.273836
v -0.829340 12.447988 -1.152257
v 0.062556 14.767916 2.804948
v -1.947218 16.700468 3.391875
v 1.916272 16.697529 3.451768
v 3.452349 16.710413 1.936322
v -2.854630 14.550523 0.530199
v -3.445004 16.703308 1.980269
v -3.801999 16.792210 0.000997
v 2.817794 14.666246 -0.715978
v 3.403520 16.769516 -1.965020
v 3.801439 16.792210 0.000997
v 0.000000 16.820976 3.903340
v -3.550207 16.710791 -1.999187
v -1.904241 16.769051 -3.203531
v 0.029718 16.756451 -4.053005
v 1.903681 16.769051 -3.203530
v 2.293773 -0.476033 2.974000
v -0.001125 -0.562445 3.892812
v -3.429183 -0.614420 -1.978866
v -3.756392 -0.643517 0.005511
v 3.582119 -0.785056 0.093569
v 3.303681 -0.761762 1.907381
v -1.924579 -0.477039 3.187874
v -3.331472 -0.737909 1.929283
v -0.021431 -0.644604 -3.858978
v -1.884662 -0.644098 -3.168978
v 1.878319 -0.666382 -3.187176
v 3.308264 -0.731024 -1.902662
v 1.723477 2.383815 -0.412734
vt 0.6244 0.8349
vt 0.8494 1.1420
vt 0.0720 1.3437
vt -0.2937 0.4617
vt 1.3738 0.6082
vt -0.4201 0.8073
vt 2.1047 0.1894
vt 2.4418 0.5132
vt -0.4805 2.0453
vt -0.8077 1.7836
vt -0.2489 1.2406
vt -0.6827 0.3580
vt -1.4530 0.4013
vt -1.4205 -0.0161
vt -1.4476 0.7954
vt 2.0565 1.0194
vt 1.2056 0.3006
vt 1.3243 -0.0389
vt 1.3003 1.1685
vt -0.2361 0.0441
vt 0.8850 -0.2103
vt -0.5997 -0.2802
vt -0.3271 -0.4921
vt -0.0421 -0.3038
vt 1.2003 -0.5093
vt 2.2526 1.2462
vt 2.4174 0.8915
vt 1.8199 -0.8338
vt 1.5400 -0.6907
vt 1.4836 -1.0315
vt 2.4399 0.1231
vt -0.7100 -0.9399
vt -1.1909 -0.3893
vt -1.0258 -0.7142
vt -1.0992 1.5232
vt -0.3600 -1.1016
vt 0.0050 -1.1010
vt -0.0183 -0.4991
vt -1.2969 1.1676
vt 1.7243 1.8092
vt 1.3671 2.0137
vt 2.1192 -0.5790
vt 2.0370 1.5773
vt 2.2923 -0.2383
vt 0.9803 1.5529
vt 0.9608 2.0397
vt -0.0655 2.1267
vt 1.1127 -1.0751
vn -0.6152 0.0086 -0.7883
vn 0.6152 -0.1653 -0.7709
vn 0.7875 0.3367 -0.5163
vn -0.4181 0.1213 0.9003
vn -0.7954 -0.3963 0.4586
vn -0.9106 0.3710 0.1823
vn 0.0372 -0.5886 0.8076
vn -0.4132 -0.5433 0.7308
vn 0.0143 0.4977 -0.8672
vn -0.4314 0.4560 -0.7784
vn -0.2573 0.4946 -0.8302
vn -0.2100 0.5371 0.8170
vn -0.4454 0.6100 0.6554
vn 0.0068 0.6160 0.7878
vn -0.7092 0.5800 0.4008
vn -0.7941 -0.5748 0.1976
vn 0.1226 -0.1241 0.9847
vn 0.8528 -0.4055 0.3291
vn -0.5225 -0.5149 -0.6796
vn 0.6677 0.3313 0.6667
vn 0.6645 0.5844 0.4658
vn 0.7741 0.5604 -0.2944
vn 0.5199 -0.5628 -0.6426
vn -0.9217 -0.3878 0.0075
vn -0.7359 -0.5053 0.4506
vn 0.9062 -0.4228 0.0104
vn 0.7985 -0.5626 -0.2139
vn 0.7430 -0.4686 -0.4779
vn -0.0142 -0.4720 0.8815
vn 0.8379 0.5368 0.0993
vn 0.5241 0.6331 0.5697
vn 0.3059 0.9514 0.0347
vn -0.7373 0.5351 -0.4124
vn 0.7450 0.5641 -0.3559
vn 0.4645 0.5468 -0.6966
vn -0.8379 0.5444 0.0402
vn -0.4341 -0.4722 -0.7672
vn 0.0204 -0.5420 -0.8401
vn 0.7291 -0.5543 0.4014
vn -0.7411 -0.5158 -0.4297
vn 0.4126 -0.5573 0.7205
vn 0.4600 -0.5201 -0.7196
usemtl None
s 1
f 10/1/1 12/2/2 5/3/3
f 7/4/4 8/5/5 3/6/6
f 15/7/7 16/8/8 8/5/5
f 38/9/9 39/10/10 4/11/11
f 2/12/12 36/13/13 31/14/14
f 2/12/12 3/6/6 37/15/15
f 8/5/5 16/8/8 19/16/16
f 11/17/17 9/18/18 15/7/7
f 8/5/5 14/19/19 10/1/1
f 11/17/17 8/5/5 7/4/4
f 6/20/20 12/21/2 9/18/18
f 4/11/11 10/1/1 5/3/3
f 4/11/11 3/6/6 10/1/1
f 1/22/21 6/20/20 2/12/12
f 1/22/21 42/23/22 6/20/20
f 7/4/4 2/12/12 6/20/20
f 6/20/20 5/24/3 12/21/2
f 6/20/20 11/17/17 7/4/4
f 10/1/1 3/6/6 8/5/5
f 10/1/1 14/19/19 12/2/2
f 13/25/23 9/18/18 12/21/2
f 21/26/24 19/16/16 20/27/25
f 24/28/26 22/29/27 23/30/28
f 16/8/8 15/7/7 25/31/29
f 34/32/30 30/33/31 35/34/32
f 39/10/10 32/35/33 4/11/11
f 41/36/34 40/37/35 4/38/11 42/23/22
f 2/12/12 37/15/15 36/13/13
f 37/15/15 3/6/6 33/39/36
f 27/40/37 28/41/38 14/19/19
f 24/28/26 18/42/39 22/29/27
f 18/42/39 9/18/18 22/29/27
f 21/26/24 26/43/40 19/16/16
f 17/44/41 15/7/7 9/18/18
f 17/44/41 9/18/18 18/42/39
f 11/17/17 15/7/7 8/5/5
f 2/12/12 7/4/4 3/6/6
f 42/23/22 5/24/3 6/20/20
f 4/38/11 5/24/3 42/23/22
f 32/35/33 3/6/6 4/11/11
f 13/45/23 12/2/2 14/19/19
f 26/43/40 27/40/37 14/19/19
f 29/46/42 13/45/23 28/41/38
f 33/39/36 3/6/6 32/35/33
f 40/47/35 38/9/9 4/11/11
f 42/23/22 1/22/21 34/32/30 41/36/34
f 2/12/12 31/14/14 30/33/31 1/22/21
f 30/33/31 34/32/30 1/22/21
f 22/29/27 13/25/23 29/48/42 23/30/28
f 19/16/16 26/43/40 14/19/19 8/5/5
f 13/45/23 14/19/19 28/41/38
f 16/8/8 20/27/25 19/16/16
f 22/29/27 9/18/18 13/25/23
f 17/44/41 25/31/29 15/7/7
f 11/17/17 6/20/20 9/18/18
