# Blender v2.78 (sub 0) OBJ File: 'Mesh_Dungeon_RoomSquareTurn90_lod0.blend'
# www.blender.org
mtllib Mesh_CavePack_RoomSquareTurn90_lod0.mtl
o Plane.002_Plane.007
v -7.978287 0.000000 -5.885419
v 5.863705 0.000000 8.000000
v 4.821714 0.000000 -8.021713
v 1.621714 0.000000 -8.021713
v -1.578286 0.000000 -8.021713
v -4.778286 0.000000 -8.021714
v -7.978287 0.000000 -3.674661
v 3.652946 0.000000 8.000000
v 8.000000 0.000000 4.800000
v 8.000000 0.000000 1.600000
v 8.000000 0.000000 -1.600000
v -4.778286 0.000000 -4.821714
v -1.578286 0.000000 -4.821714
v 1.621714 0.106286 -4.821713
v 4.821714 0.000000 -4.821713
v 4.800000 0.106286 4.800000
v 4.800000 0.000000 1.600000
v 4.800000 0.106286 -1.600000
v -4.778286 6.000000 -7.125790
v -1.578286 6.000000 -8.021713
v 1.621714 6.000000 -8.021713
v 4.821714 6.000000 -7.125790
v 6.169436 6.000000 6.947489
v -6.925776 6.000000 -6.191151
v -7.978287 4.000000 -7.125790
v 7.104076 4.000000 8.000000
v 4.821714 4.000000 -8.021713
v -4.778286 4.000000 -8.021714
v 8.000000 4.000000 4.800000
v 8.000000 4.000000 -4.800000
v 8.000000 2.000000 4.800000
v -4.778286 2.000000 -8.021714
v 7.104076 2.000000 8.000000
v -7.978287 2.000000 -7.125790
v 7.104076 6.000000 4.800000
v 8.000000 6.000000 1.600000
v 8.000000 6.000000 -1.600000
v 7.104076 6.000000 -4.800000
v -3.768394 8.000000 -5.631134
v -1.425859 8.000000 -6.449008
v 1.469287 8.000000 -6.449008
v 3.811822 8.000000 -5.631134
v 5.609420 8.000000 3.790109
v 6.427294 8.000000 1.447573
v 6.427294 8.000000 -1.447573
v 5.609420 8.000000 -3.790109
v -9.147322 2.000000 -3.674661
v 3.652946 2.000000 9.169036
v -9.397114 4.000000 -3.674661
v 3.652946 4.000000 9.418828
v -8.883785 6.000000 -3.674661
v 3.652946 6.000000 8.905499
v -7.216152 8.000000 -3.326656
v 3.304942 8.000000 7.237866
v 5.213086 8.000000 5.870529
v -5.848816 8.000000 -5.234800
v -1.425860 8.535713 -4.510314
v 1.469287 8.535713 -4.510313
v 4.483097 8.535713 1.447573
v 4.483097 8.535713 -1.447573
v 8.000000 0.000000 -4.800000
v -8.380225 0.000000 -0.282075
v -9.525046 2.000000 -0.045375
v -9.769665 4.000000 0.005202
v -9.266968 6.000000 -0.098734
v -7.563414 8.000000 -0.095592
v -7.270941 0.000000 3.120213
v -8.192101 2.000000 3.840010
v -8.388928 4.000000 3.993812
v -7.984442 6.000000 3.677745
v -6.456132 8.000000 2.925167
v -4.583870 0.000000 6.146295
v -5.243291 2.000000 7.111595
v -5.384193 4.000000 7.317855
v -5.094637 6.000000 6.893986
v -3.866614 8.000000 5.713281
v -1.159058 0.000000 7.519241
v -1.196221 2.000000 8.687685
v -1.204162 4.000000 8.937351
v -1.187844 6.000000 8.424281
v -0.787001 8.000000 6.768555
v -1.425860 9.031087 -1.533202
v 1.469287 9.031087 -1.533201
v -1.425860 9.031087 2.526249
v 1.469287 9.031087 2.526249
v 2.018050 0.426809 1.600000
v 2.018050 0.269707 -1.600000
v -2.060246 0.163422 1.600000
v -2.060246 0.269707 -1.600000
vt 0.4489 1.4107
vt 0.2605 1.2846
vt 0.5408 1.0773
vt 0.8135 1.2598
vt 0.7233 0.8047
vt 0.9959 0.9870
vt 0.9053 0.5317
vt 1.1783 0.7142
vt 1.0882 0.2589
vt 1.3609 0.4416
vt -0.0715 -0.3724
vt 0.0545 -0.5609
vt 0.4493 -0.5609
vt 0.2670 -0.2875
vt 0.7226 -0.3786
vt 0.5404 -0.1061
vt 0.9951 -0.1958
vt 0.8123 0.0770
vt 1.2678 -0.0131
vt 0.6529 0.3141
vt 0.3801 0.1323
vt 0.4208 0.6615
vt 0.1481 0.4796
vt -0.2785 0.8371
vt -0.3834 0.4355
vt -0.0516 1.1255
vt -0.3051 0.0652
vt 0.0496 -0.5973
vt 0.4026 -0.7148
vt 0.3910 -0.4434
vt 0.1573 -0.4093
vt -0.0545 -0.7567
vt 0.2886 -0.9601
vt 0.2165 1.8938
vt -0.1132 1.6683
vt -0.0022 1.5035
vt 0.3590 1.6571
vt -0.2961 -0.8922
vt 0.1329 -1.1849
vt 0.0478 2.1131
vt -0.3749 1.7949
vt 0.1191 1.3201
vt 0.3595 1.3675
vt 0.7952 -0.3920
vt 0.6599 -0.1107
vt 0.4166 -0.1700
vt 1.1464 -0.1240
vt 0.8994 0.0868
vt 1.3183 0.2685
vt 1.0229 0.3249
vt 0.7885 1.3287
vt 0.3941 1.0847
vt 0.6442 1.0290
vt 1.1411 1.0434
vt 0.8937 0.8380
vt 1.3103 0.6502
vt 1.0170 0.5982
vt 1.5758 0.7574
vt 1.5759 0.1569
vt -0.6023 1.5864
vt -0.3894 1.4050
vt -0.2337 1.2747
vt -0.1041 1.1651
vt -0.5201 -0.7115
vt -0.3389 -0.5211
vt -0.1967 -0.3842
vt -0.0692 -0.2661
vt 0.2376 -0.2159
vt 0.0750 -0.1303
vt 0.2099 1.1222
vt 0.0436 1.0350
vt 0.7589 0.2425
vt 0.5370 0.0549
vt 0.5266 0.8603
vt 0.7512 0.6761
vt 2.1067 0.7575
vt 2.1067 0.1569
vt -0.2398 -0.0587
vt -0.3835 -0.1335
vt -0.5410 -0.2237
vt -0.7643 -0.3541
vt -0.0824 0.0498
vt -0.6815 0.1389
vt -0.9318 0.0635
vt -0.1626 0.2662
vt -0.3460 0.2127
vt -0.5057 0.1837
vt -0.3703 0.5278
vt -0.5329 0.5440
vt -0.7154 0.5538
vt -0.9792 0.5694
vt -0.1788 0.5352
vt -0.2907 0.8385
vt -0.4500 0.9119
vt -0.6342 0.9755
vt -0.9018 1.0405
vt -0.1010 0.7605
vt 0.5549 0.4528
vt 0.3689 0.2725
vt 0.2883 0.6922
vt 0.1326 0.5114
vn 0.5751 0.7396 0.3496
vn 0.5188 0.8508 0.0837
vn -0.0111 0.9997 -0.0204
vn 0.1939 0.8915 0.4093
vn -0.0080 0.9991 -0.0416
vn -0.0083 0.9999 -0.0083
vn -0.0013 0.9994 -0.0335
vn 0.0000 0.9998 -0.0166
vn 0.0194 0.9996 -0.0194
vn -0.3893 0.8373 0.3839
vn -0.0276 0.8458 -0.5328
vn -0.3437 0.7477 -0.5681
vn -0.3980 0.8964 -0.1950
vn 0.0313 0.9993 0.0211
vn 0.0166 0.9998 0.0000
vn 0.0726 0.9973 -0.0102
vn 0.0495 0.9987 -0.0101
vn -0.3876 0.8387 0.3824
vn 0.0270 0.9991 -0.0307
vn 0.0317 0.9994 0.0139
vn -0.0238 0.9991 -0.0344
vn -0.0365 0.9991 0.0186
vn 0.4625 0.8474 -0.2606
vn 0.3076 0.8430 -0.4412
vn 0.5332 0.8442 -0.0543
vn 0.1239 0.8574 -0.4995
vn 0.6528 -0.2064 0.7288
vn 0.2770 -0.2737 0.9210
vn 0.2544 -0.5228 0.8136
vn 0.5173 -0.5353 0.6677
vn 0.6787 0.1711 0.7142
vn 0.3453 0.1367 0.9284
vn -0.9284 0.1367 -0.3453
vn -0.7142 0.1711 -0.6787
vn -0.7288 -0.2064 -0.6528
vn -0.9210 -0.2737 -0.2770
vn -0.6677 -0.5353 -0.5173
vn -0.8136 -0.5228 -0.2544
vn 0.1372 -0.5932 0.7932
vn 0.0868 -0.8212 0.5639
vn 0.1771 -0.8580 0.4821
vn -0.1372 -0.5932 0.7932
vn -0.0868 -0.8212 0.5639
vn -0.4610 -0.5028 0.7311
vn -0.2891 -0.8383 0.4623
vn -0.7932 -0.5932 -0.1372
vn -0.5090 -0.8457 -0.1603
vn -0.5636 -0.8214 -0.0868
vn -0.7932 -0.5932 0.1372
vn -0.5636 -0.8214 0.0868
vn -0.7356 -0.5025 0.4541
vn -0.4649 -0.8387 0.2835
vn -0.7781 -0.2147 0.5903
vn -0.5986 -0.2149 0.7716
vn -0.0928 0.2573 -0.9619
vn -0.1559 -0.1244 -0.9799
vn -0.2000 -0.4890 -0.8490
vn 0.9481 0.2553 0.1892
vn 0.9592 -0.1211 0.2553
vn 0.8264 -0.4850 0.2860
vn 0.2872 -0.8555 0.4307
vn 0.4904 -0.8448 0.2139
vn -0.4854 -0.8118 -0.3245
vn -0.1586 -0.8257 -0.5412
vn -0.0674 -0.9764 0.2049
vn 0.0636 -0.9762 0.2075
vn -0.2178 -0.9747 -0.0498
vn -0.2051 -0.9765 0.0659
vn 0.8883 -0.4489 -0.0966
vn 0.9913 -0.0616 -0.1159
vn 0.9443 0.3111 -0.1074
vn 0.5224 -0.8500 -0.0674
vn 0.8181 0.3125 -0.4826
vn 0.4633 -0.8442 -0.2695
vn 0.7719 -0.4473 -0.4517
vn 0.8583 -0.0618 -0.5094
vn 0.5112 -0.4457 -0.7349
vn 0.5666 -0.0617 -0.8216
vn 0.5405 0.3117 -0.7814
vn 0.3065 -0.8253 -0.4742
vn 0.2094 -0.4439 -0.8712
vn 0.2292 -0.0617 -0.9714
vn 0.2196 0.3124 -0.9242
vn 0.1184 -0.8366 -0.5348
vn -0.0819 -0.9932 0.0824
vn 0.0801 -0.9941 0.0731
vn -0.0728 -0.9924 -0.0994
vn 0.0922 -0.9900 -0.1066
usemtl Ground.001
s 1
f 1/1/1 7/2/2 12/3/3 6/4/4
f 6/4/4 12/3/3 13/5/5 5/6/6
f 5/6/6 13/5/5 14/7/7 4/8/8
f 4/8/8 14/7/7 15/9/9 3/10/10
f 8/11/11 2/12/12 9/13/13 16/14/14
f 16/14/14 9/13/13 10/15/15 17/16/16
f 17/16/16 10/15/15 11/17/15 18/18/17
f 11/17/15 61/19/18 15/9/9 18/18/17
f 3/10/10 15/9/9 61/19/18
f 17/16/16 18/18/17 87/20/19 86/21/20
f 86/21/20 87/20/19 89/22/21 88/23/22
f 67/24/23 72/25/24 88/23/22
f 62/26/25 67/24/23 88/23/22 89/22/21
f 15/9/9 14/7/7 87/20/19
f 12/3/3 7/2/2 62/26/25
f 89/22/21 87/20/19 13/5/5
f 12/3/3 62/26/25 89/22/21
f 14/7/7 13/5/5 87/20/19
f 18/18/17 15/9/9 87/20/19
f 12/3/3 89/22/21 13/5/5
f 86/21/20 88/23/22 77/27/26
f 8/11/11 16/14/14 77/27/26
f 17/16/16 86/21/20 16/14/14
f 88/23/22 72/25/24 77/27/26
f 77/27/26 16/14/14 86/21/20
usemtl Walls.001
f 25/28/27 28/29/28 19/30/29 24/31/30
f 34/32/31 32/33/32 28/29/28 25/28/27
f 31/34/33 33/35/34 26/36/35 29/37/36
f 1/38/1 6/39/4 32/33/32 34/32/31
f 9/40/13 2/41/12 33/35/34 31/34/33
f 29/37/36 26/36/35 23/42/37 35/43/38
f 19/30/29 20/44/39 40/45/40 39/46/41
f 20/44/39 21/47/42 41/48/43 40/45/40
f 21/47/42 22/49/44 42/50/45 41/48/43
f 36/51/46 35/43/38 43/52/47 44/53/48
f 37/54/49 36/51/46 44/53/48 45/55/50
f 38/56/51 37/54/49 45/55/50 46/57/52
f 38/56/51 30/58/53 37/54/49
f 36/51/46 29/37/36 35/43/38
f 19/30/29 28/29/28 20/44/39
f 21/47/42 27/59/54 22/49/44
f 8/60/11 48/61/55 33/35/34 2/41/12
f 33/35/34 48/61/55 50/62/56 26/36/35
f 26/36/35 50/62/56 52/63/57 23/42/37
f 7/64/2 1/38/1 34/32/31 47/65/58
f 25/28/27 49/66/59 47/65/58 34/32/31
f 24/31/30 51/67/60 49/66/59 25/28/27
f 24/31/30 19/30/29 39/46/41 56/68/61
f 53/69/62 51/67/60 24/31/30 56/68/61
f 55/70/63 23/42/37 52/63/57 54/71/64
f 23/42/37 55/70/63 43/52/47 35/43/38
f 40/45/40 41/48/43 58/72/65 57/73/66
f 44/53/48 59/74/67 60/75/68 45/55/50
f 40/45/40 57/73/66 39/46/41
f 41/48/43 42/50/45 58/72/65
f 46/57/52 45/55/50 60/75/68
f 44/53/48 43/52/47 59/74/67
f 61/76/18 30/58/53 27/59/54 3/77/10
f 30/58/53 38/56/51 22/49/44 27/59/54
f 22/49/44 38/56/51 46/57/52 42/50/45
f 49/66/59 51/67/60 65/78/69 64/79/70
f 47/65/58 49/66/59 64/79/70 63/80/71
f 7/64/2 47/65/58 63/80/71 62/81/25
f 51/67/60 53/69/62 66/82/72 65/78/69
f 62/81/25 63/80/71 68/83/73 67/84/23
f 65/78/69 66/82/72 71/85/74 70/86/75
f 63/80/71 64/79/70 69/87/76 68/83/73
f 64/79/70 65/78/69 70/86/75 69/87/76
f 69/87/76 70/86/75 75/88/77 74/89/78
f 67/84/23 68/83/73 73/90/79 72/91/24
f 70/86/75 71/85/74 76/92/80 75/88/77
f 68/83/73 69/87/76 74/89/78 73/90/79
f 74/89/78 75/88/77 80/93/81 79/94/82
f 72/91/24 73/90/79 78/95/83 77/96/26
f 75/88/77 76/92/80 81/97/84 80/93/81
f 73/90/79 74/89/78 79/94/82 78/95/83
f 48/61/55 8/60/11 77/96/26 78/95/83
f 50/62/56 48/61/55 78/95/83 79/94/82
f 52/63/57 50/62/56 79/94/82 80/93/81
f 54/71/64 52/63/57 80/93/81 81/97/84
f 57/73/66 58/72/65 83/98/85 82/99/86
f 82/99/86 83/98/85 85/100/87 84/101/88
f 81/97/84 84/101/88 85/100/87 54/71/64
f 81/97/84 76/92/80 84/101/88
f 83/98/85 60/75/68 59/74/67
f 43/52/47 55/70/63 85/100/87
f 54/71/64 85/100/87 55/70/63
f 83/98/85 58/72/65 60/75/68
f 42/50/45 46/57/52 58/72/65
f 59/74/67 43/52/47 85/100/87
f 46/57/52 60/75/68 58/72/65
f 85/100/87 83/98/85 59/74/67
f 71/85/74 82/99/86 84/101/88
f 56/68/61 39/46/41 53/69/62
f 82/99/86 71/85/74 66/82/72
f 39/46/41 57/73/66 82/99/86
f 66/82/72 53/69/62 82/99/86
f 76/92/80 71/85/74 84/101/88
f 39/46/41 82/99/86 53/69/62
