# Blender v2.78 (sub 0) OBJ File: 'Mesh_Dungeon_Platform1_lod0.blend'
# www.blender.org
mtllib Mesh_CavePack_Platform1_lod0.mtl
o Circle
v 0.071858 2.342258 -3.085214
v -1.877567 2.342258 -3.468199
v -3.383369 2.080935 -2.124671
v -3.790614 2.342258 0.319119
v -3.926530 2.342258 1.857728
v -1.877567 2.342258 3.284806
v 0.127594 2.342258 3.903081
v 2.059007 2.157754 3.104080
v 3.448360 2.213023 1.857729
v 3.618730 2.176204 -0.257380
v 3.224741 1.937799 -2.023115
v 1.679730 2.173159 -2.828906
v 0.055929 0.295080 -2.519703
v -1.539346 0.295080 -2.833112
v -2.707169 0.295080 -1.665289
v -3.076236 0.295080 -0.057792
v -3.216078 0.295080 1.525262
v -1.539346 0.295080 2.693084
v 0.101540 0.295080 3.199038
v 1.651204 0.295080 2.693085
v 2.819027 0.295080 1.525263
v 2.927204 0.295080 -0.057791
v 2.819029 0.295080 -1.665288
v 1.514374 0.295080 -2.504888
v 0.068813 4.356204 -2.977116
v -1.812916 4.356204 -3.346803
v -3.202954 4.125747 -2.045902
v -3.625776 4.356204 -0.073136
v -3.790727 4.248427 1.794178
v -1.812916 4.324911 3.171699
v 0.122614 4.199738 3.768503
v 1.950542 4.356204 3.171699
v 3.328063 4.356204 1.794178
v 3.455665 4.356204 -0.073134
v 3.114315 4.079448 -1.910878
v 1.789142 4.356204 -2.959641
v 0.052617 4.531194 -2.402107
v -1.469015 4.452143 -2.701049
v -2.582927 4.420522 -1.587137
v -2.934956 4.420522 -0.053848
v -3.068342 4.420522 1.456127
v -1.469015 4.420522 2.570038
v 0.096122 4.545694 3.052635
v 1.574248 4.420522 2.570039
v 2.688161 4.533745 1.456128
v 2.791343 4.420522 -0.053847
v 2.688162 4.420522 -1.587136
v 1.443734 4.420522 -2.387977
v 0.036226 4.284368 0.109204
v 0.066874 -0.147871 -2.908279
v -1.771746 -0.147871 -3.269496
v -3.117710 -0.147871 -1.923533
v -3.543074 -0.147871 -0.070827
v -3.704247 -0.147871 1.753708
v -1.771746 -0.147871 3.099671
v 0.119442 -0.147871 3.682804
v 1.905494 -0.147871 3.099671
v 3.251458 -0.147871 1.753709
v 3.376136 -0.147871 -0.070825
v 3.251459 -0.147871 -1.923531
v 1.747791 -0.147871 -2.891205
vt 1.1242 0.3516
vt 1.0917 0.6684
vt 0.9664 0.6396
vt 0.9876 0.3937
vt 0.3088 -0.0377
vt 0.6506 -0.0883
vt 0.6183 0.0663
vt 0.3534 0.0904
vt -0.0933 0.8031
vt -0.0933 0.4554
vt 0.0378 0.4736
vt 0.0535 0.7324
vt 0.9956 0.9722
vt 0.8989 0.8771
vt 0.9353 0.0780
vt 0.8444 0.1795
vt -0.0610 0.1368
vt 0.0644 0.2267
vt 0.7333 1.0966
vt 0.6836 0.9781
vt 0.4399 1.0658
vt 0.1158 1.0534
vt 0.2005 0.9444
vt 0.4553 0.9421
vt 0.5245 0.5339
vt 0.2524 0.5480
vt 0.0393 0.5185
vt 0.0221 0.1573
vt 0.2607 0.1410
vt 0.7024 0.5975
vt 0.4618 0.5767
vt 0.4587 0.1552
vt 0.7058 0.1175
vt -0.4068 0.6450
vt -0.6172 0.6727
vt -0.6688 0.3093
vt -0.4373 0.2412
vt 1.6918 0.7612
vt 1.4072 0.6969
vt 1.4534 0.2194
vt 1.7578 0.3539
vt 0.9371 0.5635
vt 0.9708 0.1692
vt -0.1684 0.5852
vt -0.2143 0.2157
vt 1.9373 0.8358
vt 1.9662 0.4440
vt 1.2296 0.6525
vt 1.2069 0.2042
vt -0.8543 0.7624
vt -0.8653 0.3827
vt 0.2451 0.9145
vt 0.0447 0.8619
vt 0.6849 0.9181
vt 0.4550 0.9134
vt -0.3857 0.9715
vt -0.6043 1.0167
vt 1.6521 1.0753
vt 1.3748 0.9915
vt 0.9161 0.8953
vt -0.1701 0.9365
vt 1.8905 1.1250
vt 1.1533 0.9711
vt -0.8240 1.0421
vt 1.7784 0.2354
vt 2.0079 0.3395
vt 0.9836 0.0344
vt 1.2206 0.0859
vt -0.2208 0.1008
vt 0.0136 0.0123
vt -0.8984 0.2783
vt -0.6851 0.1929
vt 1.4703 0.0657
vt 0.2509 0.0180
vt 0.4608 0.0452
vt 0.7220 -0.0319
vt -0.4514 0.1087
vn 0.7179 0.6076 0.3398
vn 0.7737 0.6290 -0.0756
vn 0.1066 0.9928 -0.0536
vn 0.0597 0.9979 0.0232
vn -0.3436 0.6233 0.7024
vn 0.0189 0.5524 0.8333
vn -0.0034 0.9908 0.1348
vn -0.0634 0.9933 0.0960
vn -0.7224 0.5620 -0.4027
vn -0.7370 0.6655 -0.1178
vn -0.0808 0.9964 -0.0245
vn -0.1220 0.9906 -0.0610
vn 0.7150 0.5088 -0.4794
vn 0.1713 0.9804 -0.0972
vn 0.4046 0.5994 0.6906
vn 0.0435 0.9936 0.1040
vn -0.7355 0.5812 0.3482
vn -0.0821 0.9955 0.0480
vn 0.3086 0.5673 -0.7635
vn 0.0849 0.9920 -0.0930
vn 0.1035 0.6551 -0.7484
vn -0.2469 0.5933 -0.7662
vn -0.0684 0.9928 -0.0980
vn 0.0136 0.9988 -0.0459
vn -0.0068 1.0000 -0.0014
vn 0.3035 -0.1198 -0.9452
vn 0.8127 -0.1430 -0.5648
vn 0.8032 0.3171 -0.5042
vn 0.2564 0.2867 -0.9231
vn -0.2771 -0.1236 -0.9528
vn 0.1358 -0.1083 -0.9848
vn 0.1155 0.2282 -0.9667
vn -0.2252 0.2814 -0.9328
vn 0.8937 -0.1385 0.4267
vn 0.5278 -0.1452 0.8368
vn 0.4994 0.2737 0.8220
vn 0.8744 0.2752 0.3995
vn -0.4357 -0.1241 0.8914
vn -0.8975 -0.1350 0.4198
vn -0.8589 0.3181 0.4012
vn -0.4206 0.2566 0.8702
vn -0.8622 -0.1596 -0.4807
vn -0.8509 0.2521 -0.4608
vn 0.9914 -0.1191 -0.0548
vn 0.9719 0.2353 -0.0088
vn 0.0265 -0.1264 0.9916
vn 0.0127 0.2821 0.9593
vn -0.9841 -0.1244 -0.1266
vn -0.9608 0.2393 -0.1400
vn -0.3041 0.7259 0.6169
vn 0.0078 0.7376 0.6751
vn -0.5884 0.7380 -0.3304
vn -0.6829 0.7228 -0.1053
vn 0.7023 0.7118 -0.0002
vn 0.5685 0.7509 -0.3361
vn 0.3554 0.7345 0.5780
vn -0.5752 0.7725 0.2688
vn 0.2217 0.7046 -0.6740
vn 0.0789 0.6585 -0.7484
vn -0.2167 0.7404 -0.6362
vn 0.6093 0.7407 0.2829
usemtl Ground
s 1
f 33/1/1 34/2/2 46/3/3 45/4/4
f 30/5/5 31/6/6 43/7/7 42/8/8
f 27/9/9 28/10/10 40/11/11 39/12/12
f 34/2/2 35/13/13 47/14/14 46/3/3
f 31/6/6 32/15/15 44/16/16 43/7/7
f 28/10/10 29/17/17 41/18/18 40/11/11
f 35/13/13 36/19/19 48/20/20 47/14/14
f 25/21/21 26/22/22 38/23/23 37/24/24
f 32/15/15 33/1/1 45/4/4 44/16/16
f 29/17/17 30/5/5 42/8/8 41/18/18
f 36/19/19 25/21/21 37/24/24 48/20/20
f 26/22/22 27/9/9 39/12/12 38/23/23
f 44/16/16 45/4/4 49/25/25
f 38/23/23 39/12/12 49/25/25
f 38/23/23 49/25/25 37/24/24
f 43/7/7 44/16/16 49/25/25
f 47/14/14 49/25/25 46/3/3
f 45/4/4 46/3/3 49/25/25
f 47/14/14 48/20/20 49/25/25
f 37/24/24 49/25/25 48/20/20
f 41/18/18 49/25/25 40/11/11
f 39/12/12 40/11/11 49/25/25
f 41/18/18 42/8/8 49/25/25
f 43/7/7 49/25/25 42/8/8
usemtl Wall
f 12/26/26 11/27/27 23/28/28 24/29/29
f 2/30/30 1/31/31 13/32/32 14/33/33
f 9/34/34 8/35/35 20/36/36 21/37/37
f 6/38/38 5/39/39 17/40/40 18/41/41
f 1/31/31 12/26/26 24/29/29 13/32/32
f 3/42/42 2/30/30 14/33/33 15/43/43
f 10/44/44 9/34/34 21/37/37 22/45/45
f 7/46/46 6/38/38 18/41/41 19/47/47
f 4/48/48 3/42/42 15/43/43 16/49/49
f 11/27/27 10/44/44 22/45/45 23/28/28
f 8/35/35 7/50/46 19/51/47 20/36/36
f 5/39/39 4/48/48 16/49/49 17/40/40
f 11/27/27 12/26/26 36/52/19 35/53/13
f 1/31/31 2/30/30 26/54/22 25/55/21
f 8/35/35 9/34/34 33/56/1 32/57/15
f 5/39/39 6/38/38 30/58/5 29/59/17
f 12/26/26 1/31/31 25/55/21 36/52/19
f 2/30/30 3/42/42 27/60/9 26/54/22
f 9/34/34 10/44/44 34/61/2 33/56/1
f 6/38/38 7/46/46 31/62/6 30/58/5
f 3/42/42 4/48/48 28/63/10 27/60/9
f 10/44/44 11/27/27 35/53/13 34/61/2
f 7/50/46 8/35/35 32/57/15 31/64/6
f 4/48/48 5/39/39 29/59/17 28/63/10
f 19/47/47 18/41/41 55/65/50 56/66/51
f 16/49/49 15/43/43 52/67/52 53/68/53
f 23/28/28 22/45/45 59/69/54 60/70/55
f 20/36/36 19/51/47 56/71/51 57/72/56
f 17/40/40 16/49/49 53/68/53 54/73/57
f 24/29/29 23/28/28 60/70/55 61/74/58
f 14/33/33 13/32/32 50/75/59 51/76/60
f 21/37/37 20/36/36 57/72/56 58/77/61
f 18/41/41 17/40/40 54/73/57 55/65/50
f 13/32/32 24/29/29 61/74/58 50/75/59
f 15/43/43 14/33/33 51/76/60 52/67/52
f 22/45/45 21/37/37 58/77/61 59/69/54
