# Blender v2.78 (sub 0) OBJ File: 'Mesh_Dungeon_Small_RoomSquare_lod0.blend'
# www.blender.org
mtllib Mesh_CavePack_Slope_Short_lod0.mtl
o Plane
v 6.022422 9.111021 8.000000
v 6.525955 9.001149 -7.837611
v 8.000000 8.000000 4.800000
v 8.000000 8.000000 1.600000
v 8.000000 8.000000 -1.600000
v 8.000000 8.000000 -4.800000
v 4.916603 9.297234 -8.145428
v 5.403125 7.480772 4.800000
v 5.403125 7.178823 1.600000
v 5.403125 7.285108 -1.600000
v 5.403125 7.178823 -4.800001
v 6.067166 13.590324 -6.884024
v 5.541472 13.099164 7.887605
v 7.513589 12.009807 7.112107
v 6.442711 11.913170 -8.013360
v 8.000000 12.000000 4.800000
v 8.000000 12.000000 -4.800000
v 8.000000 10.000000 -4.800000
v 8.000000 10.000000 4.800000
v 6.555492 10.260489 -8.069927
v 6.643073 10.307318 8.325701
v 7.104076 14.000000 4.800000
v 8.000000 14.000000 1.600000
v 8.000000 14.000000 -1.600000
v 7.047239 13.620670 -4.744370
v 5.082498 15.319399 4.035975
v 5.616241 15.298130 1.731228
v 5.137548 15.191787 -1.080923
v 4.756188 14.875086 -3.727927
v -6.044365 2.459399 -7.427727
v -5.582260 2.097445 8.271760
v -7.997498 0.000000 -4.804238
v -7.997498 0.000000 -1.604237
v -7.997498 0.000000 1.595763
v -7.997498 0.000000 4.795763
v -3.930493 2.302888 8.365493
v -4.797497 1.164400 -4.804238
v -4.797497 1.058115 -1.604237
v -4.797497 1.164400 1.595763
v -3.977166 1.400519 4.963555
v -6.166935 6.000000 6.943251
v -6.166935 7.908912 -6.951726
v -7.101574 5.263381 -8.004236
v -6.712272 4.299207 7.485883
v -7.997498 4.000000 -4.804238
v -7.997498 4.000000 4.795763
v -7.997498 2.000000 4.795763
v -7.997498 2.000000 -4.804238
v -5.650177 3.535808 8.334351
v -6.642600 3.678323 -7.713269
v -7.101574 7.815543 -4.804238
v -7.997498 6.000000 -1.604237
v -7.997498 6.000000 1.595763
v -7.101574 6.000000 4.795763
v -5.606918 9.079368 -3.794346
v -6.424791 9.079368 -1.451811
v -6.424791 9.079368 1.443336
v -5.260793 9.079367 4.668313
v 2.799101 8.014548 -8.153312
v 3.498518 6.244003 4.800000
v 3.498518 6.516114 1.600000
v 3.498518 6.622399 -1.600001
v 3.498518 6.404604 -4.800001
v 0.613360 6.746446 -8.148554
v 0.937880 4.910779 4.800000
v 0.937880 4.592616 1.600000
v 0.937880 4.698901 -1.600001
v 0.937880 4.937936 -4.800001
v -3.241959 4.150177 -7.965329
v -2.209405 2.672221 4.937802
v -2.791974 2.143081 1.599999
v -2.791974 2.249366 -1.600001
v -2.791974 2.354958 -4.800001
v 4.585755 8.506810 7.973268
v 3.498518 7.426198 7.990216
v 0.937880 6.092973 7.990216
v -2.557569 3.900241 8.100055
v -5.329261 9.121336 -6.951726
v -3.969686 7.940222 7.395114
v -1.638987 13.333870 -3.794345
v -2.456860 13.333870 -1.451810
v -2.456860 13.333870 1.443337
v -1.355652 13.106673 4.740300
v -1.451526 11.550662 -7.064041
v -0.270015 11.744340 7.643629
v 2.059320 14.702329 -3.642456
v 1.841732 15.406012 -1.451810
v 1.841732 15.406012 1.443337
v 2.659605 15.406012 3.785873
v 1.311854 12.787180 -6.596390
v 2.792574 12.893433 8.027393
v 4.347222 14.325334 -6.218804
v -3.451756 6.458891 8.589867
v 0.247916 9.232950 8.838382
v 3.310505 10.070898 9.222146
v -4.296992 6.673772 -8.672478
v -0.419257 9.103098 -8.784792
v 2.344123 10.339617 -8.317141
vt 2.6642 0.2028
vt 2.6620 0.9307
vt 2.0502 0.9284
vt 2.0435 0.1993
vt -0.4723 -0.5665
vt 0.0228 -0.5601
vt -0.1557 0.1987
vt -0.6633 0.2005
vt -0.6724 0.9279
vt -1.4376 0.9298
vt -1.4384 0.2016
vt 2.6584 1.6580
vt 2.0393 1.6550
vt 1.5719 1.6534
vt 1.5942 0.9275
vt 0.8568 0.2006
vt 0.9003 -0.5279
vt 0.8695 0.9259
vt 0.9011 1.6538
vt -0.1300 1.6532
vt -0.1431 0.9259
vt -0.6600 1.6547
vt -1.4347 1.6580
vt 1.5834 0.2021
vt 2.0712 -0.5328
vt 2.6736 -0.5250
vt 1.5560 -0.5270
vt -1.4400 -0.5257
vt -0.6606 1.5990
vt -0.5380 1.3581
vt -0.2561 1.7152
vt -0.5616 1.9753
vt -0.4506 0.6879
vt -0.4780 1.0614
vt -0.8345 1.0151
vt -0.8019 0.6143
vt 0.8565 -0.8510
vt 0.7593 -0.2612
vt 0.3261 -0.2637
vt 0.2376 -0.8611
vt 1.4419 0.5338
vt 1.8449 0.5162
vt 1.8152 0.9179
vt 1.4031 0.9106
vt 1.2780 -0.3676
vt 1.0859 -0.1214
vt -0.9932 2.0073
vt -0.8581 1.4284
vt 1.7697 -0.4309
vt 1.5373 -0.1889
vt 1.6029 -0.9485
vt -0.0487 0.6325
vt 0.3544 0.5222
vt 0.3537 1.1059
vt 0.0647 1.1784
vt -1.8137 1.0324
vt -1.9055 0.4578
vt -1.2882 0.5085
vt -1.2243 0.9561
vt 2.8047 -0.4141
vt 2.2347 -0.1700
vt 2.1275 -0.6447
vt 2.6334 -0.8169
vt 1.3447 1.7377
vt 1.6133 1.9790
vt 0.8576 2.0984
vt 0.1962 2.0984
vt -1.7232 -0.7594
vt -1.1410 -0.6402
vt -1.2514 -0.4630
vt -0.3129 -0.6171
vt -0.1441 -0.0890
vt -0.7987 -1.2059
vt -0.7826 -0.5919
vt -0.9833 -0.5187
vt 1.9139 -1.1516
vt 2.2385 -1.3263
vt -0.8632 -0.0301
vt -0.6050 -0.4077
vt -0.5869 0.0096
vt 2.6730 1.4174
vt 2.0362 1.2299
vt 2.1505 0.8887
vt 2.7815 1.0367
vt 1.0003 0.6166
vt 0.9976 1.0987
vt 1.3474 1.3175
vt 1.0565 1.4495
vt -0.4907 -0.9761
vt 0.6869 1.5639
vt -1.8556 -0.3225
vt -1.2581 -0.1595
vt -0.0271 1.4561
vt 1.7293 1.4440
vt 1.8687 -0.0655
vt 1.9476 -0.5487
vt 0.2620 1.6079
vt 1.5138 1.4709
vt 2.2190 0.5126
vt 0.7109 1.1085
vt 1.4797 -0.0170
vt -1.1402 -1.3888
vt 0.7115 0.5224
vt 2.8791 0.4636
vt 2.3862 1.9095
vt 2.0749 1.4576
vt 1.9166 1.4546
vt 1.9946 1.9918
vt -1.0314 1.3710
vt -1.3759 1.9235
vt -1.6334 1.4528
vt -1.1123 1.1619
vn -0.2668 0.9636 -0.0149
vn -0.2836 0.9589 0.0000
vn -0.3121 0.9500 -0.0040
vn -0.3291 0.9442 -0.0004
vn -0.4503 0.8810 -0.1451
vn -0.5796 0.7986 -0.1619
vn -0.5236 0.8520 -0.0026
vn -0.4077 0.9131 0.0003
vn -0.4116 0.9113 0.0071
vn -0.3280 0.9446 0.0000
vn -0.3315 0.9434 -0.0038
vn -0.5280 0.7832 0.3283
vn -0.3091 0.9207 0.2382
vn -0.4535 0.8583 0.2399
vn -0.4611 0.8873 0.0031
vn -0.5629 0.8265 -0.0025
vn -0.5266 0.8314 -0.1769
vn -0.5654 0.8244 0.0257
vn -0.5263 0.8123 0.2514
vn -0.5022 0.8206 0.2729
vn -0.5239 0.8514 0.0252
vn -0.4005 0.8725 0.2800
vn -0.0088 0.9026 0.4303
vn -0.4812 0.8765 0.0121
vn -0.3846 0.8993 -0.2082
vn -0.5068 0.7992 -0.3232
vn -0.5046 0.8473 -0.1653
vn 0.0475 0.9300 -0.3645
vn -0.8253 -0.2675 -0.4973
vn -0.2992 -0.6186 -0.7264
vn -0.6424 -0.7006 -0.3104
vn -0.9006 -0.2800 -0.3324
vn 0.4159 -0.5798 -0.7006
vn 0.1317 -0.6370 -0.7595
vn -0.0640 -0.0019 -0.9979
vn 0.1564 -0.0958 -0.9830
vn 0.9007 -0.4303 0.0594
vn 0.7975 -0.5992 0.0700
vn 0.8088 -0.5730 -0.1325
vn 0.8756 -0.4579 -0.1535
vn 0.3655 -0.6836 0.6317
vn 0.0510 -0.1899 0.9805
vn 0.0161 -0.2510 0.9678
vn 0.2096 -0.7204 0.6611
vn 0.8572 -0.4925 0.1503
vn 0.7203 -0.6715 0.1740
vn -0.9031 0.1715 -0.3937
vn -0.6146 0.0309 -0.7882
vn 0.6775 -0.0235 0.7351
vn 0.7152 -0.5006 0.4877
vn 0.9395 -0.0323 0.3408
vn 0.5329 -0.7565 -0.3789
vn 0.5993 -0.7920 -0.1167
vn 0.2307 -0.9717 -0.0501
vn 0.1793 -0.9461 -0.2696
vn -0.3244 0.6015 -0.7300
vn -0.3885 0.6378 -0.6650
vn -0.2535 0.5389 0.8033
vn 0.1905 0.5538 0.8105
vn -0.6296 -0.7173 0.2983
vn -0.8670 -0.3123 0.3883
vn -0.4736 -0.8667 0.1567
vn -0.5507 -0.8318 -0.0686
vn 0.3140 0.5279 -0.7891
vn -0.3071 0.6163 -0.7252
vn 0.8285 -0.4498 -0.3334
vn 0.7230 -0.5791 -0.3768
vn 0.8404 0.0500 -0.5396
vn 0.7278 -0.1403 -0.6713
vn 0.4246 -0.0275 -0.9049
vn 0.8238 0.0920 0.5593
vn 0.2282 -0.1454 -0.9627
vn 0.6859 -0.4441 -0.5764
vn 0.5681 -0.4799 -0.6685
vn -0.1771 0.4004 0.8990
vn -0.2960 0.4874 0.8215
vn 0.4899 -0.8148 0.3101
vn 0.2243 -0.9245 0.3080
vn 0.0214 -0.8408 0.5409
vn -0.1351 -0.9591 0.2488
vn 0.8995 -0.2333 -0.3695
vn -0.2188 -0.9693 0.1120
vn -0.3965 0.4925 -0.7747
vn -0.2040 -0.9438 -0.2600
vn -0.4676 -0.3233 0.8227
vn 0.1840 -0.0970 0.9781
vn 0.5330 0.2918 0.7942
vn -0.2820 -0.9592 -0.0175
vn -0.3862 -0.7075 0.5918
vn -0.3224 0.5064 0.7997
vn 0.1970 -0.9732 0.1183
vn 0.5754 -0.6258 0.5265
vn 0.5934 -0.7957 0.1210
vn -0.5094 0.4936 0.7049
vn -0.5604 0.0214 0.8280
vn -0.9061 0.0037 0.4230
vn -0.4700 0.5649 -0.6782
vn -0.3673 0.6542 -0.6611
usemtl Ground
s 1
f 4/1/1 5/2/2 10/3/3 9/4/4
f 40/5/5 70/6/6 71/7/7 39/8/8
f 38/9/9 33/10/10 34/11/11 39/8/8
f 10/3/3 5/2/2 6/12/12 11/13/13
f 11/13/13 63/14/14 62/15/15 10/3/3
f 66/16/16 71/7/7 70/6/6 65/17/17
f 67/18/18 68/19/19 73/20/20 72/21/21
f 37/22/22 38/9/9 72/21/21 73/20/20
f 32/23/23 33/10/10 38/9/9 37/22/22
f 61/24/24 62/15/15 67/18/18 66/16/16
f 8/25/25 3/26/26 4/1/1 9/4/4
f 66/16/16 67/18/18 72/21/21 71/7/7
f 61/24/24 66/16/16 65/17/17 60/27/27
f 39/8/8 71/7/7 72/21/21 38/9/9
f 9/4/4 10/3/3 62/15/15 61/24/24
f 39/8/8 34/11/11 35/28/28 40/5/5
f 62/15/15 63/14/14 68/19/19 67/18/18
f 9/4/4 61/24/24 60/27/27 8/25/25
usemtl Walls
f 14/29/29 13/30/30 22/31/31 16/32/32
f 85/33/33 91/34/34 95/35/35 94/36/36
f 52/37/37 56/38/38 57/39/39 53/40/40
f 84/41/41 97/42/42 98/43/43 90/44/44
f 51/45/45 55/46/46 56/38/38 52/37/37
f 19/47/47 21/48/48 14/29/29 16/32/32
f 43/49/49 42/50/50 51/45/45 45/51/51
f 83/52/52 82/53/53 88/54/54 89/55/55
f 60/56/27 65/57/17 76/58/56 75/59/57
f 73/60/20 69/61/58 30/62/59 37/63/22
f 25/64/60 17/65/61 24/66/62
f 23/67/63 16/32/32 22/31/31
f 40/68/5 31/69/64 36/70/65
f 54/71/66 53/40/40 57/39/39 58/72/67
f 47/73/68 44/74/69 49/75/70
f 94/36/36 95/35/35 75/59/57 76/58/56
f 30/62/59 48/76/71 32/77/23
f 93/78/72 49/75/70 41/79/73 79/80/74
f 11/81/13 7/82/75 59/83/76 63/84/14
f 80/85/77 84/41/41 90/44/44 86/86/78
f 92/87/79 29/88/80 86/86/78 90/44/44
f 54/71/66 46/89/81 53/40/40
f 52/37/37 45/51/51 51/45/45
f 24/66/62 28/90/82 29/88/80 25/64/60
f 65/57/17 70/91/6 77/92/83 76/58/56
f 26/93/84 13/30/30 91/34/34 89/55/55
f 90/44/44 98/43/43 15/94/85 92/87/79
f 44/74/69 46/89/81 54/71/66 41/79/73
f 69/61/58 96/95/86 43/49/49 50/96/87
f 79/80/74 58/72/67 83/52/52 85/33/33
f 23/67/63 27/97/88 28/90/82 24/66/62
f 17/65/61 25/64/60 12/98/89 15/94/85
f 64/99/90 97/42/42 96/95/86 69/61/58
f 87/100/91 86/86/78 29/88/80 28/90/82
f 59/83/76 98/43/43 97/42/42 64/99/90
f 32/77/23 37/63/22 30/62/59
f 22/31/31 26/93/84 27/97/88 23/67/63
f 93/78/72 94/36/36 76/58/56 77/92/83
f 55/46/46 78/101/92 84/41/41 80/85/77
f 31/69/64 35/102/28 47/73/68 49/75/70
f 78/101/92 55/46/46 51/45/45 42/50/50
f 55/46/46 80/85/77 81/103/93 56/38/38
f 68/104/19 64/99/90 69/61/58 73/60/20
f 25/64/60 29/88/80 92/87/79 12/98/89
f 56/38/38 81/103/93 82/53/53 57/39/39
f 30/62/59 50/96/87 45/51/51 48/76/71
f 88/54/54 87/100/91 28/90/82 27/97/88
f 89/55/55 88/54/54 27/97/88 26/93/84
f 58/72/67 57/39/39 82/53/53 83/52/52
f 11/81/13 6/105/12 2/106/94 7/82/75
f 22/31/31 13/30/30 26/93/84
f 78/101/92 96/95/86 97/42/42 84/41/41
f 13/30/30 21/48/48 95/35/35 91/34/34
f 83/52/52 89/55/55 91/34/34 85/33/33
f 36/70/65 77/92/83 70/91/6 40/68/5
f 20/107/95 18/108/96 17/65/61 15/94/85
f 1/109/97 21/48/48 19/47/47 3/110/26
f 41/79/73 54/71/66 58/72/67 79/80/74
f 8/111/25 74/112/98 1/109/97 3/110/26
f 74/112/98 75/59/57 95/35/35
f 74/112/98 95/35/35 1/109/97
f 21/48/48 1/109/97 95/35/35
f 14/29/29 21/48/48 13/30/30
f 2/106/94 6/105/12 18/108/96 20/107/95
f 49/75/70 44/74/69 41/79/73
f 49/75/70 93/78/72 77/92/83 36/70/65
f 36/70/65 31/69/64 49/75/70
f 79/80/74 85/33/33 94/36/36 93/78/72
f 12/98/89 92/87/79 15/94/85
f 7/82/75 2/106/94 20/107/95
f 20/107/95 15/94/85 7/82/75
f 63/84/14 59/83/76 64/99/90 68/104/19
f 80/85/77 86/86/78 87/100/91 81/103/93
f 30/62/59 69/61/58 50/96/87
f 8/111/25 60/56/27 75/59/57 74/112/98
f 43/49/49 96/95/86 42/50/50
f 78/101/92 42/50/50 96/95/86
f 98/43/43 7/82/75 15/94/85
f 7/82/75 98/43/43 59/83/76
f 40/68/5 35/102/28 31/69/64
f 47/73/68 46/89/81 44/74/69
f 50/96/87 43/49/49 45/51/51
f 82/53/53 81/103/93 87/100/91 88/54/54
