# Blender v2.78 (sub 0) OBJ File: 'Mesh_Dungeon_Small_RoomSquare_lod0.blend'
# www.blender.org
mtllib Mesh_CavePack_Slope_Short_lod1.mtl
o Plane
v 6.043049 9.128685 7.925566
v 6.541221 9.160011 -7.956142
v 7.989945 8.040302 4.792422
v 7.976406 8.082614 -4.788145
v 3.925643 8.716233 -8.133017
v 5.403125 7.480772 4.800000
v 3.917456 6.793897 -0.472218
v 5.541472 13.099164 7.887605
v 6.442711 11.913170 -8.013360
v 8.000000 12.000000 4.800000
v 8.000000 12.000000 -4.800000
v 8.000000 10.000000 4.800000
v 7.077348 11.159276 8.093489
v 7.104076 14.000000 4.800000
v 8.000000 14.000000 1.600000
v 8.000000 14.000000 -1.600000
v 6.151353 13.477982 -6.942134
v 5.232924 15.367187 3.823227
v 4.818723 15.188622 -2.290338
v -5.582260 2.097445 8.271760
v -7.997498 0.000000 -4.804238
v -7.996604 0.002027 4.793337
v -3.944282 2.495993 8.141187
v -4.766431 1.108449 -4.591481
v -3.465229 1.677937 5.186672
v -6.336064 8.185180 -6.823985
v -6.735902 4.672856 7.360488
v -8.040896 3.999444 -4.828070
v -5.642250 3.760304 8.345345
v -7.997498 6.000000 -1.604237
v -7.997498 6.000000 1.595763
v -8.052876 4.019399 4.821638
v -6.632214 8.575684 -2.575356
v -5.938712 9.417346 2.749955
v 1.966316 5.573673 5.058125
v 2.226048 5.753163 -4.891579
v -6.293010 2.182616 -7.429406
v 3.151966 7.327014 8.039514
v -1.638987 13.333870 -3.794345
v -2.658107 13.415956 -0.102422
v -1.355652 13.106673 4.740300
v -1.451526 11.550662 -7.064041
v -0.270015 11.744340 7.643629
v 1.650373 15.264705 -1.803850
v 2.509308 15.419415 3.562477
v 4.676939 14.219399 -6.266196
v 2.792574 12.893433 8.027393
v 2.626254 10.104057 9.247938
v -6.855865 5.154186 -8.247255
v -0.212623 9.283974 -8.654027
vt -0.5863 1.6229
vt -1.4400 -0.5260
vt -0.3721 -0.5683
vt 1.1664 1.6490
vt 1.6332 0.6328
vt 2.0712 -0.5328
vt 2.6736 -0.5233
vt 1.1770 -0.5275
vt 2.6590 1.6581
vt -1.4347 1.6580
vt 1.4419 0.5338
vt 1.8422 0.5529
vt 1.3435 1.3460
vt 1.4346 -0.1383
vt 0.8899 -0.2053
vt 0.8565 -0.8510
vt -0.9932 2.0073
vt -0.7768 1.4986
vt -0.5616 1.9753
vt 1.7764 -0.4062
vt 1.6030 -0.9486
vt 1.5152 1.4688
vt 1.6133 1.9790
vt 0.8576 2.0984
vt 0.1962 2.0984
vt -0.2561 1.7152
vt -1.7337 -0.7247
vt -1.1410 -0.6402
vt -1.2520 -0.4395
vt -1.1410 -1.3892
vt -0.7598 -0.5479
vt -0.9772 -0.4941
vt 2.1327 -0.6410
vt 2.2385 -1.3263
vt 2.3853 1.9101
vt 2.0860 1.0697
vt 2.8405 0.6904
vt 0.8563 1.5115
vt 1.7293 1.4440
vt 2.6574 -0.7605
vt 0.0023 1.4716
vt 0.5450 0.5223
vt 0.1349 -0.1927
vt -0.0487 0.6325
vt 2.0529 1.4572
vt -0.5380 1.3581
vt -1.6334 1.4528
vt -1.0301 1.3743
vt -1.3759 1.9235
vt -1.2321 0.9013
vt -0.8279 0.9345
vt 1.0003 0.6166
vt 0.7554 1.1070
vt -0.4911 -0.9769
vt 0.0951 1.1708
vt 0.2376 -0.8611
vt -0.4506 0.6879
vt -0.4780 1.0614
vt -1.8668 0.7003
vn -0.4309 0.8693 0.2423
vn 0.0464 0.9338 -0.3546
vn -0.4520 0.8785 -0.1547
vn -0.4710 0.8426 0.2612
vn -0.4311 0.9022 -0.0121
vn -0.3582 0.9125 -0.1976
vn -0.4877 0.8104 -0.3247
vn -0.5462 0.8238 -0.1514
vn -0.5895 0.7407 0.3222
vn 0.0039 0.9134 0.4070
vn 0.3819 -0.6787 0.6272
vn 0.0781 -0.1641 0.9833
vn -0.0142 -0.8441 0.5360
vn 0.6907 -0.5258 0.4964
vn 0.8083 -0.5798 0.1024
vn 0.8994 -0.4331 0.0576
vn -0.9074 0.1489 -0.3930
vn -0.6846 -0.1198 -0.7190
vn -0.8857 -0.3157 -0.3404
vn 0.5861 -0.0111 0.8101
vn 0.9352 -0.0981 0.3403
vn -0.3950 -0.6959 0.5997
vn -0.8656 -0.3185 0.3863
vn -0.4652 -0.8731 0.1458
vn -0.5259 -0.8488 -0.0538
vn -0.6597 -0.6714 -0.3375
vn 0.2320 0.5306 -0.8152
vn -0.3148 0.6449 -0.6964
vn 0.7259 -0.2349 -0.6464
vn 0.3695 0.0103 -0.9291
vn 0.2146 0.5777 0.7875
vn -0.2277 0.4527 0.8620
vn -0.1922 -0.9707 0.1442
vn -0.4747 -0.3013 0.8269
vn -0.2157 -0.9495 -0.2278
vn 0.6023 -0.7982 -0.0034
vn 0.7763 -0.5831 -0.2394
vn 0.5394 -0.7530 -0.3768
vn -0.5072 0.4166 0.7544
vn -0.3046 -0.6309 -0.7135
vn -0.5209 0.4925 -0.6971
vn -0.3865 0.6095 -0.6922
vn -0.0013 -0.0743 -0.9972
vn 0.4953 -0.8185 0.2909
vn 0.2217 -0.9611 0.1649
vn 0.8902 -0.2471 -0.3827
vn 0.1943 -0.9512 -0.2395
vn 0.8725 -0.4694 -0.1355
vn 0.4423 -0.5705 -0.6920
vn 0.1294 -0.6479 -0.7506
usemtl Ground
s 1
f 24/1/1 22/2/2 25/3/3
f 36/4/4 24/1/1 25/3/3
f 7/5/5 36/4/4 25/3/3
f 6/6/6 3/7/7 7/5/5
f 7/5/5 35/8/8 6/6/6
f 3/7/7 4/9/9 7/5/5
f 4/9/9 36/4/4 7/5/5
f 21/10/10 22/2/2 24/1/1
f 7/5/5 25/3/3 35/8/8
usemtl Walls
f 42/11/11 50/12/12 46/13/13
f 26/14/14 33/15/15 30/16/16
f 12/17/17 13/18/18 10/19/19
f 49/20/20 26/14/14 28/21/21
f 17/22/22 11/23/23 16/24/24
f 15/25/25 10/19/19 14/26/26
f 25/27/3 20/28/27 23/29/28
f 22/30/2 27/31/29 29/32/30
f 37/33/31 28/21/21 21/34/10
f 4/35/9 5/36/32 36/37/4
f 30/16/16 28/21/21 26/14/14
f 16/24/24 19/38/33 17/22/22
f 11/23/23 17/22/22 9/39/34
f 21/34/10 24/40/1 37/33/31
f 14/26/26 18/41/35 15/25/25
f 20/28/27 22/30/2 29/32/30
f 40/42/36 34/43/37 33/15/15
f 34/43/37 40/42/36 41/44/38
f 4/35/9 2/45/39 5/36/32
f 14/26/26 8/46/40 18/41/35
f 6/47/6 1/48/41 3/49/7
f 1/48/41 38/50/42 48/51/43
f 13/18/18 1/48/41 48/51/43
f 23/29/28 20/28/27 29/32/30
f 17/22/22 46/13/13 9/39/34
f 2/45/39 9/39/34 5/36/32
f 39/52/44 44/53/45 40/42/36
f 50/12/12 5/36/32 9/39/34
f 25/27/3 22/30/2 20/28/27
f 22/30/2 32/54/46 27/31/29
f 37/33/31 49/20/20 28/21/21
f 40/42/36 44/53/45 45/55/47
f 31/56/48 30/16/16 33/15/15 34/43/37
f 43/57/49 47/58/50 48/51/43
f 46/13/13 44/53/45 39/52/44 42/11/11
f 41/44/38 40/42/36 45/55/47
f 14/26/26 10/19/19 13/18/18 8/46/40
f 32/54/46 31/56/48 34/43/37
f 23/29/28 38/50/42 35/59/8 25/27/3
f 46/13/13 19/38/33 44/53/45
f 47/58/50 45/55/47 18/41/35 8/46/40
f 41/44/38 43/57/49 27/31/29 34/43/37
f 50/12/12 9/39/34 46/13/13
f 19/38/33 16/24/24 15/25/25 18/41/35
f 49/20/20 37/33/31 5/36/32 50/12/12
f 38/50/42 23/29/28 29/32/30 48/51/43
f 42/11/11 39/52/44 33/15/15 26/14/14
f 37/33/31 24/40/1 36/37/4 5/36/32
f 33/15/15 39/52/44 40/42/36
f 19/38/33 18/41/35 45/55/47 44/53/45
f 17/22/22 19/38/33 46/13/13
f 50/12/12 42/11/11 26/14/14 49/20/20
f 48/51/43 47/58/50 8/46/40 13/18/18
f 47/58/50 43/57/49 41/44/38 45/55/47
f 11/23/23 9/39/34 2/45/39 4/35/9
f 12/17/17 3/49/7 1/48/41 13/18/18
f 48/51/43 29/32/30 27/31/29 43/57/49
f 27/31/29 32/54/46 34/43/37
f 38/50/42 1/48/41 6/47/6 35/59/8
