# Blender v2.78 (sub 0) OBJ File: 'Mesh_Dungeon_Small_RoomSquare_lod0.blend'
# www.blender.org
mtllib Mesh_CavePack_RoomSquareTurn90_lod1.mtl
o Plane.002_Plane.007
v -7.710787 -0.072487 -6.376648
v -4.778286 0.000001 -8.021714
v 4.820290 -0.004507 -8.021414
v 5.712531 -0.010068 8.037167
v 7.996797 0.033265 4.798206
v 7.999998 0.004458 -4.799963
v 1.590292 0.348477 -0.419799
v -8.271873 0.000191 1.165149
v -3.809150 -0.009137 6.744714
v -8.055799 3.457094 -7.155139
v -4.780410 4.003742 -8.029425
v -6.827239 6.248251 -6.246768
v 7.104076 1.999999 8.000000
v 7.121176 4.094625 7.946237
v 8.000000 3.999999 4.800001
v 7.989329 5.990942 1.604634
v -1.578286 6.000001 -8.021712
v -1.597151 8.084334 -6.343254
v -6.430505 7.959938 -4.863071
v 1.621714 6.000001 -8.021712
v 3.037147 8.096812 -6.009274
v 4.821714 6.000001 -7.125789
v 5.158560 7.960494 5.854813
v 6.293147 8.114305 1.292031
v 8.000000 6.000000 -1.599999
v 6.163035 8.073504 -2.614444
v 7.104076 6.000001 -4.799999
v 8.000000 4.000001 -4.800000
v 4.821714 4.000001 -8.021712
v 3.503944 3.151915 9.448801
v 3.652946 5.999999 8.905500
v -9.537976 3.099263 -3.230805
v -8.883785 6.000000 -3.674660
v 3.304942 7.999999 7.237867
v -9.266968 6.000000 -0.098733
v -9.807920 2.939005 0.147794
v -7.434092 7.973121 1.419064
v -8.356803 2.932477 4.156116
v -7.984442 6.000000 3.677746
v -5.094637 5.999999 6.893987
v -5.303492 2.930842 7.438047
v -3.110846 8.068152 6.103261
v -1.187844 5.999999 8.424282
v -0.976311 2.921097 9.046815
v -0.120474 9.179958 -1.260200
v 0.216484 9.184157 2.321306
vt 0.4966 1.4382
vt 1.3608 0.4416
vt 0.8135 1.2598
vt -0.1410 1.0119
vt -0.3634 0.3410
vt 0.5289 0.3151
vt 0.0442 -0.5327
vt 0.4493 -0.5609
vt 1.2678 -0.0131
vt 0.4028 -0.7143
vt 0.1685 -0.4109
vt 0.0213 -0.6406
vt 0.3590 1.6571
vt 0.0025 1.4965
vt 0.7876 1.3288
vt 0.2104 1.1221
vt 0.6349 1.0156
vt 1.1411 1.0434
vt 0.9353 0.7360
vt 1.3103 0.6502
vt 1.5758 0.7574
vt 0.7952 -0.3920
vt 1.1464 -0.1240
vt 1.5759 0.1569
vt 1.3183 0.2685
vt -0.2984 1.3289
vt -0.1132 1.6683
vt -0.1190 0.1484
vt -0.3460 0.2127
vt -0.2398 -0.0587
vt -0.1587 0.5934
vt -0.2907 0.8385
vt -0.3703 0.5278
vt 0.9636 0.2354
vt 0.4528 0.3538
vt 0.6523 -0.1005
vt 0.2209 0.6140
vt 0.0436 1.0350
vt 0.1956 -0.1911
vt 0.0506 2.1095
vt -0.2406 -0.9370
vt 0.1329 -1.1849
vt -0.4017 1.7703
vt -0.0692 -0.2661
vt -0.2585 -0.4437
vt -0.1041 1.1651
vt 2.1067 0.1569
vt 2.1067 0.7575
vt -0.4651 -0.1802
vt -0.8303 -0.1896
vt -0.5973 0.1604
vt -0.6284 0.5491
vt -0.9594 0.6896
vt -0.5467 0.9453
vn 0.5356 0.7156 0.4484
vn -0.3905 0.8403 0.3761
vn 0.1772 0.8563 0.4851
vn 0.5665 0.8068 -0.1676
vn 0.2782 0.8178 -0.5038
vn 0.0234 0.9997 -0.0036
vn -0.2529 0.7681 -0.5883
vn -0.4540 0.8719 -0.1835
vn -0.4012 0.8299 0.3876
vn 0.3201 -0.2495 0.9139
vn 0.5160 -0.5054 0.6916
vn 0.6814 -0.1037 0.7245
vn -0.9370 -0.2394 -0.2545
vn -0.7331 -0.2595 -0.6287
vn -0.7864 -0.6027 -0.1350
vn -0.4883 -0.8091 -0.3269
vn -0.5198 -0.8519 -0.0636
vn -0.7999 -0.5888 0.1161
vn -0.5070 -0.8423 0.1830
vn -0.7230 -0.5146 0.4609
vn -0.7781 -0.2147 0.5903
vn 0.1253 -0.6110 0.7817
vn -0.1183 -0.6016 0.7900
vn -0.5986 -0.2149 0.7717
vn -0.4689 -0.5150 0.7176
vn -0.0803 0.1159 -0.9900
vn -0.7178 0.1615 -0.6772
vn 0.5250 -0.8355 -0.1619
vn 0.7693 -0.4225 -0.4792
vn 0.8942 -0.4422 -0.0704
vn 0.2603 -0.8323 -0.4894
vn 0.2022 -0.4211 -0.8842
vn 0.5302 -0.4249 -0.7338
vn -0.2165 -0.8438 0.4911
vn 0.0017 -0.9972 0.0743
vn 0.0812 -0.8431 0.5315
vn -0.0049 -0.9958 -0.0918
vn -0.1616 -0.8313 -0.5318
vn 0.4076 -0.8290 0.3830
vn 0.8401 -0.4775 0.2575
vn 0.9759 0.0801 0.2030
vn -0.1910 -0.4574 -0.8685
vn 0.9857 0.1272 -0.1104
vn 0.8323 0.1518 -0.5332
vn 0.5718 0.1467 -0.8072
vn 0.1966 0.1581 -0.9677
usemtl Ground.006
s 1
f 1/1/1 3/2/2 2/3/3
f 8/4/4 9/5/5 7/6/6
f 1/1/1 8/4/4 7/6/6
f 3/2/2 1/1/1 7/6/6
f 3/2/2 7/6/6 4/7/7
f 9/5/5 4/7/7 7/6/6
f 3/2/2 4/7/7 5/8/8 6/9/9
usemtl Walls.003
f 11/10/10 12/11/11 10/12/12
f 15/13/13 14/14/14 16/15/15
f 16/15/15 23/16/16 24/17/17
f 25/18/18 26/19/19 27/20/20
f 27/20/20 28/21/21 25/18/18
f 12/11/11 11/10/10 17/22/22
f 20/23/23 29/24/24 22/25/25
f 30/26/26 14/14/14 13/27/27
f 23/16/16 16/15/15 14/14/14
f 37/28/28 39/29/29 35/30/30
f 42/31/31 43/32/32 40/33/33
f 21/34/34 45/35/35 18/36/36
f 42/31/31 46/37/37 34/38/38
f 45/35/35 26/19/19 24/17/17
f 34/38/38 46/37/37 23/16/16
f 45/35/35 21/34/34 26/19/19
f 24/17/17 23/16/16 46/37/37
f 46/37/37 45/35/35 24/17/17
f 37/28/28 45/35/35 46/37/37
f 19/39/39 18/36/36 45/35/35
f 37/28/28 19/39/39 45/35/35
f 42/31/31 37/28/28 46/37/37
f 15/13/13 5/40/8 13/27/27 14/14/14
f 10/12/12 1/41/1 2/42/3 11/10/10
f 19/39/39 12/11/11 17/22/22 18/36/36
f 5/40/8 4/43/7 13/27/27
f 18/36/36 17/22/22 20/23/23 21/34/34
f 26/19/19 25/18/18 16/15/15 24/17/17
f 20/23/23 22/25/25 21/34/34
f 10/12/12 12/11/11 33/44/40 32/45/41
f 30/26/26 13/27/27 4/43/7
f 14/14/14 30/26/26 31/46/42
f 1/41/1 10/12/12 32/45/41
f 34/38/38 23/16/16 14/14/14 31/46/42
f 19/39/39 33/44/40 12/11/11
f 3/47/2 6/48/9 28/21/21 29/24/24
f 22/25/25 29/24/24 28/21/21 27/20/20
f 21/34/34 22/25/25 27/20/20 26/19/19
f 35/30/30 36/49/43 32/45/41 33/44/40
f 8/50/4 1/41/1 32/45/41 36/49/43
f 37/28/28 35/30/30 33/44/40 19/39/39
f 39/29/29 38/51/44 36/49/43 35/30/30
f 36/49/43 38/51/44 8/50/4
f 40/33/33 41/52/45 38/51/44 39/29/29
f 9/53/5 8/50/4 38/51/44 41/52/45
f 40/33/33 39/29/29 37/28/28 42/31/31
f 43/32/32 44/54/46 41/52/45 40/33/33
f 44/54/46 30/26/26 4/43/7 9/53/5
f 41/52/45 44/54/46 9/53/5
f 44/54/46 43/32/32 31/46/42 30/26/26
f 43/32/32 42/31/31 34/38/38 31/46/42
