# Blender v2.78 (sub 0) OBJ File: 'Mesh_Dungeon_Small_RoomSquare_lod0.blend'
# www.blender.org
mtllib Mesh_CavePack_Platform3_lod1.mtl
o Circle.002
v 1.284506 4.447340 6.027022
v 2.719086 4.379642 4.223691
v 0.049863 4.284368 4.099949
v -1.030242 4.480898 5.810820
v -2.985692 4.377879 3.996487
v 1.411741 4.356203 6.813307
v 2.435493 4.125746 5.804254
v -1.580355 4.325657 6.449780
v -2.703850 4.125748 -5.892903
v -3.048112 4.355975 -4.302511
v 2.396459 4.079449 -5.788170
v 2.603449 4.369945 -4.535038
v -2.661034 4.079447 5.699522
v 1.362012 4.353937 -6.535510
v -1.457293 4.376125 -6.870073
v 0.003196 4.637633 -2.555317
v -3.035882 4.388483 -0.923647
v 2.640299 4.384520 -0.331419
v -2.141043 4.538347 2.260097
v 1.313252 2.451455 -6.555415
v 2.585519 1.802368 -5.712526
v 2.237337 0.297726 -5.542667
v 1.221700 0.308253 -6.202053
v -1.633135 2.342259 -6.996120
v -1.359904 0.295081 -6.503510
v 2.070351 0.295079 5.509028
v 1.210260 0.295079 6.414860
v 1.381420 -0.147872 6.753344
v 2.372711 -0.147872 5.709337
v -1.357166 0.306254 6.109499
v -1.557087 -0.147872 6.459919
v -0.102513 -0.147872 6.473164
v -2.849598 2.080936 -5.954000
v -2.446260 0.310461 -5.412378
v -2.422487 0.295079 5.509027
v -2.783691 -0.145270 5.705303
v -3.178591 2.342259 -4.058457
v -2.599579 0.295406 2.591928
v 2.323674 0.297018 4.288560
v 2.685988 -0.147872 4.272271
v -3.162451 2.337474 3.818768
v -2.750241 1.937798 5.786580
v 2.568367 2.080934 5.865352
v 2.804276 2.219343 4.493158
v 1.459356 2.342257 6.907471
v -1.463459 2.448623 6.455173
v -2.634985 -0.147870 -5.797987
v -2.978616 -0.147870 -4.360920
v 2.589288 -0.147870 -4.360920
v 2.497464 -0.147870 -5.797986
v 1.390025 -0.147870 -6.548570
v 0.066874 -0.147870 -6.561813
v -1.547648 -0.147870 -6.841995
v -2.978616 -0.147871 2.269016
v 2.589288 -0.147871 2.269016
vt -0.4604 0.0142
vt -0.1356 -0.1733
vt -0.1974 0.2588
vt -0.2748 0.7393
vt -0.5066 0.3783
vt -0.3997 -0.1786
vt -0.5886 -0.0386
vt 1.0523 1.0044
vt 1.4877 0.8408
vt 1.3080 1.0042
vt 1.5367 0.3706
vt 1.2440 0.1191
vt 1.4489 0.1715
vt 0.8589 0.4463
vt 0.5978 0.0278
vt 0.5286 0.8193
vt -0.0033 0.6575
vt -0.5393 0.6477
vt -0.6306 0.4458
vt -1.2616 0.6475
vt -1.2477 0.3986
vt -1.0305 0.6596
vt 2.3089 0.6291
vt 2.3050 0.8846
vt 2.1266 0.9080
vt 2.3267 0.4031
vt 2.1590 0.3316
vt 2.3410 0.3223
vt -1.0908 0.3141
vt -0.2234 0.3528
vt -0.0671 0.5984
vt -0.0288 0.8574
vt -0.7228 0.8892
vt 1.0658 0.6137
vt 1.0910 0.3380
vt 1.3525 0.2954
vt 1.1046 0.2688
vt 2.5048 0.4156
vt 2.4884 0.6688
vt -1.4786 0.4040
vt -1.4395 0.6952
vt -1.6383 0.7091
vt -1.6739 0.4565
vt 0.9204 0.2487
vt 0.9150 0.3258
vt 0.7192 0.3083
vt 0.7263 0.2235
vt 0.3538 0.3195
vt 0.3436 0.2473
vt 0.5238 0.2609
vt 0.1648 0.3244
vt 0.1578 0.2395
vt 2.4632 0.9336
vt -1.4251 0.9286
vt -1.6205 0.9444
vt -1.2452 0.8891
vt -1.0541 0.9059
vt 0.1806 0.8148
vt 0.1779 0.5534
vt 0.8909 0.8228
vt 0.8972 0.5767
vt 1.0883 0.8573
vt 0.7133 0.8470
vt 0.7203 0.6072
vt 0.3460 0.8497
vt 0.3583 0.5802
vt -1.2826 0.3161
vt 2.5083 0.3457
vt -1.6873 0.3942
vt -1.4840 0.3251
vt 2.6625 0.3793
vt 1.7138 0.8856
vt -0.2690 0.2834
vn 0.0988 0.9931 0.0624
vn 0.7099 0.7001 0.0775
vn -0.0096 0.9990 0.0427
vn -0.6989 0.7068 0.1092
vn -0.0583 0.9964 0.0615
vn 0.7520 0.5179 0.4078
vn 0.2695 0.6077 0.7470
vn -0.7267 0.6799 -0.0980
vn -0.2160 0.6429 -0.7349
vn -0.7448 0.4974 -0.4449
vn 0.3033 0.6432 -0.7030
vn 0.7284 0.6792 -0.0900
vn 0.7566 0.4238 -0.4979
vn 0.0061 0.9999 -0.0160
vn 0.7195 0.6945 -0.0029
vn -0.7170 0.6971 -0.0074
vn -0.0651 0.9972 0.0361
vn -0.7049 0.5096 0.4935
vn -0.3181 0.6087 0.7268
vn -0.8578 -0.1276 -0.4980
vn -0.8979 0.2026 -0.3907
vn -0.9918 -0.1058 -0.0710
vn 0.8662 -0.1161 -0.4861
vn 0.8521 0.2565 -0.4561
vn 0.8239 0.5666 -0.0109
vn 0.6600 0.6290 -0.4108
vn -0.6979 0.7151 -0.0388
vn -0.9786 0.2032 0.0309
vn -0.9918 -0.0953 0.0856
vn 0.9913 -0.0982 0.0876
vn 0.9747 0.2082 0.0817
vn 0.8160 0.5780 -0.0072
vn 0.7775 0.6261 0.0588
vn 0.3043 0.2502 -0.9191
vn 0.3470 -0.0711 -0.9352
vn -0.2558 0.2224 -0.9408
vn -0.2958 -0.0921 -0.9508
vn 0.6797 0.6351 0.3670
vn 0.8666 0.2141 0.4508
vn 0.2773 0.2167 0.9360
vn 0.2667 0.6078 0.7480
vn -0.2687 0.2489 0.9305
vn -0.2245 0.6445 0.7309
vn -0.1087 0.5003 0.8590
vn -0.7992 0.2948 0.5238
vn -0.6220 0.6904 0.3693
vn -0.8074 -0.1310 0.5753
vn 0.8726 -0.1269 0.4717
vn 0.3122 -0.0975 0.9450
vn -0.3144 -0.0753 0.9463
vn -0.6569 0.6200 -0.4290
vn 0.2395 0.6373 -0.7325
vn 0.1024 0.5104 -0.8538
vn -0.2549 0.6261 -0.7369
vn -0.7651 0.6437 0.0144
usemtl Ground.004
s 1
f 1/1/1 2/2/2 3/3/3
f 5/4/4 4/5/5 3/3/3
f 1/1/1 3/3/3 4/5/5
f 7/6/6 1/1/1 6/7/7
f 10/8/8 15/9/9 9/10/10
f 14/11/11 12/12/12 11/13/13
f 2/2/2 1/1/1 7/6/6
f 15/9/9 16/14/14 14/11/11
f 12/12/12 14/11/11 16/14/14
f 15/9/9 10/8/8 16/14/14
f 16/14/14 18/15/15 12/12/12
f 17/16/16 5/4/4 19/17/17
f 3/3/3 19/17/17 5/4/4
f 2/2/2 19/17/17 3/3/3
f 4/5/5 5/4/4 13/18/18 8/19/19
f 2/2/2 18/15/15 16/14/14 19/17/17
f 1/1/1 4/5/5 8/19/19 6/7/7
f 16/14/14 10/8/8 17/16/16
f 16/14/14 17/16/16 19/17/17
usemtl Wall.002
f 33/20/20 34/21/21 37/22/22
f 21/23/23 11/24/13 12/25/12
f 22/26/24 49/27/25 50/28/26
f 34/21/21 48/29/27 38/30/28
f 41/31/29 5/32/4 17/33/16
f 22/26/24 44/34/30 39/35/31
f 55/36/32 39/35/31 40/37/33
f 23/38/34 20/39/35 21/23/23 22/26/24
f 25/40/36 24/41/37 20/42/35 23/43/34
f 29/44/38 26/45/39 27/46/40 28/47/41
f 25/40/36 34/21/21 33/20/20 24/41/37
f 30/48/42 31/49/43 32/50/44
f 32/50/44 28/47/41 27/46/40 30/48/42
f 31/49/43 30/48/42 35/51/45 36/52/46
f 40/37/33 39/35/31 26/45/39 29/44/38
f 35/51/45 38/30/28 36/52/46
f 11/24/13 21/23/23 20/39/35 14/53/11
f 15/54/9 14/55/11 20/42/35 24/41/37
f 9/56/10 15/54/9 24/41/37 33/20/20
f 9/56/10 33/20/20 37/22/22 10/57/8
f 13/58/18 5/32/4 41/31/29 42/59/47
f 7/60/6 43/61/48 44/34/30 2/62/2
f 7/60/6 6/63/7 45/64/49 43/61/48
f 6/63/7 8/65/19 46/66/50 45/64/49
f 13/58/18 42/59/47 46/66/50 8/65/19
f 35/51/45 42/59/47 41/31/29 38/30/28
f 39/35/31 44/34/30 43/61/48 26/45/39
f 34/21/21 47/67/51 48/29/27
f 27/46/40 26/45/39 43/61/48 45/64/49
f 51/68/52 23/38/34 22/26/24 50/28/26
f 52/69/53 53/70/54 25/40/36 23/43/34
f 27/46/40 45/64/49 46/66/50 30/48/42
f 53/70/54 47/67/51 34/21/21 25/40/36
f 23/38/34 51/68/52 52/71/53
f 30/48/42 46/66/50 42/59/47 35/51/45
f 38/30/28 41/31/29 37/22/22 34/21/21
f 17/33/16 10/57/8 37/22/22 41/31/29
f 44/34/30 21/23/23 12/25/12 18/72/15
f 22/26/24 21/23/23 44/34/30
f 55/36/32 49/27/25 22/26/24 39/35/31
f 38/30/28 48/29/27 54/73/55
f 18/72/15 2/62/2 44/34/30
f 38/30/28 54/73/55 36/52/46
