# Blender v2.78 (sub 0) OBJ File: ''
# www.blender.org
mtllib Mesh_CavePack_Door.mtl
o Cube_Cube.001
v -2.000000 0.000000 0.166726
v -2.000000 4.233980 0.166726
v -2.000000 0.000000 -0.143917
v -2.000000 4.233980 -0.143917
v 2.000000 0.000000 0.166726
v 2.000000 4.233980 0.166726
v 2.000000 0.000000 -0.143917
v 2.000000 4.233980 -0.143917
v -2.445467 4.107513 0.359255
v -2.445467 4.477065 0.359255
v -2.445467 4.107513 -0.243283
v -2.445467 4.477065 -0.243283
v 2.445467 4.107513 0.359255
v 2.445467 4.477065 0.359255
v 2.445467 4.107513 -0.243283
v 2.445467 4.477065 -0.243283
v -1.915225 -0.100376 0.248493
v -2.284776 -0.100376 0.248493
v -1.915225 -0.100376 -0.243283
v -2.284776 -0.100376 -0.243284
v -1.915224 4.237757 0.248494
v -2.284776 4.237757 0.248494
v -1.915224 4.237757 -0.243283
v -2.284776 4.237757 -0.243283
v 2.284776 -0.100376 0.248493
v 1.915224 -0.100376 0.248493
v 2.284776 -0.100376 -0.243283
v 1.915224 -0.100376 -0.243284
v 2.284776 4.237757 0.248494
v 1.915225 4.237757 0.248494
v 2.284776 4.237757 -0.243283
v 1.915225 4.237757 -0.243283
vt 0.9860 0.0954
vt 0.0161 0.0923
vt 0.0164 0.0498
vt 0.9863 0.0529
vt 0.0164 0.0498
vt 0.9863 0.0529
vt 0.9860 0.0954
vt 0.0161 0.0923
vt 0.9939 0.0992
vt 0.9939 0.9971
vt 0.0056 0.9971
vt 0.0056 0.0992
vt 0.9860 0.0954
vt 0.0161 0.0923
vt 0.0164 0.0498
vt 0.9863 0.0529
vt 0.0164 0.0498
vt 0.9863 0.0529
vt 0.9860 0.0954
vt 0.0161 0.0923
vt 0.9719 0.0430
vt 0.9715 0.0935
vt 0.8980 0.0932
vt 0.8983 0.0427
vt 0.9719 0.0430
vt 0.9715 0.0935
vt 0.8980 0.0932
vt 0.8983 0.0427
vt 0.0163 0.0923
vt 0.0166 0.0418
vt 0.9864 0.0449
vt 0.9860 0.0954
vt 0.9860 0.0954
vt 0.0163 0.0923
vt 0.0169 0.0099
vt 0.9866 0.0130
vt 0.0169 0.0099
vt 0.9866 0.0130
vt 0.9860 0.0954
vt 0.0163 0.0923
vt 0.9719 0.0430
vt 0.9715 0.0935
vt 0.8980 0.0932
vt 0.8983 0.0427
vt 0.8980 0.0932
vt 0.8983 0.0427
vt 0.9719 0.0430
vt 0.9715 0.0935
vt 0.0163 0.0923
vt 0.0166 0.0418
vt 0.9865 0.0449
vt 0.9861 0.0954
vt 0.0166 0.0250
vt 0.9865 0.0282
vt 0.9860 0.0954
vt 0.0161 0.0923
vt 0.9860 0.0954
vt 0.0161 0.0923
vt 0.0166 0.0250
vt 0.9865 0.0282
vt 0.9719 0.0430
vt 0.9715 0.0935
vt 0.8980 0.0932
vt 0.8983 0.0427
vt 0.8980 0.0932
vt 0.8983 0.0427
vt 0.9719 0.0430
vt 0.9715 0.0935
vt 0.9863 0.0449
vt 0.9860 0.0954
vt 0.0161 0.0923
vt 0.0165 0.0418
vt 0.0166 0.0250
vt 0.9865 0.0282
vt 0.9860 0.0954
vt 0.0161 0.0923
vt 0.9860 0.0954
vt 0.0161 0.0923
vt 0.0166 0.0250
vt 0.9865 0.0282
vn -1.0000 0.0000 0.0000
vn 1.0000 0.0000 0.0000
vn 0.0000 0.0000 1.0000
vn 0.0000 -1.0000 0.0000
vn 0.0000 1.0000 0.0000
usemtl None
s off
f 1/1/1 2/2/1 4/3/1 3/4/1
f 7/5/2 8/6/2 6/7/2 5/8/2
f 5/9/3 6/10/3 2/11/3 1/12/3
f 3/13/4 7/14/4 5/15/4 1/16/4
f 8/17/5 4/18/5 2/19/5 6/20/5
f 9/21/1 10/22/1 12/23/1 11/24/1
f 15/25/2 16/26/2 14/27/2 13/28/2
f 13/29/3 14/30/3 10/31/3 9/32/3
f 11/33/4 15/34/4 13/35/4 9/36/4
f 16/37/5 12/38/5 10/39/5 14/40/5
f 17/41/4 18/42/4 20/43/4 19/44/4
f 23/45/5 24/46/5 22/47/5 21/48/5
f 21/49/3 22/50/3 18/51/3 17/52/3
f 19/53/2 23/54/2 21/55/2 17/56/2
f 24/57/1 20/58/1 18/59/1 22/60/1
f 25/61/4 26/62/4 28/63/4 27/64/4
f 31/65/5 32/66/5 30/67/5 29/68/5
f 29/69/3 30/70/3 26/71/3 25/72/3
f 27/73/2 31/74/2 29/75/2 25/76/2
f 32/77/1 28/78/1 26/79/1 30/80/1
