# Blender v2.78 (sub 0) OBJ File: 'Mesh_Dungeon_Small_RoomSquare_lod0.blend'
# www.blender.org
mtllib Mesh_CavePack_Slope_Long_lod1.mtl
o Plane.003
v -4.034606 1.487733 5.112922
v -2.461137 2.268620 2.885598
v -5.157321 0.956811 -4.775987
v -7.999940 0.007134 4.799247
v 23.994368 8.024336 -4.797370
v 5.377994 8.972927 5.365263
v 4.691591 8.780277 -5.275052
v -2.791974 2.354959 -3.574062
v -7.997498 0.000001 -4.804238
v 2.938614 12.312988 2.889073
v 24.000000 7.999999 4.800002
v 8.529137 7.190734 5.080763
v 23.113802 11.117417 8.057635
v 20.809492 14.146093 7.661648
v 22.706354 14.523464 4.710846
v 24.000000 11.999999 4.800002
v -1.550469 9.795053 5.468122
v 4.060837 12.969756 -2.055197
v 8.105683 7.681910 -5.115211
v -0.328038 7.303960 6.451663
v -7.997498 6.000000 -1.604236
v -6.561318 9.138945 0.045300
v -7.997498 6.000000 1.595764
v -4.992626 9.130654 -5.281435
v -0.995211 7.174111 -6.357596
v -7.101574 7.815544 -4.804236
v -5.606918 9.079368 -2.819651
v 24.000000 9.999999 4.800002
v -7.050146 5.599782 -6.755984
v -8.028947 3.992303 -4.833996
v -1.931606 11.177684 3.473006
v -3.295171 11.413309 0.102304
v 2.103447 4.350032 5.463873
v -3.241959 4.150178 -5.948592
v -6.379220 2.396417 -6.278738
v 22.071718 13.557329 -6.995165
v 24.000000 12.000001 -4.799998
v 24.000000 14.000000 -1.599998
v 24.000000 14.000000 1.600002
v -4.926565 2.236141 6.647294
v -7.101574 5.999999 4.795764
v -5.260793 9.079366 3.528768
v -8.041684 3.993140 4.837552
v -6.517573 4.863196 6.877108
v 1.671172 12.522873 0.388438
v -2.214941 11.404881 -2.730331
v 3.073591 10.901844 -4.197031
v 5.367206 11.581650 4.554948
v -2.557569 3.900240 6.103152
v 3.386058 3.613441 -3.090140
v 22.442711 11.913171 -8.013358
v 1.590001 4.994739 -5.532725
v 3.386189 3.243856 2.155016
v 22.480345 9.141175 -8.033758
v 21.282007 9.060226 8.752474
v 7.155815 5.234260 2.035023
v 8.926002 6.319470 -3.026343
v 11.722260 10.569296 7.271633
v 10.185474 12.969939 -5.737750
v 8.833202 10.240702 -6.169889
v 12.354238 15.465610 1.452556
v 10.223630 6.166927 2.318823
v 14.741323 6.427365 4.209970
v 15.765871 6.494620 -4.339000
v 15.101860 13.799026 7.528482
v 14.249893 10.814026 -8.471983
v 10.941713 14.545872 4.117411
v 15.573912 6.131432 1.068135
v 19.383209 14.191638 -8.440799
v 16.071398 15.437221 4.734115
v 14.216790 7.617594 7.215697
v 10.974126 14.979052 -3.012311
v 15.096867 8.618956 -7.878133
v 19.471292 16.000465 -3.106737
v 18.698893 11.836545 9.262616
v 19.282757 11.631487 -8.856123
v 19.602901 16.146841 2.081185
vt -1.0898 1.3301
vt -1.4962 0.1878
vt -0.9854 0.1486
vt -0.7596 0.4192
vt 0.8084 0.4916
vt 1.5020 0.6145
vt 1.4745 1.2918
vt 2.4939 1.3538
vt 2.5001 0.2031
vt 1.3735 0.2649
vt 2.4190 -0.6297
vt 2.1142 -0.5212
vt 1.5849 -1.0995
vt -0.0840 0.5242
vt -0.0604 1.1316
vt -0.8105 1.1898
vt -1.4962 1.3334
vt 0.6700 1.1562
vt 0.4144 0.5253
vt 0.3983 0.1090
vt 1.1614 0.1351
vt 0.1253 0.4066
vt -0.7526 0.3550
vt -1.1340 0.5511
vt -1.1380 0.1539
vt 0.4783 0.9707
vt 1.1663 1.2668
vt 0.3935 1.2650
vt 2.3784 1.2827
vt 2.0640 1.2144
vt 2.3170 1.0438
vt 0.7093 -0.7799
vt 0.8922 -0.4810
vt 0.3455 -0.5097
vt 0.6963 1.6175
vt 0.8363 1.8932
vt 0.4327 1.9128
vt 2.0282 -0.2079
vt 2.3392 -0.1947
vt 2.3477 0.2348
vt 2.3427 0.5931
vt 2.1006 0.8485
vt -1.2122 1.0136
vt -0.9575 1.1233
vt -1.0172 1.3967
vt -1.0691 -0.6356
vt -1.2111 -0.3126
vt -1.4800 -0.7554
vt -0.1649 1.6163
vt -0.9815 0.9016
vt -0.8477 -0.1223
vt -0.9290 -0.3590
vt -0.7080 -0.7001
vt 2.0588 -0.3384
vt -1.0731 -0.9209
vt -0.6765 0.0711
vt -0.6362 -0.1437
vt -0.2855 0.0936
vt 1.3904 1.5659
vt -0.3006 0.9592
vt -0.3018 1.2241
vt -0.1555 -0.8047
vt -0.3517 -0.4915
vt -1.0066 1.6533
vt -1.4800 1.4350
vt 1.0689 -0.2158
vt 1.1254 0.7715
vt 1.4944 1.0320
vt 1.4613 -0.4653
vt 1.8256 -0.2436
vt 1.7569 1.1921
vt 1.2542 0.4973
vt 1.5622 0.7709
vt 1.8794 0.1497
vt 1.5350 -0.6867
vt 0.7486 -1.1140
vt 2.3696 1.5110
vt 1.4098 1.9412
vt 1.9474 1.3914
vt 1.8652 0.5838
vt 1.9004 1.0256
vt 0.2370 -0.1901
vt 0.2489 0.6990
vt -0.7733 -1.0554
vt -0.6557 0.7085
vt -0.0040 -1.1813
vt -0.0911 1.9278
vt -0.7371 1.7859
vt -0.6895 1.4650
vt -0.2755 0.6962
vt -0.3567 0.3660
vt 1.8512 -0.4006
vn -0.4273 0.7990 0.4230
vn -0.0737 0.8583 -0.5079
vn -0.5027 0.8027 -0.3209
vn -0.3711 0.9143 -0.1619
vn -0.0886 0.9829 -0.1614
vn -0.0939 0.9954 -0.0180
vn -0.0489 0.9556 0.2907
vn -0.5002 0.8026 0.3249
vn -0.4534 0.8335 -0.3156
vn -0.0495 0.9677 -0.2470
vn -0.4952 0.4490 0.7437
vn -0.3231 0.9305 -0.1723
vn -0.3193 0.8863 0.3354
vn -0.3872 0.8555 0.3437
vn -0.0763 0.8606 0.5035
vn -0.1825 0.9284 0.3236
vn -0.3836 0.9075 -0.1713
vn 0.2750 -0.9004 0.3371
vn 0.2363 -0.9313 0.2773
vn 0.2410 -0.9690 -0.0545
vn 0.7347 -0.6765 -0.0500
vn 0.8554 -0.4855 -0.1808
vn 0.8958 -0.4389 0.0704
vn 0.2250 -0.5418 -0.8098
vn 0.3104 0.0002 -0.9506
vn 0.0393 -0.0885 -0.9953
vn -0.8947 0.1750 -0.4109
vn -0.7266 -0.1326 -0.6741
vn -0.8708 -0.3435 -0.3516
vn -0.0045 0.5739 0.8189
vn 0.3033 -0.0016 0.9529
vn 0.0545 -0.1430 0.9882
vn -0.0183 0.6680 -0.7440
vn -0.5766 -0.6335 0.5160
vn -0.8641 -0.3193 0.3890
vn -0.4990 -0.8574 0.1263
vn -0.5476 -0.8345 -0.0602
vn -0.5675 -0.7705 -0.2904
vn 0.7822 -0.1202 -0.6114
vn 0.4661 -0.1137 -0.8774
vn -0.1148 0.4536 -0.8838
vn 0.1076 0.3588 0.9272
vn 0.8462 -0.0651 0.5289
vn -0.2530 0.6052 -0.7548
vn 0.7379 -0.5259 -0.4230
vn 0.8093 -0.5183 0.2765
vn 0.4627 -0.1548 0.8729
vn -0.2464 0.4322 0.8675
vn -0.6289 -0.1953 0.7526
vn 0.6456 -0.7523 0.1312
vn 0.3740 -0.7101 0.5966
vn 0.2928 -0.8910 0.3469
vn 0.1232 0.6691 -0.7329
vn 0.1963 -0.5979 -0.7771
vn -0.0873 -0.0933 -0.9918
vn -0.2233 0.4891 0.8432
vn -0.0820 -0.1448 0.9861
vn 0.3309 -0.6109 0.7192
vn 0.2876 -0.8718 -0.3964
vn 0.2318 -0.6275 -0.7433
vn 0.2579 -0.0428 0.9652
vn -0.1047 -0.6625 0.7417
vn 0.0322 -0.1665 -0.9855
vn 0.1894 -0.9789 -0.0764
vn 0.0801 -0.9444 -0.3188
vn -0.1619 -0.9716 0.1727
vn 0.0926 0.6006 0.7942
vn -0.3329 0.4652 -0.8202
vn -0.1679 -0.9812 -0.0950
vn -0.3025 -0.6932 -0.6542
vn 0.1503 -0.6161 0.7732
vn 0.2218 -0.8932 -0.3911
vn 0.6048 -0.6837 -0.4084
vn -0.3181 0.4676 -0.8247
vn 0.3201 -0.8608 -0.3956
vn 0.4310 -0.9018 -0.0300
vn -0.0849 -0.0121 0.9963
usemtl Ground.001
s 1
f 3/1/1 4/2/2 1/3/3
f 1/3/3 2/4/4 3/1/1
f 62/5/5 68/6/6 64/7/7
f 68/6/6 5/8/8 64/7/7
f 5/8/8 68/6/6 11/9/9
f 68/6/6 63/10/10 11/9/9
f 5/11/8 54/12/11 64/13/7
f 2/4/4 53/14/12 50/15/13 8/16/14
f 3/1/1 2/4/4 8/16/14
f 9/17/15 4/2/2 3/1/1
f 57/18/16 56/19/17 62/5/5
f 56/19/17 57/18/16 50/15/13 53/14/12
f 62/5/5 63/10/10 68/6/6
f 57/18/16 62/5/5 64/7/7
usemtl Walls.001
f 18/20/18 72/21/19 45/22/20
f 22/23/21 23/24/22 21/25/23
f 48/26/24 58/27/25 6/28/26
f 28/29/27 13/30/28 16/31/29
f 19/32/30 60/33/31 7/34/32
f 12/35/33 62/36/5 56/37/17
f 36/38/34 37/39/35 38/40/36
f 39/41/37 16/31/29 15/42/38
f 43/43/39 44/44/40 40/45/41
f 35/46/42 30/47/43 9/48/15
f 6/28/26 12/35/33 33/49/44
f 41/50/45 43/43/39 23/24/22
f 21/25/23 30/47/43 26/51/46
f 29/52/47 35/46/42 34/53/48
f 37/39/35 36/38/34 51/54/49
f 9/48/15 3/55/1 35/46/42
f 27/56/50 24/57/51 46/58/52
f 12/35/33 58/27/25 71/59/53
f 17/60/54 20/61/55 44/44/40
f 52/62/56 7/34/32 25/63/57
f 1/64/3 4/65/2 40/45/41
f 35/46/42 29/52/47 30/47/43
f 59/66/58 72/21/19 18/20/18
f 48/26/24 67/67/59 65/68/60
f 66/69/61 69/70/62 59/66/58
f 58/27/25 65/68/60 75/71/63
f 67/67/59 61/72/64 70/73/65
f 74/74/66 38/40/36 39/41/37
f 73/75/67 64/13/7 54/12/11
f 73/75/67 19/32/30 57/76/16 64/13/7
f 11/77/9 63/78/10 55/79/68
f 63/78/10 71/59/53 55/79/68
f 38/40/36 74/74/66 36/38/34
f 69/70/62 36/38/34 74/74/66
f 72/21/19 69/70/62 74/74/66
f 74/74/66 77/80/69 61/72/64
f 45/22/20 72/21/19 61/72/64
f 15/42/38 16/31/29 13/30/28 14/81/70
f 47/82/71 59/66/58 18/20/18
f 6/28/26 58/27/25 12/35/33
f 61/72/64 67/67/59 10/83/72 45/22/20
f 21/25/23 26/51/46 27/56/50 22/23/21
f 26/51/46 30/47/43 29/52/47 24/57/51
f 3/55/1 8/84/14 34/53/48 35/46/42
f 42/85/73 41/50/45 23/24/22 22/23/21
f 59/66/58 47/82/71 7/34/32 60/33/31
f 48/26/24 10/83/72 67/67/59
f 57/76/16 19/32/30 52/62/56 50/86/13
f 33/49/44 53/87/12 2/88/4 49/89/74
f 56/37/17 53/87/12 33/49/44 12/35/33
f 34/53/48 52/62/56 25/63/57 29/52/47
f 44/44/40 43/43/39 41/50/45
f 17/60/54 42/85/73 31/90/75
f 49/89/74 44/44/40 20/61/55 33/49/44
f 32/91/76 22/23/21 27/56/50 46/58/52
f 40/45/41 4/65/2 43/43/39
f 24/57/51 27/56/50 26/51/46
f 8/84/14 50/86/13 52/62/56 34/53/48
f 32/91/76 31/90/75 42/85/73 22/23/21
f 52/62/56 19/32/30 7/34/32
f 45/22/20 32/91/76 46/58/52 18/20/18
f 29/52/47 25/63/57 24/57/51
f 10/83/72 48/26/24 17/60/54 31/90/75
f 1/64/3 40/45/41 49/89/74 2/88/4
f 37/39/35 51/54/49 54/12/11 5/11/8
f 28/29/27 11/77/9 55/79/68 13/30/28
f 17/60/54 44/44/40 41/50/45 42/85/73
f 6/28/26 20/61/55 17/60/54 48/26/24
f 33/49/44 20/61/55 6/28/26
f 40/45/41 44/44/40 49/89/74
f 45/22/20 10/83/72 31/90/75 32/91/76
f 47/82/71 18/20/18 46/58/52 24/57/51
f 47/82/71 24/57/51 25/63/57 7/34/32
f 63/78/10 62/36/5 12/35/33 71/59/53
f 58/27/25 48/26/24 65/68/60
f 66/69/61 60/33/31 19/32/30 73/75/67
f 60/33/31 66/69/61 59/66/58
f 75/71/63 14/81/70 13/30/28 55/79/68
f 72/21/19 59/66/58 69/70/62
f 65/68/60 67/67/59 70/73/65
f 58/27/25 75/71/63 71/59/53
f 61/72/64 72/21/19 74/74/66
f 55/79/68 71/59/53 75/71/63
f 73/75/67 54/12/11 76/92/77 66/69/61
f 76/92/77 51/54/49 36/38/34 69/70/62
f 54/12/11 51/54/49 76/92/77
f 70/73/65 77/80/69 15/42/38 14/81/70
f 66/69/61 76/92/77 69/70/62
f 77/80/69 74/74/66 39/41/37 15/42/38
f 77/80/69 70/73/65 61/72/64
f 70/73/65 14/81/70 65/68/60
f 65/68/60 14/81/70 75/71/63
