# Blender v2.78 (sub 0) OBJ File: 'Mesh_Dungeon_Small_RoomSquare_lod0.blend'
# www.blender.org
mtllib Mesh_CavePack_Room_3way_lod2.mtl
o Plane.004
v -2.282232 -0.033493 5.991096
v -7.996070 0.014254 -4.800601
v -7.975228 0.198387 4.768610
v 23.993549 8.027931 -4.796962
v 23.921135 8.276528 4.759584
v 22.778761 9.792235 8.292220
v 20.125809 12.815236 8.085726
v 20.862181 15.706510 4.970493
v 24.000000 11.999998 4.800004
v -7.997498 6.000000 -1.604235
v -5.238663 10.456945 1.048593
v -7.997498 6.000000 1.595765
v -6.092415 9.224754 -4.429585
v -8.078078 3.901949 -5.021277
v 21.292446 13.505546 -10.660597
v 24.000000 12.000002 -4.799996
v 24.000000 14.000000 -1.599996
v 24.000000 14.000000 1.600004
v -8.099897 4.027937 4.860628
v -6.635054 4.592961 6.818951
v 22.525955 9.001151 -7.837608
v 18.142632 15.569535 -8.097216
v 12.601843 -1.675315 -19.049059
v 22.873808 -0.177323 -18.517345
v 20.766356 0.125745 -23.942682
v 11.186089 0.004947 -23.975788
v 24.518162 4.296106 -22.254416
v 17.507860 6.106450 -24.035248
v 20.785084 3.999998 -23.977793
v 6.099071 5.001769 -20.375950
v 11.185085 4.000002 -23.977793
v 14.385084 6.000000 -23.977791
v 7.162820 1.173539 -21.829538
v 23.711266 0.608074 -21.832092
v 13.251038 9.051918 -18.225706
v 20.922424 9.095899 -18.258539
v 5.583908 -0.846964 -4.473704
v -2.475732 -0.086810 -6.245121
v 17.818092 6.693071 -4.724280
v 18.400568 6.915586 4.675350
v 12.379986 6.706531 -5.133860
v 11.585914 6.852627 4.923045
v 11.555914 9.864174 5.505264
v 20.783978 4.809053 -8.068531
v 22.687035 4.560096 -14.998224
v 19.440548 3.106433 -12.591747
v 16.935104 3.334073 -15.502418
v 13.680443 2.840836 -8.535801
v 12.618866 3.059271 -13.195424
v 9.594927 -0.205071 -6.238808
v 12.906398 -1.700390 -14.435689
v 22.251583 4.349291 -17.845375
v -0.921352 -1.817405 -21.830341
v 10.629554 -1.863355 -10.147740
v 12.835137 0.624872 -7.617785
v 9.693129 -0.148488 6.128266
v -5.538939 -1.608886 -17.768183
v -5.741325 -0.133976 -12.769130
v -0.117778 0.443972 8.369661
v 2.383991 10.359958 7.689207
v -4.159187 9.374435 5.702868
v 14.390121 15.974411 1.301545
v 3.011429 14.168094 0.930016
v 7.420167 12.886728 4.268600
v -3.250672 3.671527 -6.899632
v -6.559443 3.967880 -12.344954
v -1.628043 2.358718 -22.682453
v -6.505940 2.349340 -17.790611
v -1.309302 5.558152 -21.047159
v -5.306367 6.236238 -15.176828
v 3.106733 7.414580 -15.874027
v -2.103831 6.404743 -8.942279
v -1.183468 9.302646 -6.401304
v 23.184299 10.248095 -13.875785
v 2.214451 12.723127 -5.565879
v 16.975374 0.342529 -15.967848
vt 1.5445 3.2052
vt 2.9896 1.9923
vt 3.2052 2.9527
vt -1.9346 3.1982
vt -2.2052 1.6504
vt -1.3608 1.7727
vt 1.3256 2.2240
vt 0.8859 2.4559
vt 0.1006 2.6966
vt 1.1965 1.4091
vt 0.1070 1.8987
vt -0.2551 1.6236
vt 0.7761 1.4399
vt 0.9051 0.2347
vt 2.8845 0.5758
vt 0.7342 0.9480
vt -2.0614 -0.3292
vt 0.0517 1.2610
vt -0.7296 1.6881
vt 0.5052 -1.0614
vt 0.5712 -1.9528
vt 2.2317 -2.2052
vt 2.4897 -1.3871
vt -0.6705 -1.2234
vt -1.0071 2.2126
vt 2.7146 0.9576
vt -0.4773 2.2281
vt -1.5301 -1.1410
vt 3.0541 -1.0208
vt 2.3740 2.0651
vt 2.0980 1.9372
vt 2.3740 1.7714
vt -1.4884 2.1663
vt -1.1894 2.3565
vt -1.1566 2.6396
vt 1.5284 2.3110
vt 1.3273 2.0995
vt 1.5284 2.0423
vt 1.3347 1.2935
vt 1.5780 1.2889
vt 1.1671 1.5059
vt 0.8858 2.2022
vt 1.3297 2.2044
vt 1.2892 2.5086
vt 1.3405 1.0768
vt 1.1857 0.8563
vt 1.5443 0.9761
vt 0.8822 2.4998
vt -1.1333 2.0648
vt -0.9407 2.1576
vt 2.4437 0.2043
vt 2.4437 0.5851
vt 2.3147 0.3452
vt 0.8630 1.4989
vt 1.2194 1.7031
vt -1.2128 -0.6856
vt -1.6396 -1.1231
vt -1.6169 -1.3658
vt 2.0207 0.6066
vt 2.2890 0.2043
vt 2.3147 0.6066
vt -1.4762 -0.3890
vt 2.2385 2.3952
vt 2.0841 2.2133
vt 2.2385 2.0869
vt -0.2360 0.5356
vt -0.6203 0.8182
vt -0.9056 0.7682
vt -0.8291 0.2461
vt -1.1499 0.7648
vt 2.4708 -1.5865
vt 2.0767 -1.3879
vt 2.1835 -1.6396
vt 2.3816 -1.1234
vt 0.2019 1.1996
vt 0.0093 1.0637
vt 0.1519 0.8183
vt 1.6063 1.8598
vt 1.8441 1.9736
vt 1.9867 2.2008
vt 0.7222 0.8633
vt 0.7852 1.3070
vt 0.5793 1.0643
vt 2.4937 -0.5733
vt 2.3585 -0.2904
vt 2.1198 -0.2990
vt 2.2334 -0.9270
vt 2.6368 1.6365
vt 2.2800 1.6626
vt 2.3874 1.2881
vt -0.0752 1.6741
vt -0.2307 1.9598
vt -0.2809 0.9809
vt 1.8851 0.4269
vt 1.4381 0.8307
vt 1.2949 0.1040
vt 2.2385 2.1025
vt 2.4244 2.1274
vt 2.2654 2.3405
vt 2.0188 -0.2570
vt 1.7373 -0.4755
vt 1.4191 -0.6449
vt 0.7190 -1.1565
vt 0.7624 -0.7748
vt 0.0421 -0.7756
vt 1.4833 -1.3313
vt 1.1437 -0.4012
vt 1.2407 -1.4465
vt 2.0678 1.7714
vt 1.7921 1.3727
vt 1.5986 1.3578
vt 1.9092 0.9211
vt 2.4569 2.0885
vt 2.5629 2.3811
vt 2.4244 2.2965
vt 2.2666 0.7901
vt 2.1587 0.7901
vt 2.2343 0.6066
vt 1.2703 1.8516
vt 0.8719 1.7804
vt -0.0048 0.1698
vt 0.4801 -0.3503
vt 0.6586 0.1353
vt 0.3600 -0.5955
vt 0.0516 1.6978
vt 2.0207 -0.5797
vt -1.3138 0.8182
vt -1.1231 1.0224
vt -1.5436 0.9638
vt -1.3321 1.2649
vt 0.5793 1.6137
vt 0.6443 1.3070
vt 0.8142 1.6137
vt -0.9054 1.9344
vt -0.8600 2.1817
vt -1.5191 1.7915
vt -1.5688 -0.1243
vt -1.4322 0.2483
vt -0.9618 -1.3284
vt 0.0197 -1.2641
vt -1.3692 0.8003
vt -1.5673 0.6728
vt 2.1469 2.4015
vt 0.8074 1.8633
vt 0.5793 1.9248
vt 0.7280 1.6629
vt 2.4438 0.1122
vt 2.5643 1.1000
vt -1.3703 -1.6109
vt 0.9604 -1.0869
vt 0.8572 -0.1488
vt 1.1484 0.5683
vt 0.9265 0.4943
vt 0.3474 0.5858
vt 0.4177 0.7800
vt -0.2243 0.6674
vt -1.6195 1.4171
vt -1.2193 1.5077
vt -1.6396 1.6135
vt 1.5013 -1.6396
vt 1.7156 -1.4957
vt 0.4665 0.8378
vt 0.4869 1.3150
vt 0.7624 1.9774
vt 0.7624 2.2342
vt 0.5825 2.1824
vt 0.5793 1.9248
vt -0.9146 1.2769
vt -1.0864 1.4721
vt -0.4481 1.9454
vt -0.8318 0.9928
vt -0.1075 2.2019
vt 1.5952 1.7341
vt 2.1045 1.3918
vt 2.1685 1.7366
vt 1.8584 1.7484
vt 0.3769 1.7182
vt 0.3241 2.2530
vt 0.0168 2.1783
vt 2.2001 0.8705
vt 0.5793 1.8008
vt 0.5437 2.1620
vt 0.8471 -0.0303
vt 0.8345 0.4099
vn -0.5258 0.7961 0.2996
vn -0.0583 0.8944 -0.4434
vn -0.5176 0.8013 -0.3001
vn -0.3343 0.7960 0.5046
vn 0.3667 0.7419 0.5614
vn -0.0685 0.9872 0.1443
vn -0.1406 0.9615 -0.2361
vn -0.5307 0.7025 -0.4742
vn -0.2404 0.9678 -0.0742
vn -0.7301 0.6158 -0.2964
vn -0.8070 0.5403 -0.2384
vn -0.6009 0.7035 -0.3794
vn -0.6454 0.7551 0.1155
vn -0.0145 0.9964 -0.0832
vn -0.5067 0.6228 -0.5962
vn -0.3550 0.9230 -0.1483
vn 0.2172 0.7258 0.6527
vn -0.5368 0.7932 -0.2877
vn -0.4771 0.8134 -0.3326
vn 0.3322 0.9386 0.0925
vn 0.2198 0.7873 0.5760
vn 0.2582 0.8096 -0.5271
vn 0.2204 0.9023 -0.3706
vn 0.7469 0.6063 -0.2729
vn -0.3869 0.5596 -0.7329
vn -0.4105 0.4210 -0.8088
vn -0.3619 0.7461 -0.5589
vn 0.6476 0.7279 0.2253
vn 0.0927 0.5627 -0.8215
vn -0.4088 0.2410 -0.8802
vn -0.7697 -0.4248 -0.4765
vn -0.5241 -0.7652 0.3740
vn -0.9012 -0.2540 0.3511
vn -0.4021 -0.9125 0.0755
vn -0.5074 -0.8580 -0.0796
vn -0.2821 -0.8735 -0.3967
vn 0.8276 -0.5315 -0.1806
vn 0.6153 -0.7770 -0.1327
vn 0.8315 -0.2805 -0.4794
vn 0.8893 -0.1765 0.4220
vn 0.5470 -0.1618 0.8213
vn 0.8831 -0.4635 0.0732
vn 0.6392 -0.5900 0.4933
vn -0.9530 0.2905 0.0864
vn 0.5902 -0.1333 -0.7962
vn -0.0729 -0.9394 0.3350
vn -0.8932 -0.2747 0.3559
vn -0.3804 -0.2986 0.8753
vn 0.1617 -0.6355 0.7550
vn 0.4563 -0.3929 0.7984
vn 0.1883 -0.8271 0.5296
vn 0.1714 -0.8825 0.4379
vn -0.1274 -0.8226 0.5541
vn -0.6216 0.6359 -0.4574
vn -0.7680 0.5701 0.2918
vn 0.1543 0.2294 0.9610
vn 0.0880 0.0361 -0.9955
vn -0.0690 -0.3209 -0.9446
vn -0.8220 0.5646 0.0746
vn 0.0531 -0.5154 -0.8553
vn 0.3470 -0.8762 0.3344
vn 0.0622 -0.7473 -0.6615
vn 0.9130 -0.2911 -0.2860
vn 0.6116 -0.7819 0.1211
vn 0.7537 -0.6566 0.0270
vn 0.5437 -0.5329 0.6484
vn 0.2006 -0.9038 0.3780
vn -0.8886 0.0913 -0.4495
vn -0.9205 -0.3256 0.2163
vn -0.5113 -0.7287 0.4556
vn 0.1294 -0.9808 -0.1458
vn 0.2631 -0.9535 -0.1472
vn 0.4785 -0.6781 -0.5579
vn 0.2385 -0.7280 0.6428
vn 0.3316 -0.1569 0.9303
vn 0.9116 -0.0842 0.4023
usemtl Ground.002
s 1
f 4/1/1 40/2/2 5/3/3
f 25/4/4 26/5/5 23/6/6
f 4/1/1 39/7/7 40/2/2
f 44/8/8 46/9/9 41/10/10
f 48/11/11 49/12/12 55/13/13
f 37/14/14 56/15/15 50/16/16
f 53/17/17 54/18/18 51/19/19
f 53/17/17 37/14/14 54/18/18
f 37/14/14 50/16/16 54/18/18
f 55/13/13 50/16/16 56/15/15
f 38/20/20 2/21/21 3/22/22 1/23/23
f 37/14/14 58/24/24 38/20/20
f 51/19/19 76/25/25 23/6/6
f 1/23/23 37/14/14 38/20/20
f 40/2/2 41/10/10 42/26/26
f 39/7/7 44/8/8 41/10/10
f 49/12/12 48/11/11 47/27/27
f 48/11/11 46/9/9 47/27/27
f 50/16/16 55/13/13 49/12/12
f 51/19/19 23/6/6 53/17/17
f 37/14/14 57/28/28 58/24/24
f 37/14/14 53/17/17 57/28/28
f 37/14/14 1/23/23 56/15/15
f 56/15/15 1/23/23 59/29/29
f 41/10/10 40/2/2 39/7/7
usemtl Walls.002
f 5/30/3 6/31/30 9/32/31
f 15/33/32 16/34/33 17/35/34
f 18/36/35 9/37/31 8/38/36
f 12/39/37 11/40/38 19/41/39
f 65/42/40 14/43/41 2/44/21
f 10/45/42 14/46/41 13/47/43
f 2/44/21 38/48/20 65/42/40
f 21/49/44 4/50/1 15/33/32
f 1/51/23 3/52/22 20/53/45
f 3/54/22 19/41/39 20/55/45
f 22/56/46 17/57/34 18/58/35
f 5/59/3 40/60/2 6/61/30
f 17/57/34 22/56/46 15/62/32
f 25/63/4 27/64/47 29/65/48
f 30/66/49 31/67/50 32/68/51
f 35/69/52 32/68/51 28/70/53
f 25/71/4 24/72/54 34/73/55
f 32/68/51 35/69/52 30/66/49
f 25/71/4 23/74/6 24/72/54
f 33/75/56 23/76/6 26/77/5
f 42/78/26 43/79/57 7/80/58
f 6/81/30 40/82/2 7/83/58
f 47/84/27 46/85/9 45/86/59
f 24/72/54 23/74/6 76/87/25
f 49/88/12 51/89/19 54/90/18
f 41/91/10 48/92/11 42/93/26
f 59/94/29 20/95/45 60/96/60
f 1/97/23 20/98/45 59/99/29
f 59/94/29 60/96/60 56/100/15
f 42/101/26 60/96/60 43/102/57
f 11/103/38 13/104/43 75/105/61
f 7/106/58 64/107/62 8/108/36
f 43/102/57 60/96/60 64/107/62
f 64/109/62 7/80/58 43/79/57
f 66/110/63 70/111/64 65/112/40
f 65/113/40 70/114/64 72/115/65
f 72/116/65 73/117/66 65/118/40
f 13/119/43 14/43/41 65/42/40
f 65/42/40 73/120/66 13/119/43
f 71/121/67 72/122/65 70/123/64
f 72/122/65 71/121/67 73/124/66
f 53/125/17 23/76/6 33/75/56
f 47/84/27 45/86/59 52/126/68
f 34/127/55 24/128/54 27/129/47
f 24/128/54 52/130/68 27/129/47
f 21/131/44 39/132/7 4/133/1
f 44/134/8 39/135/7 21/49/44
f 74/136/69 21/49/44 15/33/32
f 74/137/69 15/62/32 36/138/70
f 35/69/52 15/62/32 71/121/67
f 15/62/32 35/69/52 36/138/70
f 71/121/67 75/105/61 73/124/66
f 15/62/32 22/56/46 71/121/67
f 22/56/46 75/105/61 71/121/67
f 75/105/61 22/56/46 62/139/71
f 63/140/72 75/105/61 62/139/71
f 15/33/32 4/50/1 16/34/33
f 29/141/48 27/142/47 28/70/53
f 25/63/4 34/143/55 27/64/47
f 40/144/2 42/145/26 7/146/58
f 46/85/9 44/147/8 45/86/59
f 50/148/16 49/88/12 54/90/18
f 56/100/15 60/96/60 42/101/26
f 62/139/71 22/56/46 8/149/36
f 63/140/72 11/103/38 75/105/61
f 8/108/36 64/107/62 62/150/71
f 63/151/72 62/150/71 64/107/62
f 63/151/72 64/107/62 60/96/60
f 60/96/60 61/152/73 11/153/38
f 69/154/74 67/155/75 33/156/56
f 70/123/64 69/154/74 71/121/67
f 36/157/70 52/130/68 45/158/59
f 28/70/53 27/142/47 36/138/70
f 45/158/59 74/136/69 36/159/70
f 7/106/58 8/108/36 9/160/31 6/161/30
f 10/45/42 13/47/43 11/40/38 12/39/37
f 33/75/56 26/77/5 31/162/50 30/163/49
f 8/149/36 22/56/46 18/58/35
f 76/164/25 51/165/19 49/166/12 47/167/27
f 36/138/70 35/69/52 28/70/53
f 76/168/25 47/169/27 52/130/68 24/128/54
f 55/170/13 56/171/15 42/93/26 48/92/11
f 48/92/11 41/91/10 46/172/9
f 19/41/39 11/40/38 61/173/73 20/55/45
f 58/174/24 57/175/28 68/176/76 66/110/63
f 60/96/60 20/95/45 61/152/73
f 11/153/38 63/151/72 60/96/60
f 67/177/75 68/178/76 57/179/28 53/125/17
f 67/177/75 53/125/17 33/75/56
f 58/174/24 66/110/63 65/112/40 38/180/20
f 68/178/76 67/177/75 69/181/74 70/182/64
f 66/183/63 68/184/76 70/123/64
f 30/66/49 69/154/74 33/156/56
f 44/134/8 21/49/44 74/136/69 45/158/59
f 69/154/74 30/66/49 71/121/67
f 73/124/66 75/105/61 13/104/43
f 36/157/70 27/129/47 52/130/68
f 71/121/67 30/66/49 35/69/52
