# Blender v2.78 (sub 0) OBJ File: 'Mesh_Dungeon_Small_RoomSquare_lod0.blend'
# www.blender.org
mtllib Mesh_CavePack_Room_Square_End_Large_lod1.mtl
o Plane.016
v -12.750183 0.077149 -3.243028
v 9.685822 -0.110288 -15.982562
v -12.352697 0.172256 -15.882289
v 9.845158 0.081805 -3.985447
v 12.486893 -0.084221 15.896658
v -3.716042 0.245580 7.849539
v 0.954420 0.892872 -0.945609
v 9.102100 0.000748 8.028650
v -15.997030 0.020018 3.201513
v -16.000000 -0.000002 12.800000
v 15.461432 0.825825 4.381125
v 16.434242 0.176775 10.856256
v -13.923574 -0.070085 15.740835
v 7.430077 3.911014 18.338072
v -7.114824 3.970376 18.348164
v 9.480325 3.971295 -18.396664
v -9.475816 3.911020 -18.338072
v -7.181710 7.911017 18.837658
v 7.430078 7.911016 18.837658
v 3.513426 7.255510 -16.342827
v -9.681060 7.062253 -16.431641
v 9.724185 7.911019 -18.837654
v -4.115229 15.432195 -14.306540
v 8.061954 13.310211 -15.175478
v -7.045418 11.734730 17.847456
v 7.430077 11.911014 17.811001
v 2.816699 15.371497 -14.551612
v -0.929777 16.016830 16.200066
v 6.734068 15.911015 14.475736
v -9.864359 16.059959 12.177550
v -14.106628 4.366153 -16.457401
v -12.214688 11.911018 -13.894976
v 14.332336 3.911014 16.000000
v 13.786801 7.721405 14.543546
v 10.093199 15.797445 11.652217
v -15.154837 4.101058 15.901522
v -13.794764 8.406318 15.902133
v -10.301988 15.911018 -11.741055
v -10.862097 16.067921 3.223518
v -12.730404 15.911016 -2.895144
v -9.480891 16.899698 -2.902895
v -4.367168 16.161682 -2.895144
v -0.955819 17.711275 4.358287
v 2.866737 16.388998 -3.579126
v 9.090379 16.982443 -2.895144
v 8.039530 15.546568 2.895150
v -10.851922 15.819235 -8.690462
v -0.498977 17.783382 7.749572
v 3.553679 16.026861 7.529505
v 1.819833 16.884792 12.420889
v 1.056219 16.892494 -13.066663
v 10.138289 15.866227 -7.119561
v 10.292175 14.475141 7.580219
v 9.726331 15.563809 -11.722095
v -11.094656 15.911016 7.580219
v -15.986622 3.993790 12.796298
v -14.953841 5.853900 15.207864
v -15.149079 2.092509 0.003509
v -16.000000 4.000000 3.200001
v -15.218269 5.437864 1.039312
v -16.000000 5.999999 9.600001
v -14.512222 8.100101 8.485337
v -13.609421 7.999998 11.790110
v -16.000000 5.999999 6.400001
v -13.609421 8.000000 4.209892
v 11.593928 3.185777 -10.921627
v 12.532248 4.597539 -1.512499
v 12.417576 8.256987 -13.329216
v 13.980828 11.183271 9.312002
v 16.124184 6.408664 10.529520
v 14.028835 8.729948 -0.334324
v 14.947880 7.921742 3.336840
v 13.365923 8.223904 -10.404597
v 11.625300 14.105738 -0.793859
v -12.596293 12.962609 3.598320
v -13.408581 11.070148 9.272098
v -12.263068 11.664491 11.328055
v -14.676653 11.880954 -1.298053
v -13.563401 12.658739 -8.558949
v -13.739274 10.291740 -7.064866
v -13.619196 3.380022 -9.592070
v -14.944766 3.994901 -5.346598
vt 1.8668 -0.2994
vt 1.8509 1.5362
vt 0.7036 1.6317
vt -0.8707 1.6946
vt -0.1722 0.7784
vt -0.8707 -0.5372
vt -0.1871 -0.1370
vt 0.8416 -0.3036
vt 0.6200 0.4362
vt -0.5965 1.8707
vt 0.2259 1.8707
vt -0.4299 -0.8707
vt 0.1252 -0.7884
vt 1.1011 2.1622
vt 0.8479 1.7909
vt 1.1062 0.7209
vt 0.6150 0.9970
vt 0.8479 0.9970
vt -0.6776 1.9274
vt -0.8197 0.8700
vt -0.6776 0.8981
vt -0.4122 0.7552
vt -0.4122 1.9363
vt 0.6150 1.7946
vt 0.4032 1.7871
vt -1.0242 0.7105
vt -1.2123 1.0683
vt -1.1988 0.7953
vt -0.6364 -0.6253
vt -0.4777 -0.8872
vt -0.4004 -0.5798
vt 0.1751 -0.7348
vt -0.7124 0.4898
vt -0.8364 0.5632
vt -1.1119 0.4938
vt -0.3552 0.6131
vt -0.2868 -1.0445
vt -0.7427 -1.0297
vt -1.0626 -0.1196
vt -0.6770 -0.0008
vt -1.1897 0.1151
vt -0.9891 -0.9205
vt -1.1897 0.3459
vt -0.0557 0.5460
vt -0.0390 0.0611
vt 0.0216 0.3286
vt -0.2974 0.0132
vt 0.1995 -0.4811
vt 0.4384 0.3478
vt 0.5839 0.4742
vt 0.4491 0.5243
vt 0.3255 -0.3437
vt 0.4222 -0.1755
vt 0.2006 -0.1664
vt 0.5390 -0.0056
vt 0.6803 0.1066
vt 0.5445 0.1688
vt 0.5668 -0.2753
vt 1.7025 -0.7151
vt 1.3173 -0.6343
vt 1.3309 -0.8664
vt 1.9906 -1.1945
vt 2.2213 -1.0643
vt 1.9721 -0.7729
vt 2.2214 -0.4258
vt 1.7585 0.5978
vt 1.8106 0.4104
vt 1.9717 0.6876
vt 1.7177 -0.9016
vt 1.2642 -0.4007
vt 1.4118 -0.2509
vt 1.6533 -0.2138
vt 1.5539 0.3170
vt -0.9442 -0.4235
vt -1.2050 -0.2685
vt -1.0251 -0.7002
vt -1.2270 -0.8396
vt 0.8852 2.2239
vt 0.7623 2.2169
vt 0.6317 2.1597
vt 0.6997 0.2883
vt 0.7226 0.5033
vt 0.6867 -0.1248
vt 0.9226 -0.1542
vt 0.9282 0.2661
vt 1.2041 0.2938
vt 0.8707 0.1453
vt 1.1750 0.0458
vt 1.1802 -0.1915
vt 1.2642 -0.2075
vt 1.1296 -0.5283
vt 0.8744 -0.4243
vt 0.4056 -0.8665
vt 0.4417 -1.2189
vt 0.7621 -0.7204
vt 0.4272 -0.6059
vt 0.2424 -0.4553
vt 0.1790 0.0965
vt 1.1490 -0.7804
vt 0.9248 -0.8313
vt -0.8197 1.5864
vt -1.0948 1.8147
vt -0.9058 1.9355
vt 0.1995 1.4533
vt 0.2232 1.0350
vt 0.4032 0.9970
vt -1.2262 1.5234
vt -0.6552 0.6348
vt 0.2232 1.7566
vt 0.6850 0.6500
vt 0.8802 0.6202
vt 0.5207 0.7351
vt -0.4246 -0.3270
vt 1.0356 0.6202
vt -0.7586 -1.2270
vt 0.1394 -0.2496
vt 0.2574 0.5355
vt 0.2160 0.3569
vt -0.1407 0.8801
vt -0.1618 0.6279
vt -0.0208 0.6771
vt -0.0208 0.8897
vt 1.7211 0.0598
vt 1.9361 -0.2665
vt 2.1254 0.0884
vt -0.1618 0.8888
vt -0.4122 0.8858
vt -0.3172 0.7066
vt 0.8967 -1.1177
vt 1.1551 -1.0056
vt 0.2281 -1.1918
vt 2.1578 0.4455
vt 2.2270 0.6631
vt 1.7615 -1.2270
vt 1.5660 -1.1167
vn -0.5103 0.7430 0.4330
vn 0.4851 0.7532 0.4443
vn 0.4358 0.8937 0.1062
vn 0.4050 0.7093 -0.5770
vn -0.0141 0.9992 0.0364
vn -0.3796 0.7206 -0.5802
vn -0.0136 0.9994 0.0318
vn -0.4282 0.9004 0.0773
vn 0.0042 1.0000 -0.0041
vn 0.4594 0.8636 -0.2077
vn 0.4430 0.8823 0.1593
vn -0.7639 0.6380 -0.0970
vn -0.7506 0.6103 0.2530
vn 0.1190 0.2708 -0.9553
vn -0.2733 -0.1753 -0.9458
vn -0.1561 0.2279 -0.9611
vn -0.4587 0.2527 0.8519
vn 0.1455 -0.4079 0.9014
vn 0.1434 -0.0098 0.9896
vn 0.1843 -0.0912 -0.9786
vn 0.2461 -0.4608 -0.8527
vn 0.6569 -0.4439 0.6094
vn 0.1139 -0.5980 0.7933
vn 0.4308 -0.8226 0.3710
vn -0.2561 -0.9652 0.0530
vn -0.0933 -0.9888 -0.1169
vn -0.1026 -0.9926 -0.0654
vn 0.4938 -0.8033 -0.3330
vn -0.0263 -0.9334 0.3580
vn -0.0966 -0.5694 0.8163
vn -0.3162 -0.5598 0.7659
vn 0.0301 -0.7901 -0.6123
vn -0.2573 -0.8084 -0.5295
vn -0.3121 -0.9493 -0.0367
vn -0.0289 -0.9995 0.0145
vn -0.5862 -0.8048 0.0927
vn -0.5261 -0.8305 -0.1829
vn -0.5627 -0.7730 0.2928
vn 0.1013 -0.9902 0.0957
vn 0.4490 -0.8809 0.1499
vn -0.0386 -0.9870 0.1561
vn 0.6219 -0.7788 -0.0813
vn 0.9486 -0.1102 -0.2967
vn 0.9040 -0.3460 -0.2512
vn 0.7237 0.0014 -0.6901
vn 0.9434 0.1899 0.2720
vn 0.9629 -0.1481 0.2257
vn 0.7857 -0.6046 0.1308
vn 0.8681 -0.4943 -0.0446
vn 0.7984 -0.5895 -0.1225
vn 0.9788 -0.1918 0.0724
vn -0.9831 -0.0410 0.1784
vn -0.9223 0.3639 0.1304
vn -0.7246 -0.3466 -0.5956
vn -0.9633 -0.2175 -0.1576
vn -0.6954 -0.0026 -0.7186
vn -0.9173 -0.1017 0.3851
vn -0.7878 -0.6153 -0.0268
vn -0.9850 -0.0957 0.1439
vn -0.8359 -0.5399 -0.0994
vn -0.2540 -0.9619 -0.1009
vn -0.4629 -0.8843 0.0607
vn 0.7558 -0.3521 -0.5521
vn 0.8675 -0.4831 -0.1185
vn 0.9182 -0.3960 0.0070
vn 0.9138 -0.3878 -0.1207
vn 0.8921 -0.4238 -0.1569
vn 0.9091 -0.3807 -0.1689
vn 0.6748 -0.7355 -0.0608
vn 0.6856 -0.7278 0.0181
vn 0.9602 -0.2763 -0.0419
vn 0.9735 0.2168 0.0723
vn 0.8120 0.0101 0.5835
vn 0.9831 -0.1463 0.1104
vn 0.9786 0.1323 0.1578
vn 0.9197 -0.3673 0.1387
vn 0.0991 -0.3657 0.9254
vn -0.3565 -0.1643 0.9197
vn -0.3288 -0.4263 -0.8427
vn -0.0894 -0.9955 0.0297
vn -0.9622 -0.1731 0.2102
vn -0.9283 0.2593 0.2667
usemtl Ground.006
s 1
f 2/1/1 3/2/2 1/3/3
f 13/4/4 6/5/5 1/3/3
f 5/6/6 8/7/7 6/5/5
f 4/8/8 2/1/1 7/9/9
f 10/10/10 1/3/3 9/11/11
f 8/7/7 5/6/6 12/12/12
f 1/3/3 10/10/10 13/4/4
f 4/8/8 8/7/7 11/13/13
f 13/4/4 5/6/6 6/5/5
f 6/5/5 7/9/9 1/3/3
f 1/3/3 7/9/9 2/1/1
f 6/5/5 8/7/7 7/9/9
f 7/9/9 8/7/7 4/8/8
f 8/7/7 12/12/12 11/13/13
usemtl Walls.006
f 13/14/4 15/15/14 5/16/6
f 15/15/14 19/17/15 14/18/16
f 16/19/17 21/20/18 17/21/19
f 17/21/19 3/22/2 2/23/1 16/19/17
f 18/24/20 25/25/21 19/17/15
f 32/26/22 23/27/23 38/28/24
f 49/29/25 50/30/26 48/31/27
f 48/31/27 50/30/26 30/32/28
f 51/33/29 27/34/30 24/35/31
f 23/36/23 27/34/30 51/33/29
f 28/37/32 50/30/26 29/38/33
f 45/39/34 44/40/35 52/41/36
f 35/42/37 29/38/33 50/30/26
f 54/43/38 51/33/29 24/35/31
f 38/44/24 23/36/23 51/33/29
f 41/45/39 47/46/40 42/47/41
f 48/31/27 30/32/28 55/48/42
f 56/49/43 57/50/44 36/51/45
f 58/52/46 59/53/47 9/54/11
f 64/55/48 62/56/49 61/57/50
f 57/50/44 56/49/43 61/57/50
f 64/55/48 59/53/47 60/58/51
f 73/59/52 52/60/36 54/61/38
f 16/62/17 2/63/1 66/64/53
f 2/63/1 4/65/8 66/64/53
f 34/66/54 70/67/55 33/68/56
f 68/69/57 66/64/53 73/59/52
f 45/70/34 52/60/36 74/71/58
f 71/72/59 69/73/60 74/71/58
f 46/74/61 74/75/58 53/76/62
f 74/75/58 69/77/60 53/76/62
f 36/78/45 57/79/44 37/80/63
f 57/50/44 63/81/64 37/82/63
f 65/83/65 75/84/66 62/56/49
f 37/82/63 77/85/67 30/86/28
f 76/87/68 75/84/66 55/88/42
f 55/88/42 39/89/69 41/90/39
f 39/89/69 75/84/66 40/91/70
f 75/84/66 78/92/71 40/91/70
f 81/93/72 31/94/73 80/95/74
f 82/96/75 81/93/72 80/95/74
f 58/52/46 1/97/3 82/96/75
f 78/92/71 60/58/51 80/95/74
f 82/96/75 80/95/74 60/58/51
f 41/45/39 40/98/70 47/46/40
f 47/99/40 40/91/70 79/100/76
f 78/92/71 80/95/74 40/91/70
f 80/95/74 79/100/76 40/91/70
f 5/16/6 15/15/14 14/18/16
f 23/27/23 21/20/18 20/101/77 24/102/31
f 15/15/14 18/24/20 19/17/15
f 16/19/17 20/101/77 21/20/18
f 16/19/17 22/103/78 20/101/77
f 20/101/77 22/103/78 24/102/31
f 28/104/32 29/105/33 26/106/79 25/25/21
f 19/17/15 25/25/21 26/106/79
f 23/27/23 24/102/31 27/107/30
f 23/27/23 32/26/22 31/108/73 21/20/18
f 25/25/21 30/109/28 28/104/32
f 17/21/19 31/108/73 3/22/2
f 31/108/73 17/21/19 21/20/18
f 34/110/54 33/111/56 14/18/16 19/17/15
f 14/18/16 33/111/56 5/16/6
f 26/106/79 35/112/37 34/110/54 19/17/15
f 15/15/14 36/78/45 37/80/63 18/24/20
f 13/14/4 36/78/45 15/15/14
f 48/31/27 43/113/80 44/40/35 49/29/25
f 25/25/21 18/24/20 37/80/63
f 30/86/28 25/114/21 37/82/63
f 35/42/37 26/115/79 29/38/33
f 39/116/69 40/98/70 41/45/39
f 41/45/39 42/47/41 43/113/80
f 43/113/80 42/47/41 44/40/35
f 44/40/35 45/39/34 46/74/61
f 42/47/41 47/46/40 44/40/35
f 49/29/25 44/40/35 46/74/61 53/76/62
f 44/40/35 47/46/40 51/33/29
f 30/32/28 50/30/26 28/37/32
f 48/31/27 55/48/42 41/45/39 43/113/80
f 53/76/62 35/42/37 50/30/26 49/29/25
f 38/44/24 51/33/29 47/46/40
f 54/43/38 52/41/36 44/40/35 51/33/29
f 36/51/45 13/117/4 10/118/10 56/49/43
f 63/81/64 57/50/44 61/57/50 62/56/49
f 9/54/11 1/97/3 58/52/46
f 59/53/47 58/52/46 60/58/51
f 65/83/65 62/56/49 64/55/48 60/58/51
f 70/119/55 34/120/54 35/121/37 69/122/60
f 72/123/81 70/67/55 69/73/60 71/72/59
f 67/124/82 4/65/8 11/125/13 72/123/81
f 67/124/82 71/72/59 73/59/52 66/64/53
f 72/123/81 71/72/59 67/124/82
f 4/65/8 67/124/82 66/64/53
f 46/74/61 45/39/34 74/75/58
f 76/87/68 77/85/67 63/81/64 62/56/49
f 35/126/37 53/127/62 69/128/60
f 62/56/49 75/84/66 76/87/68
f 55/88/42 30/86/28 77/85/67 76/87/68
f 63/81/64 77/85/67 37/82/63
f 60/58/51 78/92/71 75/84/66 65/83/65
f 55/88/42 75/84/66 39/89/69
f 80/95/74 31/94/73 32/129/22 79/100/76
f 79/100/76 32/129/22 38/130/24 47/99/40
f 81/93/72 82/96/75 1/97/3 3/131/2
f 31/94/73 81/93/72 3/131/2
f 11/125/13 12/132/12 70/67/55 72/123/81
f 58/52/46 82/96/75 60/58/51
f 71/72/59 74/71/58 52/60/36 73/59/52
f 12/132/12 5/133/6 33/68/56 70/67/55
f 73/59/52 54/61/38 68/69/57
f 22/134/78 16/62/17 66/64/53 68/69/57
f 24/135/31 22/134/78 68/69/57 54/61/38
