# Blender v2.78 (sub 0) OBJ File: 'Mesh_Dungeon_Small_RoomSquare_lod0.blend'
# www.blender.org
mtllib Mesh_CavePack_RoomSquareTurn90_lod2.mtl
o Plane.002_Plane.007
v -8.092263 0.569931 -7.152649
v -4.778286 0.000001 -8.021714
v 4.810750 0.170507 -8.012770
v 5.712531 -0.010068 8.037167
v 7.996797 0.033265 4.798206
v 7.999998 0.004458 -4.799963
v -7.242247 -0.046678 4.600020
v -4.780410 4.003742 -8.029425
v -6.393435 7.855775 -5.274906
v 7.288080 3.395015 8.098114
v 8.000000 3.999999 4.800001
v 7.989329 5.990942 1.604634
v -1.578286 6.000001 -8.021712
v 1.724275 8.178638 -6.612566
v 1.621714 6.000001 -8.021712
v 4.917909 4.014736 -8.124704
v 6.463820 8.136840 -1.675503
v 8.000000 6.000000 -1.599999
v 8.179893 4.022336 -4.967793
v 3.896396 7.625264 7.972501
v -10.087086 4.676756 -1.921960
v -6.817938 3.029681 6.488263
v -7.963846 7.539515 2.166099
v -4.003282 7.074737 7.118944
v 2.286874 3.145971 9.667063
v -0.037799 9.350847 0.638235
vt 0.4966 1.4382
vt 1.3589 0.4413
vt 0.8135 1.2598
vt 0.4493 -0.5609
vt 1.2678 -0.0131
vt 0.0442 -0.5327
vt -0.2445 0.6996
vt 0.4028 -0.7143
vt 0.1916 -0.2233
vt -0.1809 -0.8695
vt 0.3590 1.6571
vt -0.0363 1.5540
vt 0.7876 1.3288
vt 0.0310 1.1080
vt 0.8623 0.8039
vt 1.1411 1.0434
vt 1.5822 0.7600
vt 0.7952 -0.3920
vt -0.2806 0.6024
vt 0.3304 0.4911
vt 0.8730 0.1377
vt -0.1882 0.1680
vt 0.1329 -1.1849
vt 0.0506 2.1095
vt -0.4017 1.7703
vt 1.1464 -0.1240
vt 1.5793 0.1554
vt -0.3641 1.2274
vt -0.2708 -0.2395
vt -0.6164 0.3993
vt -0.8904 0.2196
vt 2.1067 0.1569
vt 2.1067 0.7575
vn 0.6333 0.5196 0.5736
vn -0.3760 0.8385 0.3945
vn 0.1361 0.9827 -0.1256
vn -0.4280 0.8832 -0.1919
vn -0.3575 0.8506 0.3857
vn -0.2802 0.7426 -0.6083
vn 0.5695 0.7272 -0.3832
vn 0.4075 -0.3226 0.8543
vn 0.4673 -0.7523 0.4644
vn -0.9229 -0.2906 -0.2525
vn -0.7307 -0.1313 -0.6700
vn -0.7054 -0.6808 -0.1971
vn -0.2711 -0.7340 -0.6227
vn -0.5358 -0.8313 0.1479
vn -0.8045 -0.5728 0.1568
vn -0.6884 -0.3687 0.6246
vn 0.1616 -0.6041 0.7803
vn 0.3566 -0.6248 -0.6946
vn 0.0124 -0.9986 -0.0513
vn -0.1692 -0.8214 0.5448
vn 0.6703 -0.6926 -0.2667
vn -0.1581 -0.5310 0.8325
vn -0.6240 -0.3655 0.6907
vn 0.0507 0.1120 -0.9924
vn 0.9860 -0.1453 0.0822
vn 0.6596 0.0713 -0.7482
usemtl Ground.006
s 1
f 1/1/1 3/2/2 2/3/3
f 5/4/4 6/5/5 3/2/2 4/6/6
f 1/1/1 7/7/7 3/2/2
f 7/7/7 4/6/6 3/2/2
usemtl Walls.003
f 8/8/8 9/9/9 1/10/1
f 11/11/10 10/12/11 12/13/12
f 12/13/12 20/14/13 17/15/14
f 18/16/15 17/15/14 19/17/16
f 9/9/9 8/8/8 13/18/17
f 20/14/13 12/13/12 10/12/11
f 24/19/18 26/20/19 20/14/13
f 26/20/19 14/21/20 17/15/14
f 17/15/14 20/14/13 26/20/19
f 9/9/9 14/21/20 26/20/19
f 23/22/21 9/9/9 26/20/19
f 24/19/18 23/22/21 26/20/19
f 1/10/1 2/23/3 8/8/8
f 5/24/4 4/25/6 10/12/11
f 15/26/22 16/27/23 14/21/20
f 25/28/24 10/12/11 4/25/6
f 10/12/11 25/28/24 20/14/13
f 23/22/21 21/29/25 9/9/9
f 21/29/25 22/30/26 7/31/7
f 24/19/18 22/30/26 23/22/21
f 25/28/24 4/25/6 7/31/7
f 22/30/26 25/28/24 7/31/7
f 16/27/23 3/32/2 6/33/5 19/17/16
f 11/11/10 5/24/4 10/12/11
f 9/9/9 13/18/17 14/21/20
f 14/21/20 13/18/17 15/26/22
f 18/16/15 12/13/12 17/15/14
f 1/10/1 9/9/9 21/29/25
f 19/17/16 17/15/14 14/21/20 16/27/23
f 7/31/7 1/10/1 21/29/25
f 23/22/21 22/30/26 21/29/25
f 24/19/18 25/28/24 22/30/26
f 25/28/24 24/19/18 20/14/13
