# Blender v2.78 (sub 0) OBJ File: 'Mesh_Dungeon_Small_RoomSquare_lod0.blend'
# www.blender.org
mtllib Mesh_CavePack_Platform1_lod2.mtl
o Circle
v 3.280920 3.995542 2.516100
v 3.308895 4.236138 -1.680170
v -3.202954 4.125748 -2.045901
v -4.015290 4.214794 1.824371
v 1.646219 4.254782 -3.038706
v -1.698057 4.266854 -3.435685
v 3.013728 0.353650 -1.800198
v -1.753504 -0.276035 -3.103427
v 3.217446 -0.164089 1.749381
v -0.301766 4.203233 4.093780
v -3.647199 -0.189213 1.738606
v 0.081599 -0.137397 3.683999
v -3.119911 -0.069171 -2.018560
v -1.771746 -0.147872 3.099671
v -3.543074 -0.147871 -0.070827
v 3.376136 -0.147871 -0.070825
v 3.251459 -0.147871 -1.923531
v 1.905494 -0.147872 3.099671
v 1.747791 -0.147871 -2.891205
v 0.066874 -0.147871 -2.908279
vt -0.0592 0.1556
vt 0.1557 1.0243
vt -0.0933 0.8031
vt 0.6667 -0.0257
vt 1.1134 0.3549
vt 1.0116 0.9196
vt 0.7226 1.0893
vt 0.9807 0.0675
vt 1.2206 0.0859
vt 1.4697 0.0693
vt 0.7213 -0.0251
vt 0.6196 0.8941
vt 0.0636 0.2065
vt -0.4032 0.8946
vt -0.4518 0.1114
vt 0.9161 0.8953
vt 0.0075 0.8748
vt 0.2464 0.8887
vt 0.2509 0.0180
vt 0.0136 0.0123
vt 0.4608 0.0452
vt 1.8441 1.0617
vt 1.3607 0.9676
vt 2.0053 0.3425
vt -0.7697 0.9861
vt -0.8973 0.2818
vt -0.2208 0.1008
vt -0.6851 0.1929
vt 1.7784 0.2354
vn -0.7487 0.5651 0.3466
vn -0.2021 0.5992 -0.7746
vn -0.7164 0.5762 -0.3934
vn -0.0288 0.5772 0.8161
vn 0.7133 0.5216 0.4681
vn 0.7306 0.6032 -0.3200
vn 0.3044 0.6116 -0.7303
vn -0.8610 -0.0257 -0.5079
vn -0.1093 0.9939 0.0164
vn -0.8936 -0.0169 0.4485
vn -0.2351 -0.0474 -0.9708
vn 0.7767 0.3192 -0.5430
vn 0.8929 0.0748 0.4439
vn 0.0641 0.8764 -0.4773
vn 0.7127 0.5701 -0.4086
vn -0.0248 0.9339 -0.3567
vn 0.0077 0.0346 0.9994
vn 0.7937 0.6082 0.0100
vn 0.0028 1.0000 -0.0093
vn 0.0069 0.9992 -0.0399
usemtl Ground.002
s 1
f 4/1/1 6/2/2 3/3/3
f 10/4/4 1/5/5 2/6/6
f 6/2/2 2/6/6 5/7/7
f 6/2/2 4/1/1 2/6/6
f 4/1/1 10/4/4 2/6/6
usemtl Wall
f 13/8/8 15/9/9 11/10/10
f 8/11/11 13/8/8 6/12/2
f 7/13/12 1/14/5 9/15/13
f 3/16/3 6/12/2 13/8/8
f 2/17/6 1/14/5 7/13/12
f 5/18/7 7/13/12 8/11/11 6/12/2
f 19/19/14 7/13/12 17/20/15
f 20/21/16 8/11/11 7/13/12
f 7/13/12 19/19/14 20/21/16
f 10/22/4 4/23/1 11/10/10 12/24/17
f 1/14/5 10/25/4 12/26/17 9/15/13
f 11/10/10 4/23/1 13/8/8
f 7/13/12 9/15/13 16/27/18 17/20/15
f 2/17/6 7/13/12 5/18/7
f 3/16/3 13/8/8 4/23/1
f 18/28/19 9/15/13 12/26/17
f 14/29/20 12/24/17 11/10/10
