# Blender v2.78 (sub 0) OBJ File: ''
# www.blender.org
mtllib Mesh_CavePack_Platform4_lod2.mtl
o Cube_Cube.001
v -4.705707 1.579609 2.662744
v -5.054543 -0.132202 -0.053995
v -1.297282 -0.132202 3.475903
v -1.625022 1.420701 4.421849
v -4.563454 0.332549 2.960659
v -2.739632 1.273195 -3.940977
v -1.309434 -0.206397 -3.998395
v -3.062585 -0.205476 -2.743189
v 1.055377 -0.132290 2.693182
v 1.326359 0.387631 3.536120
v -2.905480 0.389449 -3.754888
v 5.435461 0.314805 -0.334638
v 4.509446 -0.132202 -0.053995
v 3.319596 0.272904 3.096669
v -4.533800 0.274306 -2.582882
v -4.693040 1.347760 -2.439108
v 5.350559 0.348678 -1.377203
v 4.283431 -0.132202 -1.683113
v 5.427954 1.446495 -1.060490
v -1.560384 0.398077 -4.446361
v 4.157527 0.465415 -3.634293
v 3.288780 -0.132202 -3.045722
v -4.649255 -0.136002 1.052098
v -2.350902 1.778534 0.876233
v -2.709998 -0.146783 2.837558
v 5.542090 1.158568 -0.365518
v -1.543035 1.015491 4.270460
v -5.390432 0.352654 1.764589
v -4.647860 1.181803 2.913736
v -4.817074 -0.183850 -0.869926
v -0.078354 -0.188424 3.227544
v 4.549522 -0.132202 -0.868554
v -5.881086 0.288327 -0.480920
v 3.232393 -0.122887 2.536719
v -6.003950 1.369269 -0.404552
v 1.230636 1.277477 3.752008
v 4.123298 -0.132202 1.477139
v 4.800024 1.540266 1.741738
v 2.477103 1.338273 3.566738
v 5.145195 1.107709 -2.143778
v -3.719760 -0.212112 -2.306659
v 3.939189 -0.132202 -2.395034
v 1.295422 1.765546 -3.426122
v -2.378690 -0.262028 -3.521054
v -1.019495 1.297573 -4.636224
v 0.144487 1.066310 -4.663582
v 1.042210 -0.169455 -3.969975
v 4.102921 1.311271 -3.612401
v 2.248614 -0.132202 -3.631568
v 2.682047 1.418184 -4.342210
v 1.235190 0.176298 -4.490035
v 4.777782 0.238648 1.723088
v 5.055827 1.149387 1.870078
v 3.152697 0.966676 3.191670
v -1.329872 0.419157 4.425760
v -5.977218 1.131626 0.681199
vt 0.6798 1.0733
vt 0.3755 1.1594
vt 0.3636 0.8062
vt 0.9066 0.9088
vt 1.1395 1.0644
vt 0.6139 1.1079
vt 1.3363 0.5262
vt 1.6411 0.4852
vt 1.6063 0.7985
vt -1.0586 0.9175
vt -0.7893 0.8640
vt -0.0654 1.0643
vt -0.3785 0.6814
vt -0.4384 0.3793
vt -1.4707 0.4330
vt -1.9477 0.4898
vt -1.8606 0.2368
vt 2.1041 0.9925
vt 1.6425 1.0582
vt 2.7751 0.6529
vt 0.1848 0.4913
vt 0.5826 0.8336
vt 2.8617 0.7393
vt 2.0217 0.4267
vt -0.6787 0.6632
vt -1.6719 0.6728
vt 0.8062 1.2293
vt 0.9360 0.7873
vt 2.4553 0.5451
vt 2.3281 0.2507
vt 2.6953 0.0530
vt -0.0505 0.7645
vt -1.3501 0.4666
vt 1.4106 1.2111
vt 1.4186 1.0576
vt 2.4575 0.8871
vt 0.4912 0.5257
vt 0.7744 0.5510
vt 2.4463 0.7448
vt -1.8302 0.3377
vt 1.0678 0.5353
vt -0.0991 1.2069
vt 2.8741 0.5521
vt 2.9201 0.6644
vt -1.2448 0.1147
vt -0.5592 0.4555
vt -1.0448 0.2623
vt -1.0059 0.5690
vt -1.4272 0.1881
vt 0.8969 0.4602
vt 1.8117 0.3297
vt 1.4413 0.7919
vt 2.4146 0.5113
vt -0.6947 0.3004
vt -1.4493 0.7977
vt -1.7940 0.0530
vt -0.0588 0.4988
vt -0.4063 0.9911
vt 0.4848 0.5306
vt -1.6669 0.0371
vt -1.1209 0.8354
vt 2.3939 0.3156
vt -0.2113 0.5528
vt -1.1650 0.3752
vt -0.5973 -0.4823
vt 1.2802 1.0324
vt 2.0628 0.6712
vt 1.8466 1.1025
vt 0.2780 -0.7156
vt 0.6356 -0.8906
vt 1.5036 -0.8001
vt 0.3244 1.8051
vt -0.3252 1.7005
vt 1.1383 1.5535
vt -1.0330 1.2667
vt 2.0333 -0.1384
vn -0.9427 0.1462 0.2998
vn -0.8074 0.5596 -0.1870
vn -0.8248 -0.5323 -0.1905
vn 0.8286 -0.5068 -0.2377
vn 0.8721 0.2273 -0.4333
vn 0.9700 0.2306 0.0767
vn 0.4538 -0.8375 -0.3043
vn 0.3451 -0.8445 -0.4095
vn 0.5657 -0.4041 -0.7188
vn 0.1858 0.4481 0.8745
vn 0.4429 0.0123 0.8965
vn 0.8304 0.1737 0.5294
vn -0.6326 -0.4831 -0.6053
vn -0.3653 -0.8260 -0.4292
vn -0.2655 -0.3702 -0.8902
vn 0.0482 0.0852 -0.9952
vn 0.1808 -0.4008 -0.8981
vn 0.3744 0.1776 -0.9101
vn 0.4865 0.5800 -0.6533
vn -0.4724 -0.8370 -0.2762
vn 0.8284 -0.5576 0.0534
vn -0.1640 0.5377 -0.8270
vn 0.2304 -0.8110 -0.5377
vn 0.3713 -0.4857 0.7913
vn 0.7650 0.6254 -0.1536
vn -0.7381 -0.5363 0.4093
vn -0.0355 -0.3615 0.9317
vn -0.0718 -0.8668 0.4934
vn 0.1834 -0.8209 0.5408
vn 0.6759 -0.6117 0.4110
vn 0.2164 -0.6238 0.7510
vn -0.4263 0.8404 0.3345
vn -0.6350 0.2636 0.7261
vn -0.1060 0.4455 0.8889
vn 0.4519 -0.8885 0.0794
vn 0.4562 -0.8876 -0.0631
vn -0.1227 -0.1173 0.9855
vn 0.4563 -0.8709 -0.1826
vn 0.4343 0.8492 0.3004
vn 0.1852 0.5040 0.8436
vn 0.1370 -0.8277 0.5441
vn 0.2581 -0.8438 0.4704
vn -0.4457 -0.6309 -0.6350
vn -0.5103 -0.3686 -0.7769
vn -0.1685 -0.6724 -0.7208
vn -0.3853 -0.9032 0.1891
vn -0.2163 -0.8806 0.4215
vn -0.5573 -0.5028 0.6608
vn -0.3938 -0.7676 -0.5056
vn 0.0844 -0.7624 -0.6416
vn 0.4355 -0.8582 0.2716
vn -0.5859 0.6157 -0.5269
vn -0.4597 -0.8858 0.0636
vn -0.3952 0.5916 -0.7027
vn -0.0313 0.9993 0.0219
vn 0.0194 0.9859 -0.1663
usemtl Wall
s 1
f 56/1/1 35/2/2 33/3/3
f 17/4/4 40/5/5 26/6/6
f 42/7/7 22/8/8 21/9/9 17/4/4
f 39/10/10 54/11/11 53/12/12
f 15/13/13 41/14/14 33/3/3
f 20/15/15 46/16/16 51/17/17
f 50/18/18 48/19/19 46/20/16
f 30/21/20 33/3/3 41/14/14
f 26/6/6 53/12/12 12/22/21
f 45/23/22 50/18/18 46/20/16
f 21/9/9 22/8/8 49/24/23
f 53/12/12 54/11/11 14/25/24
f 45/26/22 46/16/16 20/15/15
f 19/27/25 40/5/5 48/19/19
f 21/9/9 48/19/19 40/5/5
f 33/3/3 28/28/26 56/1/1
f 55/29/27 3/30/28 31/31/29
f 52/32/30 53/12/12 14/25/24
f 54/11/11 10/33/31 14/25/24
f 1/34/32 29/35/33 4/36/34
f 52/32/30 12/22/21 53/12/12
f 13/37/35 32/38/36 12/22/21
f 4/36/34 29/35/33 27/39/37
f 21/9/9 46/20/16 48/19/19
f 19/27/25 26/6/6 40/5/5
f 40/5/5 17/4/4 21/9/9
f 12/22/21 17/4/4 26/6/6
f 54/11/11 55/40/27 10/33/31
f 18/41/38 42/7/7 17/4/4
f 38/42/39 39/10/10 53/12/12
f 27/39/37 54/43/11 36/44/40 4/36/34
f 9/45/41 34/46/42 14/25/24 10/33/31
f 44/47/43 11/48/44 20/15/15 7/49/45
f 23/50/46 25/51/47 5/52/48 28/28/26
f 32/38/36 18/41/38 17/4/4 12/22/21
f 21/9/9 51/53/17 46/20/16
f 11/48/44 44/47/43 8/54/49
f 54/11/11 39/10/10 36/55/40
f 55/29/27 5/52/48 25/51/47 3/30/28
f 7/49/45 20/15/15 51/17/17 47/56/50
f 37/57/51 52/32/30 14/25/24 34/46/42
f 33/3/3 35/2/2 16/58/52 15/13/13
f 33/3/3 2/59/53 23/50/46 28/28/26
f 31/60/29 9/45/41 10/33/31 55/40/27
f 16/58/52 6/61/54 11/48/44 15/13/13
f 41/14/14 15/13/13 11/48/44 8/54/49
f 51/53/17 21/9/9 49/24/23 47/62/50
f 29/35/33 56/1/1 28/28/26 5/52/48
f 27/39/37 29/35/33 5/52/48 55/29/27
f 55/29/27 54/43/11 27/39/37
f 1/34/32 35/2/2 56/1/1 29/35/33
f 45/26/22 20/15/15 11/48/44 6/61/54
f 33/3/3 30/21/20 2/59/53
f 26/6/6 19/27/25 38/42/39 53/12/12
f 52/32/30 37/57/51 13/37/35 12/22/21
usemtl Ground
f 24/63/55 1/64/32 4/65/34
f 43/66/56 48/67/19 50/68/18
f 36/69/40 39/70/10 38/71/39
f 43/66/56 6/72/54 16/73/52
f 43/66/56 50/68/18 45/74/22
f 24/63/55 16/73/52 35/75/2
f 43/66/56 45/74/22 6/72/54
f 43/66/56 19/76/25 48/67/19
f 38/71/39 43/66/56 24/63/55
f 38/71/39 19/76/25 43/66/56
f 16/73/52 24/63/55 43/66/56
f 35/75/2 1/64/32 24/63/55
f 36/69/40 38/71/39 24/63/55 4/65/34
