# Blender v2.78 (sub 0) OBJ File: 'Mesh_Dungeon_Small_RoomSquare_lod0.blend'
# www.blender.org
mtllib Mesh_CavePack_Platform1_lod1.mtl
o Circle
v 3.288078 4.455174 1.792083
v 3.403875 4.343043 -0.318738
v -0.339111 4.284716 3.772737
v 1.430551 4.450344 3.380595
v -3.202954 4.125748 -2.045901
v -3.825534 4.344381 1.703058
v 3.114315 4.079449 -1.910877
v 1.740456 4.386110 -2.891797
v -1.668826 4.389330 -3.237357
v 1.629298 2.453809 -2.893569
v 3.426982 1.708895 -1.713394
v 2.819029 0.295080 -1.665288
v 1.498936 0.305948 -2.443923
v -1.877567 2.342258 -3.468199
v -1.539346 0.295080 -2.833112
v 3.225233 2.031137 2.289760
v 2.794475 0.307106 1.812613
v -0.475591 2.314983 3.949699
v -3.987167 2.373019 1.792716
v -3.271114 0.290189 1.472597
v -0.226618 0.292900 3.239988
v -3.383369 2.080935 -2.124671
v -3.073701 -0.190850 -1.900399
v -1.771746 -0.147872 3.099671
v 0.119442 -0.147872 3.682804
v -3.543074 -0.147871 -0.070827
v 3.376136 -0.147871 -0.070825
v 3.251459 -0.147871 -1.923531
v 1.905494 -0.147872 3.099671
v -3.704247 -0.147871 1.753708
v 1.747791 -0.147871 -2.891205
v 0.066874 -0.147871 -2.908279
v -1.771746 -0.147870 -3.269496
v 3.251458 -0.147871 1.753709
vt -0.0592 0.1556
vt 0.1557 1.0243
vt -0.0933 0.8031
vt 0.7226 1.0893
vt 1.0881 0.6683
vt 0.9956 0.9722
vt 0.8520 0.0794
vt 1.1134 0.3549
vt 0.5758 -0.0772
vt 0.2627 0.1411
vt 0.2637 0.5496
vt 0.0036 0.5300
vt 0.0221 0.1573
vt -0.4586 0.6518
vt -0.3857 0.9715
vt -0.6043 1.0167
vt 0.0447 0.8619
vt -0.1701 0.9365
vt 1.9296 0.4282
vt 1.7784 0.2354
vt 2.0079 0.3395
vt 0.9835 0.0360
vt 1.2206 0.0859
vt 1.4460 0.2189
vt 1.4703 0.0657
vt -0.4703 0.2525
vt -0.6851 0.1929
vt -0.4514 0.1087
vt 0.7058 0.1175
vt 0.7024 0.5975
vt 1.8715 0.8158
vt 1.4004 0.6952
vt 0.9371 0.5635
vt -0.8653 0.3827
vt -0.8543 0.7624
vt 0.2451 0.9145
vt 1.3575 0.9899
vt 1.8383 1.1141
vt 0.6133 0.9166
vt 0.9161 0.8953
vt -0.8240 1.0421
vt -0.2208 0.1008
vt 0.0136 0.0123
vt -0.8984 0.2783
vt 0.2509 0.0180
vt 0.4608 0.0452
vt 0.7220 -0.0319
vn -0.7013 0.6384 0.3173
vn -0.2063 0.6778 -0.7057
vn -0.7208 0.5709 -0.3930
vn 0.2803 0.6590 -0.6980
vn 0.7259 0.6863 -0.0459
vn 0.7264 0.4713 -0.5002
vn 0.3152 0.6680 0.6741
vn 0.6821 0.6758 0.2793
vn -0.0846 0.5862 0.8057
vn 0.2880 0.2947 -0.9111
vn 0.3368 -0.0990 -0.9364
vn 0.8774 -0.1738 -0.4472
vn 0.7946 0.3426 -0.5012
vn 0.8071 -0.1453 0.5723
vn -0.0759 0.2954 0.9524
vn -0.3113 0.7794 0.5438
vn 0.0667 0.7895 0.6102
vn -0.8670 -0.0785 -0.4922
vn -0.5394 0.8302 -0.1406
vn -0.8524 0.3506 0.3880
vn -0.5430 0.7973 0.2636
vn 0.8106 0.2600 0.5247
vn 0.2580 0.8144 0.5198
vn 0.6980 0.6675 0.2595
vn -0.2135 0.2338 -0.9486
vn -0.2661 -0.0623 -0.9619
vn -0.0991 -0.1538 0.9831
vn -0.8982 -0.0940 0.4294
vn -0.8628 -0.0845 -0.4984
vn 0.6532 0.7572 -0.0073
vn 0.5307 0.7873 -0.3138
vn 0.2085 0.7318 -0.6489
vn 0.1079 0.5980 -0.7942
vn -0.2460 0.7093 -0.6606
usemtl Ground.002
s 1
f 6/1/1 9/2/2 5/3/3
f 8/4/4 2/5/5 7/6/6
f 4/7/7 1/8/8 2/5/5
f 9/2/2 2/5/5 8/4/4
f 9/2/2 6/1/1 2/5/5
f 6/1/1 4/7/7 2/5/5
f 3/9/9 4/7/7 6/1/1
usemtl Wall
f 13/10/10 10/11/11 11/12/12 12/13/13
f 16/14/14 1/15/8 4/16/7
f 11/12/12 7/17/6 2/18/5
f 21/19/15 24/20/16 25/21/17
f 23/22/18 26/23/19 20/24/20
f 20/24/20 26/23/19 30/25/21
f 17/26/22 29/27/23 34/28/24
f 15/29/25 14/30/26 10/11/11 13/10/10
f 20/24/20 21/19/15 18/31/27 19/32/28
f 15/29/25 23/22/18 22/33/29 14/30/26
f 20/24/20 19/32/28 22/33/29 23/22/18
f 11/12/12 16/14/14 17/26/22
f 21/34/15 17/26/22 16/14/14 18/35/27
f 11/12/12 17/26/22 12/13/13
f 7/17/6 11/12/12 10/11/11 8/36/4
f 6/37/1 19/32/28 18/31/27 3/38/9
f 10/11/11 14/30/26 9/39/2
f 5/40/3 9/39/2 14/30/26 22/33/29
f 10/11/11 9/39/2 8/36/4
f 2/18/5 1/15/8 16/14/14 11/12/12
f 5/40/3 22/33/29 19/32/28 6/37/1
f 4/16/7 3/41/9 18/35/27 16/14/14
f 27/42/30 28/43/31 12/13/13 17/26/22
f 29/27/23 17/26/22 21/34/15 25/44/17
f 31/45/32 13/10/10 12/13/13 28/43/31
f 32/46/33 33/47/34 15/29/25 13/10/10
f 24/20/16 21/19/15 20/24/20 30/25/21
f 13/10/10 31/45/32 32/46/33
f 15/29/25 33/47/34 23/22/18
f 17/26/22 34/28/24 27/42/30
