# Blender v2.78 (sub 0) OBJ File: 'Mesh_Dungeon_Small_RoomSquare_lod0.blend'
# www.blender.org
mtllib Mesh_CavePack_Room_Square_End_Large_lod2.mtl
o Plane.016
v -12.750183 0.077149 -3.243028
v 9.573755 -0.144539 -15.799059
v -12.352697 0.172256 -15.882289
v 10.061433 0.597825 -3.499627
v 12.359270 -0.196377 15.845589
v -16.000000 -0.000002 12.800000
v 16.881233 0.348948 8.783097
v -12.832192 0.168354 16.675173
v 7.430077 3.911014 18.338072
v 9.480325 3.971295 -18.396664
v -9.797685 3.813472 -18.069765
v -6.736268 10.911178 18.479607
v 3.513426 7.255510 -16.342827
v 9.724185 7.911019 -18.837654
v 8.061954 13.310211 -15.175478
v 7.410268 10.393215 18.533665
v -0.699095 16.659147 -13.974243
v 9.385937 16.035698 12.612484
v -9.864359 16.059959 12.177550
v -14.106628 4.366153 -16.457401
v -10.813375 15.539085 -12.210893
v 14.606618 4.779577 15.563422
v -14.872931 5.900095 16.040110
v -11.376786 15.853002 3.874750
v -12.436109 16.249880 -4.350866
v -0.890769 17.833248 5.504329
v 2.866737 16.388998 -3.579126
v 9.861221 16.423378 -3.630921
v 8.871099 15.091940 4.777842
v 1.641171 16.701069 14.994965
v 9.962728 15.706859 -10.633275
v -15.986622 3.993790 12.796298
v -15.993312 0.437054 3.202769
v -15.834124 3.969132 3.241222
v -15.776687 5.859630 9.660651
v -13.648755 8.194585 11.793253
v -16.000000 5.999999 6.400001
v -13.609421 8.000000 4.209892
v 14.288160 8.573963 0.630851
v 15.897308 8.053188 10.391160
v 13.143356 8.451842 -11.561982
v -14.105727 13.098907 -2.178920
v -14.201131 4.111440 -8.370261
vt 1.8668 -0.2994
vt 1.8509 1.5362
vt 0.7036 1.6317
vt -0.8707 1.6946
vt 0.8411 -0.3022
vt -0.5965 1.8707
vt 0.2259 1.8707
vt -0.8631 -0.5327
vt -0.2619 -0.8458
vt 1.0616 2.1043
vt 0.4878 0.9970
vt 0.8479 0.9970
vt -0.4165 -0.4117
vt -0.3849 -0.9593
vt 0.1751 -0.7348
vt -1.0777 -0.1353
vt -0.6770 -0.0008
vt -1.1897 0.2905
vt -0.6208 0.5216
vt -1.1119 0.4938
vt 0.1995 -0.4811
vt 0.5637 0.4998
vt 0.4384 0.3478
vt 0.5442 0.1689
vt 1.6876 -0.1322
vt 1.7350 0.3828
vt 1.2798 -0.3849
vt -1.2270 -0.8396
vt -0.9763 -0.5333
vt 0.6867 -0.1248
vt 1.0842 -0.0777
vt 0.7095 0.2874
vt 1.2041 0.2938
vt 0.8631 -0.4540
vt 1.1167 -0.5474
vt 0.4125 -0.7837
vt 0.4417 -1.2189
vt 0.2077 -0.1764
vt 0.2424 -0.4553
vt 0.4221 -0.1754
vt -0.4122 1.9363
vt -0.6776 1.9274
vt -0.6804 0.8976
vt -0.4122 0.7552
vt 1.1062 0.7209
vt 0.4538 1.7889
vt -0.8197 1.5864
vt -0.9058 1.9355
vt -1.0948 1.8147
vt 0.2232 1.7566
vt 0.1995 1.4533
vt -0.6552 0.6348
vt 0.8364 0.6269
vt 0.7797 2.2067
vt 1.0356 0.6202
vt 0.1377 0.0899
vt -0.0524 0.5366
vt -0.9237 -0.9495
vt 0.5390 -0.0056
vt 1.7083 -0.7862
vt 2.2175 -1.0599
vt 2.2214 -0.4258
vt -0.1618 0.8888
vt -0.4122 0.8858
vt -0.3172 0.7066
vt 0.2281 -1.1918
vt 2.1480 0.3375
vt -1.2226 1.4064
vt 0.2232 1.0350
vt -1.1760 0.7842
vt 0.2160 0.3569
vt 0.2574 0.5355
vt 0.5207 0.7351
vt -0.1618 0.6279
vt -0.0208 0.6771
vt -0.1054 0.8829
vt 1.1211 -1.0118
vt 1.3276 -0.8106
vt 1.9239 0.6675
vt 2.2270 0.6631
vt 1.7615 -1.2270
vt 1.9906 -1.1945
vt 1.5660 -1.1167
vn -0.4920 0.7573 0.4294
vn 0.4805 0.7519 0.4513
vn 0.3787 0.9178 0.1194
vn 0.3383 0.6678 -0.6631
vn -0.4949 0.8652 0.0808
vn 0.3976 0.8760 -0.2731
vn 0.5896 0.7982 0.1236
vn -0.4120 0.7131 -0.5672
vn -0.7978 0.6027 0.0177
vn -0.2662 -0.2941 -0.9179
vn -0.1238 0.2152 -0.9687
vn -0.0939 -0.9956 -0.0069
vn -0.0603 -0.8634 -0.5008
vn 0.5061 -0.7898 -0.3465
vn -0.4862 -0.8738 0.0024
vn -0.0487 -0.9986 0.0213
vn -0.5626 -0.7869 0.2535
vn 0.0284 -0.8206 0.5708
vn -0.3427 -0.5827 0.7369
vn 0.6248 -0.7713 -0.1213
vn 0.7457 -0.2276 -0.6262
vn 0.9298 -0.0958 -0.3553
vn 0.8600 -0.5053 -0.0708
vn -0.9718 -0.1323 0.1954
vn -0.9217 -0.3421 -0.1828
vn -0.4163 -0.9080 -0.0480
vn 0.9235 -0.3835 -0.0092
vn 0.8636 -0.4944 -0.0983
vn 0.9424 -0.3327 -0.0361
vn 0.5832 -0.8064 0.0975
vn 0.9812 0.1796 0.0704
vn 0.7892 -0.0101 0.6141
vn 0.9696 -0.2199 0.1071
vn -0.4360 0.2331 0.8693
vn 0.1484 0.0489 0.9877
vn 0.2025 -0.3220 -0.9248
vn 0.0918 -0.3532 0.9310
vn -0.3579 -0.1841 0.9154
vn -0.7423 -0.0675 -0.6667
vn 0.4920 -0.7373 0.4630
vn -0.4517 -0.8426 -0.2931
vn 0.6907 -0.7162 0.1000
vn -0.9648 -0.0918 0.2464
usemtl Ground.006
s 1
f 2/1/1 3/2/2 1/3/3
f 8/4/4 4/5/5 1/3/3
f 6/6/6 1/3/3 33/7/7
f 1/3/3 6/6/6 8/4/4
f 4/5/5 5/8/8 7/9/9
f 8/4/4 5/8/8 4/5/5
f 1/3/3 4/5/5 2/1/1
usemtl Walls.006
f 8/10/4 16/11/10 9/12/11
f 26/13/12 30/14/13 19/15/14
f 28/16/15 27/17/16 31/18/17
f 31/18/17 17/19/18 15/20/19
f 26/13/12 19/15/14 24/21/20
f 23/22/21 32/23/22 35/24/23
f 39/25/24 40/26/25 28/27/15
f 28/16/15 40/28/25 29/29/26
f 38/30/27 24/31/20 35/24/23
f 23/22/21 36/32/28 19/33/14
f 24/31/20 42/34/29 25/35/30
f 43/36/31 20/37/32 42/34/29
f 33/38/7 1/39/3 43/36/31
f 43/36/31 42/34/29 34/40/33
f 2/41/1 10/42/34 11/43/35 3/44/2
f 5/45/8 8/10/4 9/12/11
f 8/10/4 12/46/36 16/11/10
f 10/42/34 13/47/37 11/43/35
f 10/42/34 14/48/38 13/47/37
f 13/47/37 14/48/38 15/49/19
f 12/46/36 19/50/14 30/51/13
f 11/43/35 20/52/32 3/44/2
f 22/53/39 9/12/11 16/11/10
f 9/12/11 22/53/39 5/45/8
f 8/10/4 23/54/21 12/46/36
f 19/33/14 12/55/36 23/22/21
f 26/13/12 25/56/30 27/17/16
f 27/17/16 28/16/15 29/29/26
f 25/56/30 21/57/40 27/17/16
f 27/17/16 21/57/40 17/19/18
f 18/58/41 30/14/13 29/29/26
f 38/30/27 37/59/42 34/40/33
f 39/25/24 41/60/43 2/61/1
f 4/62/5 39/25/24 2/61/1
f 18/63/41 29/64/26 40/65/25
f 43/36/31 1/39/3 3/66/2
f 20/37/32 43/36/31 3/66/2
f 7/67/9 40/26/25 39/25/24
f 33/38/7 43/36/31 34/40/33
f 13/47/37 15/49/19 17/68/18 11/43/35
f 16/11/10 12/46/36 30/51/13 18/69/41
f 11/43/35 17/68/18 21/70/40 20/52/32
f 6/71/6 32/23/22 23/22/21 8/72/4
f 16/11/10 18/73/41 22/53/39
f 26/13/12 27/17/16 30/14/13
f 30/14/13 27/17/16 29/29/26
f 24/21/20 25/56/30 26/13/12
f 31/18/17 27/17/16 17/19/18
f 36/32/28 35/24/23 24/31/20 19/33/14
f 36/32/28 23/22/21 35/24/23
f 38/30/27 35/24/23 37/59/42
f 22/74/39 18/75/41 40/76/25
f 39/25/24 4/62/5 7/67/9
f 38/30/27 34/40/33 42/34/29 24/31/20
f 21/77/40 25/35/30 42/34/29 20/37/32
f 41/60/43 39/25/24 28/27/15 31/78/17
f 22/79/39 40/26/25 7/67/9 5/80/8
f 41/60/43 14/81/38 10/82/34 2/61/1
f 41/60/43 31/78/17 15/83/19 14/81/38
