# Blender v2.78 (sub 0) OBJ File: ''
# www.blender.org
mtllib Mesh_CavePack_Fern1.mtl
o Plane
v -0.252953 -0.027488 -0.166203
v -1.363349 0.703306 1.419606
v 0.242695 -0.027488 0.180853
v -0.867701 0.703306 1.766663
v -0.576509 0.656535 0.295883
v -0.080861 0.656535 0.642939
v -1.004481 0.878697 0.907090
v -0.508833 0.878697 1.254146
v 0.270413 -0.027488 -0.135962
v -0.547740 0.703306 -1.890498
v -0.277971 -0.027488 0.119753
v -1.096124 0.703306 -1.634782
v 0.032013 0.656535 -0.647213
v -0.516371 0.656535 -0.391497
v -0.283322 0.878697 -1.323451
v -0.831706 0.878697 -1.067735
v -0.020911 -0.027488 0.301946
v 1.905584 0.703306 0.492699
v 0.038709 -0.027488 -0.300184
v 1.965204 0.703306 -0.109432
v 0.540446 0.656535 0.357529
v 0.600066 0.656535 -0.244601
v 1.282961 0.878697 0.431049
v 1.342581 0.878697 -0.171081
v -0.216689 -0.011877 0.046031
v 0.026777 0.517392 1.426797
v 0.214872 -0.011877 -0.030065
v 0.458338 0.517392 1.350701
v -0.145746 0.483519 0.448370
v 0.285815 0.483519 0.372274
v -0.051909 0.644417 0.980548
v 0.379653 0.644417 0.904452
v 0.066821 -0.011877 -0.206506
v -1.250691 0.517392 -0.686041
v -0.083059 -0.011877 0.205285
v -1.400570 0.517392 -0.274250
v -0.317086 0.483519 -0.346236
v -0.466966 0.483519 0.065555
v -0.824885 0.644417 -0.531060
v -0.974765 0.644417 -0.119269
v 0.141889 -0.011877 0.166945
v 1.226162 0.517392 -0.721954
v -0.135939 -0.011877 -0.171947
v 0.948335 0.517392 -1.060846
v 0.457833 0.483519 -0.092070
v 0.180006 0.483519 -0.430961
v 0.875736 0.644417 -0.434671
v 0.597909 0.644417 -0.773563
vt 0.9999 0.7499
vt 0.9999 0.9999
vt 0.0001 0.9999
vt 0.0001 0.7500
vt 0.9999 0.0001
vt 0.9999 0.5000
vt 0.0001 0.5000
vt 0.0001 0.0001
vt 0.9999 0.7499
vt 0.9999 0.9999
vt 0.0001 0.9999
vt 0.0001 0.7500
vt 0.9999 0.0001
vt 0.9999 0.5000
vt 0.0001 0.5000
vt 0.0001 0.0001
vt 0.9999 0.7499
vt 0.9999 0.9999
vt 0.0001 0.9999
vt 0.0001 0.7500
vt 0.9999 0.0001
vt 0.9999 0.5000
vt 0.0001 0.5000
vt 0.0001 0.0001
vt 0.9999 0.7499
vt 0.9999 0.9999
vt 0.0001 0.9999
vt 0.0001 0.7500
vt 0.9999 0.0001
vt 0.9999 0.5000
vt 0.0001 0.5000
vt 0.0001 0.0001
vt 0.9999 0.7499
vt 0.9999 0.9999
vt 0.0001 0.9999
vt 0.0001 0.7500
vt 0.9999 0.0001
vt 0.9999 0.5000
vt 0.0001 0.5000
vt 0.0001 0.0001
vt 0.9999 0.7499
vt 0.9999 0.9999
vt 0.0001 0.9999
vt 0.0001 0.7500
vt 0.9999 0.0001
vt 0.9999 0.5000
vt 0.0001 0.5000
vt 0.0001 0.0001
vn -0.1548 0.9629 0.2211
vn 0.4425 0.6362 -0.6320
vn 0.1637 0.9584 -0.2338
vn -0.1141 0.9629 -0.2446
vn 0.3260 0.6362 0.6992
vn 0.1206 0.9584 0.2586
vn 0.2686 0.9629 0.0266
vn -0.7677 0.6362 -0.0760
vn -0.2840 0.9584 -0.0281
vn 0.0469 0.9629 0.2658
vn -0.1340 0.6362 -0.7598
vn -0.0496 0.9584 -0.2810
vn -0.2536 0.9629 -0.0923
vn 0.7250 0.6362 0.2639
vn 0.2682 0.9584 0.0976
vn 0.2087 0.9629 -0.1711
vn -0.5966 0.6362 0.4891
vn -0.2207 0.9584 0.1809
usemtl None
s off
f 7/1/1 2/2/1 4/3/1 8/4/1
f 1/5/2 5/6/2 6/7/2 3/8/2
f 5/6/3 7/1/3 8/4/3 6/7/3
f 15/9/4 10/10/4 12/11/4 16/12/4
f 9/13/5 13/14/5 14/15/5 11/16/5
f 13/14/6 15/9/6 16/12/6 14/15/6
f 23/17/7 18/18/7 20/19/7 24/20/7
f 17/21/8 21/22/8 22/23/8 19/24/8
f 21/22/9 23/17/9 24/20/9 22/23/9
f 31/25/10 26/26/10 28/27/10 32/28/10
f 25/29/11 29/30/11 30/31/11 27/32/11
f 29/30/12 31/25/12 32/28/12 30/31/12
f 39/33/13 34/34/13 36/35/13 40/36/13
f 33/37/14 37/38/14 38/39/14 35/40/14
f 37/38/15 39/33/15 40/36/15 38/39/15
f 47/41/16 42/42/16 44/43/16 48/44/16
f 41/45/17 45/46/17 46/47/17 43/48/17
f 45/46/18 47/41/18 48/44/18 46/47/18
